<!-- Generated by IcoMoon.io -->
<svg version="1.1" xmlns="http://www.w3.org/2000/svg" width="30" height="30" viewBox="0 0 30 30">
<title>-edit</title>
<path fill="#0f0d1d" d="M29.139 18.265c-0.434 0-0.786 0.352-0.786 0.787v6.992c-0.002 1.304-1.057 2.361-2.359 2.362h-22.063c-1.302-0.002-2.357-1.058-2.359-2.362v-20.519c0.002-1.304 1.057-2.361 2.359-2.362h6.981c0.434 0 0.786-0.352 0.786-0.787s-0.352-0.787-0.786-0.787h-6.981c-2.17 0.002-3.929 1.764-3.931 3.937v20.519c0.002 2.173 1.761 3.935 3.931 3.937h22.063c2.17-0.002 3.929-1.764 3.931-3.937v-6.991c0-0.435-0.352-0.788-0.786-0.788zM12.295 14.122l11.481-11.497 3.703 3.708-11.481 11.497zM10.422 19.705l4.092-1.135-2.958-2.963zM28.502 0.675c-0.768-0.767-2.012-0.767-2.78 0l-0.834 0.835 3.703 3.708 0.834-0.835c0.767-0.769 0.767-2.015 0-2.784zM28.502 0.675"></path>
</svg>
