<!-- Generated by IcoMoon.io -->
<svg version="1.1" xmlns="http://www.w3.org/2000/svg" width="35" height="35" viewBox="0 0 35 35">
<title>-manufacturing</title>
<path fill="#fff" d="M13.422 11.167c-1.957 1.265-3.156 3.42-3.2 5.75 0 0.322 0.261 0.583 0.583 0.583s0.583-0.261 0.583-0.583c0.040-1.921 1.026-3.699 2.635-4.75 0.271-0.169 0.356-0.523 0.192-0.796s-0.518-0.364-0.793-0.203zM31.222 14.583c-1.385 0.002-2.579 0.977-2.858 2.333h-7.118c-0.135-0.639-0.481-1.213-0.982-1.632l1.971-3.618h2.046c0.3 1.467 1.661 2.469 3.151 2.318s2.624-1.405 2.624-2.902-1.134-2.751-2.624-2.902c-1.49-0.151-2.851 0.852-3.151 2.319h-1.809v-3.842l1.992-1.992h2.734c0.299 1.467 1.661 2.469 3.151 2.319s2.624-1.405 2.624-2.902c0-1.498-1.134-2.751-2.624-2.902s-2.852 0.852-3.151 2.319h-2.734c-0.309 0.001-0.606 0.124-0.825 0.342l-0.5 0.5c-0.41-0.152-0.827-0.283-1.25-0.393v-2.783c-0.001-0.644-0.523-1.166-1.167-1.167h-4.667c-0.644 0.001-1.166 0.523-1.167 1.167v2.782c-1.268 0.323-2.484 0.826-3.611 1.491l-1.957-1.957c-0.218-0.225-0.519-0.351-0.832-0.351h-0.001c-0.311-0.001-0.609 0.123-0.825 0.346l-3.291 3.29c-0.224 0.218-0.35 0.516-0.351 0.828s0.124 0.612 0.346 0.831l1.961 1.962c-0.665 1.127-1.167 2.343-1.491 3.611h-2.782c-0.644 0.001-1.166 0.523-1.167 1.167v4.667c0.001 0.644 0.523 1.166 1.167 1.167h2.782c0.324 1.268 0.826 2.484 1.491 3.611l-1.956 1.956c-0.224 0.218-0.35 0.516-0.351 0.828s0.124 0.612 0.346 0.83l3.291 3.291c0.218 0.225 0.518 0.352 0.831 0.351h0.001c0.311 0.001 0.609-0.123 0.827-0.346l1.962-1.962c1.127 0.665 2.342 1.168 3.611 1.491v2.782c0.001 0.644 0.523 1.166 1.167 1.167h4.667c0.644-0.001 1.166-0.523 1.167-1.167v-2.783c0.423-0.11 0.84-0.241 1.25-0.393l0.5 0.5c0.219 0.218 0.516 0.341 0.825 0.342h2.734c0.299 1.467 1.661 2.469 3.151 2.319s2.624-1.405 2.624-2.902c0-1.497-1.134-2.751-2.624-2.902s-2.852 0.852-3.151 2.319h-2.734l-1.992-1.992v-3.842h1.809c0.3 1.467 1.661 2.469 3.151 2.319s2.624-1.405 2.624-2.902-1.134-2.751-2.624-2.902c-1.49-0.151-2.851 0.851-3.151 2.318h-2.046l-1.971-3.618c0.501-0.418 0.848-0.993 0.982-1.632h7.118c0.307 1.504 1.727 2.512 3.248 2.307s2.623-1.555 2.52-3.086-1.375-2.721-2.91-2.721zM30.055 2.333c0.966 0 1.75 0.783 1.75 1.75s-0.783 1.75-1.75 1.75c-0.967 0-1.75-0.783-1.75-1.75 0.001-0.966 0.784-1.749 1.75-1.75zM30.055 29.167c0.966 0 1.75 0.783 1.75 1.75s-0.783 1.75-1.75 1.75c-0.967 0-1.75-0.783-1.75-1.75 0.001-0.966 0.784-1.749 1.75-1.75zM18.389 19.25c-0.966 0-1.75-0.784-1.75-1.75s0.784-1.75 1.75-1.75 1.75 0.784 1.75 1.75c-0.001 0.966-0.784 1.749-1.75 1.75zM27.139 9.333c0.966 0 1.75 0.783 1.75 1.75s-0.784 1.75-1.75 1.75-1.75-0.783-1.75-1.75c0.001-0.966 0.784-1.749 1.75-1.75zM21.179 30.021c-0.267 0.059-0.457 0.296-0.457 0.569v3.243h-4.667v-3.243c0-0.274-0.191-0.511-0.458-0.57-1.453-0.319-2.839-0.891-4.094-1.69-0.231-0.146-0.532-0.113-0.725 0.080l-2.29 2.287-3.296-3.299 2.287-2.287c0.193-0.193 0.226-0.495 0.080-0.725-0.799-1.255-1.371-2.641-1.69-4.094-0.058-0.268-0.296-0.458-0.57-0.459h-3.243v-4.667h3.243c0.274 0 0.511-0.191 0.57-0.458 0.319-1.453 0.891-2.839 1.69-4.094 0.147-0.23 0.113-0.532-0.080-0.725l-2.287-2.29 3.299-3.296 2.287 2.287c0.193 0.193 0.495 0.227 0.725 0.080 1.255-0.799 2.64-1.371 4.094-1.69 0.268-0.059 0.458-0.296 0.458-0.57v-3.243h4.667v3.243c0 0.273 0.19 0.51 0.457 0.569 0.361 0.080 0.708 0.175 1.043 0.279l-0.575 0.575c-0.22 0.218-0.343 0.515-0.342 0.825v0.756c-4.29-1.242-8.895 0.365-11.481 4.006s-2.586 8.519 0 12.159c2.586 3.641 7.191 5.248 11.481 4.006v0.756c-0.001 0.309 0.122 0.606 0.342 0.825l0.575 0.574c-0.335 0.105-0.682 0.199-1.043 0.28zM27.139 22.167c0.966 0 1.75 0.783 1.75 1.75s-0.784 1.75-1.75 1.75-1.75-0.783-1.75-1.75c0.001-0.966 0.784-1.749 1.75-1.75zM21.305 24.065v2.294c-3.851 1.277-8.086-0.080-10.477-3.358s-2.392-7.725 0-11.002c2.391-3.278 6.626-4.635 10.477-3.358v2.294l-2.065 3.79c-0.275-0.090-0.563-0.138-0.852-0.142-1.611 0-2.917 1.306-2.917 2.917s1.306 2.917 2.917 2.917c0.289-0.004 0.577-0.052 0.852-0.142zM31.222 19.25c-0.967 0-1.75-0.784-1.75-1.75s0.783-1.75 1.75-1.75c0.966 0 1.75 0.784 1.75 1.75-0.001 0.966-0.784 1.749-1.75 1.75zM31.222 19.25"></path>
</svg>
