<!-- Generated by IcoMoon.io -->
<svg version="1.1" xmlns="http://www.w3.org/2000/svg" width="40" height="40" viewBox="0 0 40 40">
<title>-medal</title>
<path fill="#fff" d="M8.337 14.844c0 6.462 5.267 11.719 11.742 11.719s11.742-5.257 11.742-11.719-5.267-11.719-11.742-11.719-11.742 5.257-11.742 11.719zM20.078 4.688c5.611 0 10.176 4.556 10.176 10.156s-4.565 10.156-10.176 10.156-10.176-4.556-10.176-10.156 4.565-10.156 10.176-10.156zM12.829 13.451l3.034 2.984-0.698 4.193c-0.049 0.292 0.072 0.586 0.312 0.76s0.557 0.197 0.821 0.061l3.78-1.959 3.78 1.959c0.261 0.135 0.579 0.114 0.821-0.061 0.24-0.174 0.361-0.468 0.312-0.76l-0.698-4.193 3.034-2.984c0.211-0.208 0.287-0.516 0.195-0.798s-0.335-0.487-0.628-0.531l-4.211-0.633-1.905-3.803c-0.132-0.265-0.404-0.432-0.7-0.432s-0.568 0.167-0.7 0.432l-1.905 3.803-4.211 0.633c-0.293 0.044-0.536 0.25-0.628 0.531s-0.016 0.591 0.195 0.798zM18.108 12.974c0.252-0.038 0.47-0.196 0.584-0.423l1.387-2.768 1.387 2.768c0.114 0.227 0.332 0.385 0.584 0.423l3.065 0.461-2.209 2.171c-0.181 0.179-0.264 0.434-0.223 0.685l0.508 3.052-2.751-1.426c-0.113-0.059-0.237-0.088-0.361-0.088s-0.248 0.029-0.361 0.088l-2.751 1.426 0.508-3.052c0.042-0.251-0.041-0.506-0.223-0.685l-2.208-2.171zM20.861 0.781c0 0.432-0.35 0.781-0.783 0.781s-0.783-0.35-0.783-0.781 0.35-0.781 0.783-0.781 0.783 0.35 0.783 0.781zM16.389 0.461c-6.585 1.678-11.184 7.592-11.184 14.383 0 4.218 1.777 8.192 4.896 11.007l-4.716 8.295c-0.152 0.267-0.133 0.598 0.048 0.846s0.49 0.367 0.792 0.305l5.356-1.11 1.882 5.294c0.102 0.288 0.364 0.49 0.669 0.517s0.598-0.126 0.749-0.392l5.197-9.119 5.197 9.119c0.14 0.246 0.401 0.395 0.68 0.395 0.023 0 0.046-0.001 0.069-0.003 0.305-0.027 0.567-0.229 0.669-0.517l1.882-5.294 5.356 1.11c0.301 0.062 0.611-0.057 0.792-0.305s0.2-0.579 0.048-0.846l-4.716-8.295c3.119-2.815 4.896-6.789 4.896-11.007 0-6.791-4.599-12.706-11.183-14.383-0.419-0.107-0.845 0.146-0.952 0.564s0.146 0.844 0.565 0.95c5.891 1.501 10.006 6.793 10.006 12.869 0 7.395-6.018 13.281-13.307 13.281-7.295 0-13.307-5.891-13.307-13.281 0-6.076 4.114-11.368 10.005-12.869 0.419-0.107 0.672-0.532 0.565-0.95s-0.533-0.67-0.952-0.564zM14.367 37.348l-1.538-4.326c-0.131-0.368-0.514-0.583-0.897-0.504l-4.331 0.898 3.732-6.565c2.176 1.579 4.753 2.541 7.432 2.779zM28.225 32.518c-0.383-0.079-0.766 0.136-0.897 0.504l-1.538 4.326-4.399-7.719c2.68-0.238 5.256-1.2 7.433-2.779l3.732 6.565zM28.225 32.518"></path>
</svg>
