<!-- Generated by IcoMoon.io -->
<svg version="1.1" xmlns="http://www.w3.org/2000/svg" width="42" height="42" viewBox="0 0 42 42">
<title>-location-1</title>
<path fill="#111013" d="M21 20.118c3.796 0 6.885-3.088 6.885-6.884s-3.089-6.884-6.885-6.884-6.885 3.088-6.885 6.884 3.089 6.884 6.885 6.884zM21 8.811c2.439 0 4.424 1.984 4.424 4.423s-1.985 4.424-4.424 4.424-4.424-1.984-4.424-4.424c0-2.439 1.985-4.423 4.424-4.423zM13.503 25.604c1.865 2.525 1.116 1.543 6.488 9.212 0.488 0.7 1.527 0.703 2.018 0.001 5.396-7.706 4.654-6.73 6.488-9.214 1.858-2.516 3.78-5.118 4.833-8.167 1.524-4.413 0.865-8.78-1.855-12.296-0 0-0-0-0-0-2.492-3.22-6.408-5.142-10.475-5.142s-7.983 1.922-10.475 5.142c-2.72 3.516-3.379 7.883-1.855 12.296 1.053 3.049 2.975 5.65 4.833 8.166zM12.471 6.648c2.029-2.622 5.218-4.187 8.529-4.187s6.499 1.565 8.529 4.187l-0-0c2.196 2.838 2.72 6.384 1.475 9.987-0.93 2.693-2.738 5.141-4.487 7.508-1.361 1.843-0.954 1.279-5.517 7.82-4.558-6.534-4.156-5.978-5.517-7.82-1.748-2.367-3.557-4.815-4.487-7.508-1.244-3.603-0.72-7.15 1.475-9.987zM14.514 30.939c-0.363-0.574-1.123-0.746-1.697-0.383l-3.499 2.21c-0.763 0.482-0.764 1.598 0 2.080l11.025 6.963c0.401 0.254 0.913 0.253 1.314 0l11.025-6.963c0.763-0.482 0.764-1.598 0-2.080l-3.499-2.21c-0.575-0.363-1.335-0.191-1.697 0.383s-0.191 1.334 0.383 1.697l1.852 1.17-8.721 5.508-8.721-5.508 1.852-1.17c0.575-0.363 0.746-1.123 0.383-1.697z"></path>
</svg>
