<!-- Generated by IcoMoon.io -->
<svg version="1.1" xmlns="http://www.w3.org/2000/svg" width="42" height="42" viewBox="0 0 42 42">
<title>-phone-call</title>
<path fill="#111013" d="M33.193 26.018c-0.86-0.895-1.897-1.374-2.996-1.374-1.090 0-2.136 0.47-3.032 1.365l-2.801 2.792c-0.23-0.124-0.461-0.239-0.683-0.355-0.319-0.16-0.621-0.31-0.878-0.47-2.624-1.667-5.008-3.838-7.295-6.648-1.108-1.401-1.853-2.58-2.393-3.776 0.727-0.665 1.401-1.356 2.057-2.021 0.248-0.248 0.496-0.505 0.745-0.753 1.862-1.862 1.862-4.273 0-6.134l-2.42-2.42c-0.275-0.275-0.558-0.558-0.824-0.842-0.532-0.55-1.090-1.117-1.667-1.649-0.86-0.851-1.888-1.303-2.97-1.303s-2.127 0.452-3.014 1.303c-0.009 0.009-0.009 0.009-0.018 0.018l-3.014 3.040c-1.135 1.135-1.782 2.517-1.924 4.122-0.213 2.588 0.55 5 1.135 6.577 1.436 3.874 3.581 7.464 6.781 11.311 3.883 4.636 8.554 8.297 13.891 10.877 2.039 0.966 4.76 2.11 7.801 2.305 0.186 0.009 0.381 0.018 0.558 0.018 2.048 0 3.767-0.736 5.115-2.198 0.009-0.018 0.027-0.027 0.035-0.044 0.461-0.558 0.993-1.064 1.551-1.604 0.381-0.363 0.771-0.745 1.152-1.144 0.878-0.913 1.339-1.977 1.339-3.067 0-1.099-0.47-2.154-1.365-3.040l-4.867-4.884zM36.367 35.352c-0.009 0-0.009 0.009 0 0-0.346 0.372-0.7 0.709-1.081 1.081-0.576 0.55-1.161 1.126-1.711 1.773-0.895 0.957-1.95 1.409-3.333 1.409-0.133 0-0.275 0-0.408-0.009-2.633-0.168-5.079-1.197-6.914-2.074-5.017-2.429-9.423-5.877-13.084-10.247-3.023-3.643-5.044-7.012-6.382-10.628-0.824-2.207-1.126-3.927-0.993-5.549 0.089-1.037 0.488-1.897 1.223-2.633l3.023-3.023c0.434-0.408 0.895-0.629 1.347-0.629 0.558 0 1.011 0.337 1.294 0.621 0.009 0.009 0.018 0.018 0.027 0.027 0.541 0.505 1.055 1.028 1.596 1.587 0.275 0.284 0.558 0.567 0.842 0.86l2.42 2.42c0.94 0.94 0.94 1.808 0 2.748-0.257 0.257-0.505 0.514-0.762 0.762-0.745 0.762-1.454 1.471-2.225 2.163-0.018 0.018-0.035 0.027-0.044 0.044-0.762 0.762-0.621 1.507-0.461 2.012 0.009 0.027 0.018 0.053 0.027 0.080 0.629 1.525 1.516 2.961 2.863 4.672l0.009 0.009c2.447 3.014 5.026 5.363 7.872 7.162 0.363 0.23 0.736 0.417 1.090 0.594 0.319 0.16 0.621 0.31 0.878 0.47 0.035 0.018 0.071 0.044 0.106 0.062 0.301 0.151 0.585 0.222 0.878 0.222 0.736 0 1.197-0.461 1.347-0.612l3.032-3.032c0.301-0.301 0.78-0.665 1.339-0.665 0.55 0 1.002 0.346 1.276 0.647 0.009 0.009 0.009 0.009 0.018 0.018l4.884 4.884c0.913 0.904 0.913 1.835 0.009 2.775zM22.698 9.991c2.322 0.39 4.432 1.489 6.116 3.173s2.775 3.794 3.173 6.116c0.097 0.585 0.603 0.993 1.179 0.993 0.071 0 0.133-0.009 0.204-0.018 0.656-0.106 1.090-0.727 0.984-1.383-0.479-2.81-1.808-5.372-3.838-7.402s-4.592-3.36-7.402-3.838c-0.656-0.106-1.268 0.328-1.383 0.975s0.31 1.276 0.966 1.383zM41.951 18.527c-0.789-4.627-2.97-8.838-6.32-12.189s-7.561-5.531-12.189-6.32c-0.647-0.115-1.259 0.328-1.374 0.975-0.106 0.656 0.328 1.268 0.984 1.383 4.131 0.7 7.898 2.659 10.894 5.647 2.996 2.996 4.946 6.764 5.647 10.894 0.097 0.585 0.603 0.993 1.179 0.993 0.071 0 0.133-0.009 0.204-0.018 0.647-0.097 1.090-0.718 0.975-1.365z"></path>
</svg>
