<!-- Generated by IcoMoon.io -->
<svg version="1.1" xmlns="http://www.w3.org/2000/svg" width="42" height="42" viewBox="0 0 42 42">
<title>-email-1</title>
<path fill="#111013" d="M31.895 13.883c-0.319-0.322-0.838-0.324-1.16-0.005s-0.324 0.839-0.005 1.16l0.005 0.005c0.16 0.161 0.369 0.241 0.579 0.241s0.418-0.080 0.579-0.239c0.322-0.319 0.321-0.841 0.002-1.163zM41.76 23.748l-7.619-7.619c-0.32-0.32-0.84-0.32-1.16 0s-0.32 0.84 0 1.16l6.048 6.048h-14.423c-1.197 0-2.17-0.973-2.17-2.17v-14.423l5.839 5.839c0.32 0.32 0.84 0.32 1.16 0s0.32-0.84 0-1.16l-7.41-7.41c-0.32-0.32-0.84-0.32-1.16 0l-13.077 13.078c-0.32 0.32-0.32 0.84 0 1.16l19.734 19.734c0.154 0.154 0.362 0.24 0.58 0.24s0.426-0.086 0.58-0.24l13.078-13.078c0.154-0.154 0.24-0.362 0.24-0.58s-0.087-0.426-0.24-0.58zM20.796 6.404v10.447h-10.447l10.447-10.447zM27.282 35.425l-16.934-16.933h10.447v2.676c0 2.101 1.709 3.81 3.81 3.81h2.676v10.447zM28.922 35.425v-10.447h10.447l-10.447 10.447zM5.63 20.836h-4.81c-0.453 0-0.82 0.367-0.82 0.82s0.367 0.82 0.82 0.82h4.81c0.453 0 0.82-0.367 0.82-0.82s-0.367-0.82-0.82-0.82zM8.076 20.836h-0.012c-0.453 0-0.82 0.367-0.82 0.82s0.367 0.82 0.82 0.82h0.012c0.453 0 0.82-0.367 0.82-0.82s-0.367-0.82-0.82-0.82zM3.447 12.223h-2.625c-0.453 0-0.82 0.367-0.82 0.82s0.367 0.82 0.82 0.82h2.625c0.453 0 0.82-0.367 0.82-0.82s-0.367-0.82-0.82-0.82zM9.229 12.223h-3.103c-0.453 0-0.82 0.367-0.82 0.82s0.367 0.82 0.82 0.82h3.103c0.453 0 0.82-0.367 0.82-0.82s-0.367-0.82-0.82-0.82zM11.015 25.347h-4.594c-0.453 0-0.82 0.367-0.82 0.82s0.367 0.82 0.82 0.82h4.594c0.453 0 0.82-0.367 0.82-0.82s-0.367-0.82-0.82-0.82zM14.602 30.597h-11.566c-0.453 0-0.82 0.367-0.82 0.82s0.367 0.82 0.82 0.82h11.566c0.453 0 0.82-0.367 0.82-0.82s-0.367-0.82-0.82-0.82z"></path>
</svg>
