<!-- Generated by IcoMoon.io -->
<svg version="1.1" xmlns="http://www.w3.org/2000/svg" width="42" height="42" viewBox="0 0 42 42">
<title>-internet-of-things</title>
<path fill="#d90a2c" d="M27.855 18.59c0.119 0.119 0.192 0.283 0.192 0.464 0 0.362-0.294 0.656-0.656 0.656-0.181 0-0.345-0.073-0.464-0.192v0c-1.517-1.517-3.612-2.455-5.927-2.455s-4.41 0.938-5.927 2.455v0c-0.119 0.119-0.283 0.192-0.464 0.192-0.362 0-0.656-0.294-0.656-0.656 0-0.181 0.073-0.345 0.192-0.464v0c1.754-1.754 4.178-2.839 6.855-2.839s5.1 1.085 6.855 2.839v0zM21 18.376c-0.006 0-0.012-0-0.019-0-1.946 0-3.707 0.792-4.979 2.070l-0 0c-0.117 0.118-0.189 0.281-0.189 0.461 0 0.362 0.294 0.656 0.656 0.656 0.18 0 0.343-0.072 0.461-0.19l-0 0c1.042-1.042 2.481-1.686 4.070-1.686s3.029 0.644 4.070 1.686v0c0.118 0.117 0.281 0.189 0.461 0.189 0.362 0 0.656-0.294 0.656-0.656 0-0.18-0.072-0.343-0.189-0.461l0 0c-1.272-1.279-3.033-2.071-4.979-2.071-0.007 0-0.014 0-0.020 0h0.001zM21 21.001c-0.004 0-0.008 0-0.012 0-1.223 0-2.331 0.498-3.13 1.301l-0 0c-0.119 0.119-0.192 0.283-0.192 0.464 0 0.362 0.294 0.656 0.656 0.656 0.181 0 0.345-0.073 0.464-0.192v0c0.567-0.567 1.349-0.917 2.214-0.917s1.648 0.351 2.214 0.917v0c0.119 0.119 0.283 0.192 0.464 0.192 0.362 0 0.656-0.294 0.656-0.656 0-0.181-0.073-0.345-0.192-0.464v0c-0.8-0.804-1.907-1.302-3.13-1.302-0.004 0-0.008 0-0.013 0h0.001zM22.819 25.445c-0 1.005-0.814 1.819-1.819 1.819s-1.819-0.814-1.819-1.819c0-1.005 0.814-1.819 1.819-1.819v0c1.004 0.001 1.818 0.815 1.819 1.819v0zM21.506 25.445c0-0 0-0 0-0 0-0.28-0.227-0.506-0.506-0.506s-0.506 0.227-0.506 0.506c0 0.28 0.227 0.506 0.506 0.506v0c0.28-0 0.506-0.227 0.506-0.506v-0zM42 21c0 0 0 0 0 0 0 1.938-1.571 3.509-3.509 3.509-1.706 0-3.128-1.217-3.444-2.831l-0.004-0.022h-2.579c-0.157 2.701-1.229 5.125-2.907 6.993l0.009-0.011 1.827 1.827c0.551-0.379 1.233-0.605 1.968-0.605 1.935 0 3.504 1.569 3.504 3.504s-1.569 3.504-3.504 3.504c-1.935 0-3.504-1.569-3.504-3.504 0-0.736 0.227-1.42 0.615-1.984l-0.008 0.012-1.827-1.827c-1.858 1.669-4.282 2.74-6.952 2.896l-0.031 0.001v2.579c1.636 0.32 2.853 1.741 2.853 3.447 0 1.938-1.571 3.509-3.509 3.509s-3.509-1.571-3.509-3.509c0-1.706 1.217-3.128 2.831-3.444l0.022-0.004v-2.579c-2.701-0.157-5.125-1.229-6.993-2.907l0.011 0.009-1.827 1.827c0.379 0.552 0.606 1.235 0.606 1.972 0 1.938-1.571 3.51-3.51 3.51-0.968 0-1.845-0.392-2.48-1.026l0 0c-0.635-0.635-1.028-1.512-1.028-2.481 0-1.938 1.571-3.509 3.509-3.509 0.737 0 1.421 0.227 1.985 0.615l-0.012-0.008 1.827-1.827c-1.669-1.858-2.741-4.282-2.896-6.952l-0.001-0.031h-2.579c-0.32 1.636-1.741 2.853-3.447 2.853-1.938 0-3.509-1.571-3.509-3.509s1.571-3.509 3.509-3.509c1.706 0 3.128 1.217 3.444 2.831l0.004 0.022h2.579c0.157-2.701 1.229-5.125 2.907-6.993l-0.009 0.011-1.827-1.827c-0.553 0.38-1.237 0.608-1.974 0.608-1.938 0-3.509-1.571-3.509-3.509s1.571-3.509 3.509-3.509c1.938 0 3.509 1.571 3.509 3.509 0 0.737-0.227 1.421-0.615 1.986l0.008-0.012 1.827 1.827c1.858-1.669 4.282-2.741 6.952-2.897l0.031-0.001v-2.579c-1.636-0.32-2.853-1.741-2.853-3.447 0-1.938 1.571-3.509 3.509-3.509s3.509 1.571 3.509 3.509c0 1.706-1.217 3.128-2.831 3.444l-0.022 0.004v2.579c2.701 0.157 5.125 1.229 6.993 2.907l-0.011-0.009 1.827-1.827c-0.38-0.552-0.606-1.235-0.606-1.97 0-1.936 1.569-3.505 3.505-3.505s3.505 1.569 3.505 3.505c0 1.936-1.569 3.505-3.505 3.505-0.736 0-1.418-0.227-1.982-0.614l0.012 0.008-1.827 1.827c1.669 1.858 2.741 4.282 2.896 6.952l0.001 0.031h2.579c0.32-1.636 1.741-2.853 3.447-2.853 1.938 0 3.509 1.571 3.509 3.509 0 0 0 0 0 0v0zM31.814 10.186c0.397 0.397 0.946 0.643 1.552 0.643 1.213 0 2.196-0.983 2.196-2.196s-0.983-2.196-2.196-2.196c-0.606 0-1.155 0.246-1.552 0.643v0c-0.397 0.398-0.643 0.947-0.643 1.553s0.245 1.156 0.643 1.553l-0-0zM21 5.706c1.213 0 2.197-0.984 2.197-2.197s-0.984-2.197-2.197-2.197c-1.213 0-2.197 0.984-2.197 2.197v0c0.001 1.213 0.984 2.196 2.197 2.197h0zM10.186 10.186c0.398-0.398 0.643-0.947 0.643-1.553 0-1.213-0.984-2.197-2.197-2.197s-2.197 0.984-2.197 2.197c0 0.607 0.246 1.156 0.643 1.553v0c0.398 0.397 0.947 0.642 1.553 0.642s1.156-0.245 1.553-0.642l-0 0zM5.706 21c0-1.213-0.984-2.197-2.197-2.197s-2.197 0.984-2.197 2.197c0 1.213 0.984 2.197 2.197 2.197v0c1.213-0.001 2.196-0.984 2.197-2.197v-0zM10.829 33.368c0-0 0-0 0-0 0-1.213-0.984-2.197-2.197-2.197s-2.197 0.984-2.197 2.197c0 0.607 0.246 1.156 0.644 1.554v0c0.398 0.397 0.947 0.643 1.553 0.643 1.213 0 2.197-0.983 2.197-2.197v0zM21 36.294c-1.213 0-2.197 0.984-2.197 2.197s0.984 2.197 2.197 2.197c1.213 0 2.197-0.984 2.197-2.197v0c-0.001-1.213-0.984-2.196-2.197-2.197h-0zM33.368 31.172c-0 0-0 0-0.001 0-1.213 0-2.196 0.983-2.196 2.196s0.983 2.196 2.196 2.196c0.607 0 1.156-0.246 1.554-0.644v0c0.397-0.397 0.643-0.946 0.643-1.553 0-1.213-0.983-2.196-2.196-2.196-0 0-0.001 0-0.001 0h0zM31.172 21c0-5.618-4.554-10.172-10.172-10.172s-10.172 4.554-10.172 10.172c0 5.618 4.554 10.172 10.172 10.172v0c5.615-0.007 10.165-4.557 10.172-10.171v-0.001zM40.688 21c0-1.213-0.984-2.197-2.197-2.197s-2.197 0.984-2.197 2.197c0 1.213 0.984 2.197 2.197 2.197 0 0 0 0 0 0v0c1.213-0.001 2.195-0.984 2.197-2.197v-0z"></path>
</svg>
