<!-- Generated by IcoMoon.io -->
<svg version="1.1" xmlns="http://www.w3.org/2000/svg" width="42" height="42" viewBox="0 0 42 42">
<title>-tv</title>
<path fill="#d90a2c" d="M40.359 7.629h-17.379l6.229-6.229c0.32-0.32 0.32-0.84 0-1.16s-0.84-0.32-1.16 0l-7.049 7.049-7.049-7.049c-0.32-0.32-0.84-0.32-1.16 0s-0.32 0.84 0 1.16l6.229 6.229h-17.379c-0.905 0-1.641 0.736-1.641 1.641v27.681c0 0.905 0.736 1.641 1.641 1.641h1.63l1.532 2.966c0.141 0.273 0.422 0.444 0.729 0.444h3.741c0.307 0 0.588-0.171 0.729-0.444l1.532-2.966h18.934l1.532 2.966c0.141 0.273 0.422 0.444 0.729 0.444h3.741c0.307 0 0.588-0.171 0.729-0.444l1.532-2.966h1.63c0.905 0 1.641-0.736 1.641-1.641v-27.681c-0-0.905-0.736-1.641-1.641-1.641zM8.772 40.359h-2.742l-0.914-1.769h4.569l-0.914 1.769zM35.969 40.359h-2.742l-0.914-1.769h4.569l-0.914 1.769zM40.359 36.95h-38.719v-27.681h38.719l0.001 27.68c0 0-0 0-0.001 0zM29.317 11.067h-21.713c-2.354 0-4.269 1.915-4.269 4.269v15.24c0 2.354 1.915 4.269 4.269 4.269h21.713c2.354 0 4.269-1.915 4.269-4.269v-15.24c0-2.354-1.915-4.269-4.269-4.269zM31.946 30.576c0 1.449-1.179 2.628-2.628 2.628h-21.713c-1.449 0-2.628-1.179-2.628-2.628v-15.24c0-1.449 1.179-2.628 2.628-2.628h13.237l-12.434 12.434c-0.32 0.32-0.32 0.84 0 1.16 0.16 0.16 0.37 0.24 0.58 0.24s0.42-0.080 0.58-0.24l13.595-13.595h6.155c1.449 0 2.628 1.179 2.628 2.628v15.24zM37.031 22.54c-1.357 0-2.461 1.104-2.461 2.461s1.104 2.461 2.461 2.461 2.461-1.104 2.461-2.461-1.104-2.461-2.461-2.461zM37.031 25.822c-0.452 0-0.82-0.368-0.82-0.82s0.368-0.82 0.82-0.82c0.452 0 0.82 0.368 0.82 0.82s-0.368 0.82-0.82 0.82zM37.031 29.923c-1.357 0-2.461 1.104-2.461 2.461s1.104 2.461 2.461 2.461 2.461-1.104 2.461-2.461-1.104-2.461-2.461-2.461zM37.031 33.204c-0.452 0-0.82-0.368-0.82-0.82s0.368-0.82 0.82-0.82c0.452 0 0.82 0.368 0.82 0.82s-0.368 0.82-0.82 0.82zM38.472 15.36h-3.082c-0.453 0-0.82 0.367-0.82 0.82s0.367 0.82 0.82 0.82h3.082c0.453 0 0.82-0.367 0.82-0.82s-0.367-0.82-0.82-0.82zM38.472 12.024h-3.082c-0.453 0-0.82 0.367-0.82 0.82s0.367 0.82 0.82 0.82h3.082c0.453 0 0.82-0.367 0.82-0.82s-0.367-0.82-0.82-0.82zM38.472 18.696h-3.082c-0.453 0-0.82 0.367-0.82 0.82s0.367 0.82 0.82 0.82h3.082c0.453 0 0.82-0.367 0.82-0.82s-0.367-0.82-0.82-0.82zM22.933 19.026c-0.32-0.32-0.84-0.32-1.16 0l-7.502 7.502c-0.32 0.32-0.32 0.84 0 1.16 0.16 0.16 0.37 0.24 0.58 0.24s0.42-0.080 0.58-0.24l7.502-7.502c0.32-0.32 0.32-0.84 0-1.16zM12.597 29.361c-0.152-0.153-0.364-0.24-0.58-0.24s-0.427 0.088-0.58 0.24c-0.153 0.153-0.24 0.364-0.24 0.58s0.088 0.427 0.24 0.58c0.153 0.153 0.364 0.24 0.58 0.24s0.427-0.088 0.58-0.24c0.153-0.152 0.24-0.364 0.24-0.58s-0.088-0.427-0.24-0.58z"></path>
</svg>
