<!-- Generated by IcoMoon.io -->
<svg version="1.1" xmlns="http://www.w3.org/2000/svg" width="42" height="42" viewBox="0 0 42 42">
<title>-apple</title>
<path fill="#d90a2c" d="M29.596 0.848l-0.044-0.848-0.844 0.091c-0.083 0.009-8.245 0.992-8.804 10.118l-0.056 0.914 0.914-0.062c0.093-0.006 9.338-0.744 8.836-10.212zM28.003 1.867c-0.154 5.499-4.432 7.029-6.396 7.441 0.748-5.344 4.623-6.972 6.396-7.441zM37.463 30.171l-0.514-0.166c-3.11-1.005-5.198-3.854-5.198-7.088 0-2.877 1.627-5.451 4.247-6.717l0.782-0.377-0.436-0.75c-0.187-0.322-1.931-3.171-5.616-4.114-2.922-0.748-6.208-0.086-9.77 1.968-1.508-0.915-6.516-3.553-10.501-0.909-0.78 0.431-9.048 5.384-4.745 18.748 0.126 0.299 3.127 7.329 6.677 9.962 0.958 0.915 3.407 2.059 6.207 0.15 0.485-0.2 3.73-1.449 5.789 0.014 0.76 0.52 2.087 1.11 3.489 1.11 1.063 0 2.169-0.339 3.103-1.304 0.436-0.377 4.417-3.931 6.487-9.56l0.060-0.164-0.060-0.802zM29.902 39.498l-0.062 0.059c-1.764 1.852-4.438 0.080-4.536 0.014-1.052-0.748-2.27-0.992-3.413-0.992-2.074 0-3.898 0.803-4.015 0.856l-0.131 0.074c-2.428 1.694-4.090 0.203-4.266 0.034l-0.095-0.081c-3.211-2.342-6.163-9.254-6.167-9.256-4.027-12.52 3.688-16.615 4.016-16.781l0.088-0.052c3.737-2.509 9.109 1.123 9.162 1.159l0.429 0.294 0.444-0.268c3.345-2.023 6.364-2.71 8.972-2.042 2.125 0.544 3.479 1.871 4.142 2.688-2.692 1.649-4.327 4.528-4.327 7.713 0 3.664 2.199 6.919 5.551 8.336-2.063 5.035-5.752 8.213-5.792 8.246z"></path>
</svg>
