<!-- Generated by IcoMoon.io -->
<svg version="1.1" xmlns="http://www.w3.org/2000/svg" width="42" height="42" viewBox="0 0 42 42">
<title>-android</title>
<path fill="#d90a2c" d="M10.122 12.938h21.809v1.817h-21.809zM7.396 30.194c-2.007 0-3.635-1.626-3.635-3.633v-9.99c0-2.006 1.627-3.633 3.635-3.633s3.635 1.626 3.635 3.633v9.99c0 2.006-1.627 3.633-3.635 3.633zM7.396 14.755c-1.004 0-1.817 0.813-1.817 1.816v9.99c0 1.003 0.814 1.817 1.817 1.817s1.818-0.814 1.818-1.817v-9.99c0-1.003-0.814-1.816-1.818-1.816zM34.657 30.194c-2.007 0-3.635-1.626-3.635-3.633v-9.99c0-2.006 1.627-3.633 3.635-3.633s3.635 1.626 3.635 3.633v9.99c0 2.006-1.627 3.633-3.635 3.633zM34.657 14.755c-1.004 0-1.817 0.813-1.817 1.816v9.99c0 1.003 0.814 1.817 1.817 1.817s1.818-0.814 1.818-1.817v-9.99c0-1.003-0.814-1.816-1.818-1.816zM25.57 42c-2.008 0-3.635-1.627-3.635-3.633v-4.541h-1.817v4.541c0 2.006-1.627 3.633-3.635 3.633s-3.635-1.627-3.635-3.633v-4.541h-0.908c-1.506 0-2.726-1.22-2.726-2.725v-17.256c0-6.52 5.289-11.806 11.813-11.806s11.813 5.286 11.813 11.806v17.256c0 1.505-1.221 2.725-2.726 2.725h-0.909v4.541c0 2.006-1.627 3.633-3.635 3.633zM18.3 32.010h5.452v6.357c0 1.003 0.814 1.816 1.818 1.816s1.817-0.813 1.817-1.816v-6.357h2.726c0.502 0 0.909-0.406 0.909-0.908v-17.256c0-5.517-4.475-9.99-9.996-9.99s-9.996 4.473-9.996 9.99v17.256c0 0.502 0.407 0.908 0.909 0.908h2.726v6.357c0 1.003 0.814 1.816 1.817 1.816s1.817-0.813 1.817-1.816zM17.392 8.397h-1.818v1.816h1.818zM26.479 8.397h-1.817v1.816h1.817zM12.554 1.040l1.508-1.013 2.517 3.744-1.509 1.013zM25.454 3.741l2.515-3.741 1.509 1.014-2.515 3.741zM25.454 3.741"></path>
</svg>
