<!-- Generated by IcoMoon.io -->
<svg version="1.1" xmlns="http://www.w3.org/2000/svg" width="42" height="42" viewBox="0 0 42 42">
<title>-globe</title>
<path fill="#3c72fc" d="M21 0c-8.871 0-21 6.705-21 21 0 13.931 11.666 21 21 21 16.015 0 21-14.030 21-21 0-10.285-7.871-21-21-21zM16.13 1.976c-2.191 1.869-4.010 4.961-5.184 8.797-1.521-0.901-2.919-2.017-4.159-3.315 2.563-2.687 5.804-4.572 9.343-5.481zM5.887 8.466c1.389 1.447 2.968 2.679 4.688 3.654-0.645 2.505-1.025 5.283-1.075 8.202h-8.127c0.149-4.357 1.736-8.516 4.514-11.856zM5.887 33.534c-2.786-3.34-4.365-7.499-4.514-11.856h8.127c0.050 2.927 0.43 5.696 1.075 8.202-1.711 0.984-3.291 2.207-4.688 3.654zM6.788 34.551c1.24-1.298 2.637-2.414 4.159-3.315 1.174 3.828 2.993 6.928 5.184 8.797-3.539-0.918-6.78-2.803-9.343-5.481zM20.322 40.594c-3.522-0.446-6.556-4.382-8.193-10.020 2.53-1.281 5.324-2.001 8.193-2.108v12.129zM20.322 27.118c-2.993 0.099-5.903 0.835-8.541 2.125-0.554-2.315-0.885-4.87-0.934-7.565h9.475v5.44zM20.322 20.322h-9.475c0.050-2.695 0.38-5.25 0.934-7.565 2.646 1.29 5.556 2.026 8.541 2.125v5.44zM20.322 13.534c-2.877-0.099-5.663-0.827-8.193-2.108 1.637-5.647 4.671-9.574 8.193-10.020v12.129zM36.113 8.466c2.778 3.34 4.365 7.499 4.514 11.856h-8.119c-0.050-2.927-0.43-5.696-1.075-8.202 1.711-0.984 3.291-2.207 4.68-3.654zM35.212 7.449c-1.24 1.298-2.637 2.414-4.159 3.315-1.174-3.828-2.993-6.92-5.184-8.797 3.539 0.918 6.78 2.803 9.343 5.481zM21.678 1.406c3.522 0.446 6.556 4.382 8.193 10.020-2.53 1.281-5.316 2.001-8.193 2.108v-12.129zM21.678 14.882c2.993-0.099 5.903-0.835 8.541-2.125 0.554 2.315 0.885 4.87 0.934 7.565h-9.475v-5.44zM21.678 21.678h9.475c-0.050 2.695-0.38 5.25-0.934 7.565-2.637-1.298-5.548-2.034-8.541-2.125v-5.44zM21.678 40.594v-12.129c2.877 0.099 5.663 0.827 8.193 2.108-1.637 5.647-4.671 9.574-8.193 10.020zM25.87 40.024c2.191-1.869 4.010-4.961 5.184-8.797 1.521 0.901 2.919 2.017 4.159 3.315-2.563 2.687-5.804 4.572-9.343 5.481zM36.113 33.534c-1.389-1.447-2.968-2.67-4.68-3.654 0.645-2.505 1.025-5.283 1.075-8.202h8.119c-0.149 4.357-1.736 8.516-4.514 11.856z"></path>
</svg>
