<!-- Generated by IcoMoon.io -->
<svg version="1.1" xmlns="http://www.w3.org/2000/svg" width="42" height="42" viewBox="0 0 42 42">
<title>-smartwatch</title>
<path fill="#3c72fc" d="M28.875 9.188h-15.75c-1.087 0-1.969 0.881-1.969 1.969v0 19.688c0 1.087 0.881 1.969 1.969 1.969v0h15.75c1.087 0 1.969-0.881 1.969-1.969v0-19.688c0-1.087-0.881-1.969-1.969-1.969v0zM29.531 30.844c0 0.362-0.294 0.656-0.656 0.656v0h-15.75c-0.362 0-0.656-0.294-0.656-0.656v0-7.875h2.93l1.116 1.677c0.108 0.159 0.28 0.268 0.478 0.289l0.003 0c0.018 0.002 0.039 0.003 0.060 0.003 0.002 0 0.005 0 0.007-0h-0c0.181-0 0.345-0.074 0.464-0.192l2.161-2.161 1.505 1.505c0.119 0.119 0.283 0.192 0.464 0.192 0.238 0 0.446-0.126 0.561-0.315l0.002-0.003 1.435-2.392 0.738 1.106c0.119 0.177 0.319 0.292 0.546 0.292 0 0 0 0 0 0h4.594zM29.531 21.656h-4.243l-1.116-1.677c-0.112-0.177-0.307-0.293-0.529-0.293-0.012 0-0.025 0-0.037 0.001l0.002-0c-0.231 0.006-0.433 0.131-0.545 0.315l-0.002 0.003-1.537 2.559-1.374-1.374c-0.119-0.119-0.283-0.192-0.464-0.192s-0.345 0.073-0.464 0.192l-2.059 2.060-0.868-1.303c-0.119-0.177-0.319-0.292-0.546-0.292-0 0-0 0-0 0h-3.281v-10.5c0-0.362 0.294-0.656 0.656-0.656v0h15.75c0.362 0 0.656 0.294 0.656 0.656v0zM30.615 6.606l-2.462-4.93c-0.11-0.217-0.332-0.363-0.587-0.363-0.001 0-0.003 0-0.004 0h-13.125c-0 0-0 0-0 0-0.256 0-0.477 0.146-0.585 0.359l-0.002 0.004-2.465 4.93c-1.615 0.215-2.849 1.582-2.854 3.237v22.313c0.005 1.656 1.239 3.022 2.837 3.236l0.017 0.002 2.465 4.93c0.11 0.217 0.332 0.363 0.587 0.363 0 0 0 0 0 0h13.125c0.001 0 0.002 0 0.004 0 0.256 0 0.477-0.146 0.585-0.359l0.002-0.004 2.465-4.93c1.614-0.217 2.846-1.583 2.851-3.237v-22.313c-0.005-1.656-1.239-3.022-2.837-3.236l-0.017-0.002zM13.531 5.25h2.876v-1.313h-2.219l0.656-1.313h12.314l1.969 3.938h-16.251zM27.157 39.375h-12.314l-1.969-3.938h16.251zM32.156 32.156c0 1.087-0.881 1.969-1.969 1.969v0h-18.375c-1.087 0-1.969-0.881-1.969-1.969v0-22.313c0-1.087 0.881-1.969 1.969-1.969v0h18.375c1.087 0 1.969 0.881 1.969 1.969v0zM17.719 3.938h1.313v1.313h-1.313v-1.313zM24.938 36.75h1.313v1.313h-1.313v-1.313zM6.563 17.719l-0.513-0.41c-0.804 1.003-1.291 2.29-1.291 3.691s0.487 2.689 1.3 3.703l-0.009-0.012 1.025-0.82c-2.256-2.822-0.092-5.626 0-5.744zM3.938 16.406l-0.534-0.381c-0.035 0.050-3.513 5.032 0 9.95l1.068-0.763c-2.962-4.147-0.122-8.253 0.001-8.426zM35.804 24.691c0.804-1.003 1.291-2.29 1.291-3.691s-0.487-2.689-1.3-3.703l0.009 0.012-1.023 0.82c0.094 0.117 2.271 2.904 0 5.742zM38.451 25.975c3.513-4.918 0.035-9.9 0-9.95l-1.069 0.762c0.122 0.173 2.962 4.281 0 8.426zM18.375 12.309c-0.467-0.286-1.032-0.456-1.637-0.456-0.801 0-1.532 0.297-2.090 0.787l0.004-0.003c-0.549 0.541-0.889 1.293-0.889 2.124 0 0.847 0.353 1.611 0.92 2.154l0.001 0.001 3.691 2.956 3.724-2.981c0.549-0.542 0.889-1.294 0.889-2.126s-0.34-1.584-0.889-2.125l-0-0c-0.554-0.488-1.287-0.786-2.089-0.786-0.604 0-1.169 0.169-1.649 0.462l0.014-0.008zM21.246 15.894l-2.871 2.298-2.839-2.27c-0.286-0.3-0.461-0.707-0.461-1.156s0.176-0.855 0.462-1.156l-0.001 0.001c0.32-0.276 0.739-0.444 1.198-0.444s0.879 0.168 1.201 0.446l-0.002-0.002 0.442 0.403 0.442-0.403c0.32-0.276 0.739-0.444 1.198-0.444s0.879 0.168 1.201 0.446l-0.002-0.002c0.286 0.302 0.461 0.71 0.461 1.159 0 0.433-0.163 0.827-0.431 1.126l0.001-0.002zM17.063 26.25h-2.625c-0.362 0-0.656 0.294-0.656 0.656v0 2.625c0 0.362 0.294 0.656 0.656 0.656v0h2.625c0.362 0 0.656-0.294 0.656-0.656v0-2.625c0-0.362-0.294-0.656-0.656-0.656v0zM16.406 28.875h-1.313v-1.313h1.313zM19.031 28.875h6.563v1.313h-6.563v-1.313zM19.031 26.25h5.25v1.313h-5.25v-1.313zM26.906 28.875h1.313v1.313h-1.313v-1.313zM24.938 12.469h2.625v1.313h-2.625v-1.313zM24.938 15.094h2.625v1.313h-2.625v-1.313z"></path>
</svg>
