<!-- Generated by IcoMoon.io -->
<svg version="1.1" xmlns="http://www.w3.org/2000/svg" width="44" height="44" viewBox="0 0 44 44">
<title>-manufacturing</title>
<path fill="#d90a2c" d="M16.873 14.038c-2.46 1.59-3.968 4.3-4.023 7.229 0 0.405 0.328 0.733 0.733 0.733s0.733-0.328 0.733-0.733c0.050-2.415 1.29-4.65 3.312-5.972 0.34-0.212 0.447-0.658 0.241-1.001s-0.651-0.457-0.997-0.255zM39.251 18.333c-1.742 0.002-3.242 1.228-3.593 2.933h-8.948c-0.17-0.803-0.605-1.525-1.235-2.051l2.478-4.549h2.572c0.377 1.844 2.088 3.104 3.961 2.914s3.298-1.766 3.298-3.648-1.425-3.459-3.298-3.648c-1.873-0.189-3.585 1.071-3.961 2.915h-2.274v-4.83l2.504-2.504h3.437c0.376 1.844 2.088 3.104 3.961 2.915s3.298-1.766 3.298-3.648c0-1.883-1.425-3.459-3.298-3.648s-3.585 1.071-3.961 2.915h-3.437c-0.389 0.001-0.761 0.155-1.037 0.43l-0.629 0.629c-0.515-0.191-1.040-0.355-1.571-0.493v-3.499c-0.001-0.81-0.657-1.466-1.467-1.467h-5.867c-0.81 0.001-1.466 0.657-1.467 1.467v3.498c-1.594 0.407-3.123 1.038-4.539 1.875l-2.46-2.46c-0.274-0.283-0.652-0.442-1.046-0.441h-0.001c-0.39-0.002-0.765 0.155-1.038 0.435l-4.137 4.136c-0.281 0.274-0.44 0.649-0.441 1.041s0.155 0.769 0.435 1.044l2.466 2.466c-0.837 1.417-1.468 2.945-1.875 4.539h-3.497c-0.81 0.001-1.466 0.657-1.467 1.467v5.867c0.001 0.81 0.657 1.466 1.467 1.467h3.497c0.407 1.594 1.038 3.123 1.875 4.539l-2.459 2.459c-0.281 0.274-0.44 0.649-0.441 1.041s0.155 0.769 0.435 1.044l4.137 4.137c0.274 0.283 0.651 0.442 1.044 0.441h0.001c0.391 0.002 0.766-0.155 1.039-0.435l2.466-2.466c1.416 0.837 2.945 1.468 4.539 1.875v3.498c0.001 0.81 0.657 1.466 1.467 1.467h5.867c0.81-0.001 1.466-0.657 1.467-1.467v-3.499c0.532-0.138 1.056-0.303 1.571-0.493l0.629 0.629c0.276 0.274 0.648 0.429 1.037 0.43h3.437c0.376 1.844 2.088 3.104 3.961 2.915s3.298-1.766 3.298-3.648c0-1.882-1.425-3.459-3.298-3.648s-3.585 1.071-3.961 2.915h-3.437l-2.504-2.504v-4.83h2.274c0.377 1.844 2.088 3.104 3.961 2.915s3.298-1.766 3.298-3.648-1.425-3.459-3.298-3.648c-1.873-0.189-3.585 1.070-3.961 2.914h-2.572l-2.478-4.549c0.63-0.526 1.065-1.248 1.235-2.051h8.948c0.386 1.89 2.171 3.159 4.083 2.9s3.297-1.954 3.168-3.88-1.729-3.421-3.658-3.421zM37.784 2.933c1.215 0 2.2 0.985 2.2 2.2s-0.985 2.2-2.2 2.2c-1.215 0-2.2-0.985-2.2-2.2 0.001-1.215 0.986-2.199 2.2-2.2zM37.784 36.667c1.215 0 2.2 0.985 2.2 2.2s-0.985 2.2-2.2 2.2c-1.215 0-2.2-0.985-2.2-2.2 0.001-1.215 0.986-2.198 2.2-2.2zM23.117 24.2c-1.215 0-2.2-0.985-2.2-2.2s0.985-2.2 2.2-2.2 2.2 0.985 2.2 2.2c-0.001 1.215-0.986 2.199-2.2 2.2zM34.117 11.733c1.215 0 2.2 0.985 2.2 2.2s-0.985 2.2-2.2 2.2-2.2-0.985-2.2-2.2c0.001-1.215 0.986-2.198 2.2-2.2zM26.625 37.74c-0.336 0.074-0.574 0.372-0.574 0.716v4.077h-5.867v-4.077c0-0.345-0.24-0.643-0.576-0.716-1.827-0.4-3.569-1.12-5.146-2.125-0.29-0.183-0.668-0.142-0.911 0.101l-2.879 2.875-4.143-4.148 2.875-2.875c0.243-0.243 0.285-0.622 0.1-0.912-1.005-1.577-1.724-3.32-2.125-5.146-0.074-0.337-0.372-0.576-0.716-0.577h-4.077v-5.867h4.077c0.344 0 0.643-0.24 0.716-0.576 0.401-1.827 1.12-3.569 2.125-5.146 0.184-0.29 0.143-0.669-0.1-0.911l-2.875-2.879 4.148-4.143 2.875 2.875c0.243 0.243 0.622 0.285 0.912 0.101 1.577-1.005 3.319-1.724 5.146-2.124 0.337-0.074 0.576-0.372 0.576-0.717v-4.077h5.867v4.077c0 0.344 0.239 0.642 0.574 0.716 0.454 0.101 0.89 0.22 1.311 0.351l-0.722 0.722c-0.276 0.275-0.431 0.648-0.43 1.037v0.95c-5.393-1.561-11.182 0.459-14.433 5.036s-3.251 10.709 0 15.286c3.25 4.577 9.040 6.597 14.433 5.036v0.95c-0.001 0.389 0.154 0.762 0.43 1.037l0.722 0.722c-0.422 0.132-0.858 0.25-1.311 0.351zM34.117 27.867c1.215 0 2.2 0.985 2.2 2.2s-0.985 2.2-2.2 2.2-2.2-0.985-2.2-2.2c0.001-1.215 0.986-2.199 2.2-2.2zM26.784 30.253v2.884c-4.841 1.605-10.165-0.101-13.172-4.221s-3.006-9.711 0-13.831c3.006-4.121 8.33-5.827 13.172-4.221v2.884l-2.596 4.765c-0.346-0.113-0.707-0.173-1.071-0.178-2.025 0-3.667 1.642-3.667 3.667s1.642 3.667 3.667 3.667c0.364-0.005 0.725-0.065 1.071-0.178zM39.251 24.2c-1.215 0-2.2-0.985-2.2-2.2s0.985-2.2 2.2-2.2c1.215 0 2.2 0.985 2.2 2.2-0.001 1.215-0.985 2.199-2.2 2.2zM39.251 24.2"></path>
</svg>
