<!-- Generated by IcoMoon.io -->
<svg version="1.1" xmlns="http://www.w3.org/2000/svg" width="45" height="45" viewBox="0 0 45 45">
<title>-coding</title>
<path fill="#55585b" d="M9.139 1.405c-1.156 0-2.108 0.952-2.108 2.108v22.5c0 0.938 1.408 0.938 1.408 0v-17.574h28.121v17.574c-0.021 0.959 1.428 0.959 1.406 0v-22.5c0-1.156-0.95-2.108-2.107-2.108zM9.139 2.813h26.72c0.402 0 0.7 0.299 0.7 0.7v3.518h-28.121v-3.518c0-0.402 0.299-0.7 0.7-0.7zM10.547 4.218c-0.388 0-0.703 0.315-0.703 0.703s0.315 0.703 0.703 0.703c0.388 0 0.703-0.315 0.703-0.703s-0.315-0.703-0.703-0.703zM13.359 4.218c-0.388 0-0.703 0.315-0.703 0.703s0.315 0.703 0.703 0.703c0.388 0 0.703-0.315 0.703-0.703s-0.315-0.703-0.703-0.703zM16.172 4.218c-0.388 0-0.703 0.315-0.703 0.703s0.315 0.703 0.703 0.703c0.388 0 0.703-0.315 0.703-0.703s-0.315-0.703-0.703-0.703zM25.98 4.219c-0.949 0.065-0.885 1.429 0.033 1.406h8.44c0.917-0.021 0.917-1.386 0-1.406zM3.518 5.625c-1.156 0-2.112 0.95-2.112 2.107v25.314c0 1.156 0.956 2.108 2.112 2.108h37.967c1.156 0 2.108-0.952 2.108-2.108v-25.314c0-1.156-0.952-2.107-2.108-2.107h-1.406c-0.959-0.021-0.959 1.428 0 1.406h1.406c0.402 0 0.7 0.299 0.7 0.7v20.393h-39.374v-20.393c0-0.402 0.304-0.7 0.706-0.7h1.401c0.959 0.021 0.959-1.428 0-1.406zM24.618 11.238c-0.309-0.002-0.583 0.198-0.676 0.493l-4.22 12.655c-0.298 0.89 1.037 1.336 1.335 0.446l4.22-12.659c0.159-0.455-0.177-0.932-0.659-0.935zM27.675 15.303l3.571 2.979-3.571 2.975c-0.763 0.597 0.179 1.724 0.902 1.079l4.215-3.514c0.337-0.281 0.337-0.798 0-1.079l-4.215-3.52c-0.126-0.108-0.286-0.168-0.488-0.167-0.665 0.058-0.906 0.851-0.415 1.248zM16.857 14.056c-0.158 0.005-0.31 0.064-0.431 0.166l-4.219 3.52c-0.337 0.281-0.337 0.798 0 1.079l4.219 3.514c0.726 0.676 1.695-0.489 0.898-1.079l-3.571-2.975 3.571-2.979c0.52-0.425 0.204-1.267-0.467-1.247zM2.813 29.533h39.374v3.513c0 0.402-0.299 0.7-0.7 0.7h-37.967c-0.402 0-0.706-0.299-0.706-0.7zM23.945 30.938l-2.885 0.001c-0.896 0.107-0.836 1.377 0.033 1.401h2.814c0.966 0.085 1.046-1.383 0.038-1.402zM18.556 36.505c-0.282-0.005-0.541 0.157-0.656 0.415-0.339 0.726-0.945 1.574-1.993 2.453h-1.141c-1.156 0-2.107 0.957-2.107 2.114v1.401c-0.001 0.388 0.312 0.704 0.7 0.706h18.28c0.39 0.001 0.707-0.315 0.706-0.706v-1.401c0-1.156-0.956-2.114-2.112-2.114h-1.14c-1.047-0.878-1.654-1.727-1.993-2.453-0.119-0.264-0.388-0.428-0.677-0.413-0.502 0.027-0.816 0.555-0.597 1.008 0.274 0.588 0.693 1.219 1.257 1.858h-9.165c0.564-0.64 0.982-1.27 1.257-1.858 0.223-0.461-0.106-0.998-0.618-1.009zM14.766 40.78h15.467c0.402 0 0.706 0.304 0.706 0.706v0.7h-16.874v-0.7c0-0.402 0.299-0.706 0.7-0.706z"></path>
</svg>
