<!-- Generated by IcoMoon.io -->
<svg version="1.1" xmlns="http://www.w3.org/2000/svg" width="45" height="45" viewBox="0 0 45 45">
<title>-rocket</title>
<path fill="#3c72fc" d="M14.384 21.916c-0.344 0.343-0.344 0.899 0 1.243 0.344 0.343 0.9 0.343 1.243 0 0.344-0.344 0.344-0.9 0-1.243-0.343-0.344-0.899-0.344-1.243 0zM18.246 37.904l2.217-3.696 1.379 1.379c0.061 0.061 0.128 0.11 0.199 0.149l0.796 5.569c0.103 0.72 0.983 1.006 1.491 0.497l7.458-7.458c0.141-0.141 0.23-0.326 0.252-0.524l0.898-8.084 4.97-4.971c2.182-2.182 3.92-5.234 5.166-9.071 1.777-5.474 1.922-10.58 1.927-10.795 0.006-0.24-0.087-0.473-0.257-0.643s-0.401-0.264-0.643-0.257c-0.215 0.005-5.32 0.15-10.795 1.927-3.836 1.246-6.888 2.984-9.071 5.166l-4.97 4.97-8.085 0.898c-0.198 0.022-0.383 0.111-0.524 0.252l-7.458 7.458c-0.236 0.236-0.318 0.584-0.212 0.899s0.38 0.545 0.709 0.592l5.569 0.796c0.108 0.197 0.117 0.15 1.528 1.579l-3.696 2.216c-0.232 0.139-0.387 0.378-0.42 0.646s0.059 0.538 0.251 0.729l9.944 9.944c0.402 0.402 1.079 0.323 1.375-0.169zM24.328 39.317l-0.622-4.351 7.24-7.239-0.622 5.593zM41.818 9.763l-6.581-6.581c3.357-0.932 6.449-1.259 7.951-1.37-0.111 1.502-0.438 4.594-1.37 7.951zM25.477 8.337c1.889-1.889 4.534-3.423 7.863-4.566l7.89 7.89c-1.143 3.329-2.678 5.974-4.567 7.863l-11.714 11.714-6.836-6.836c-0.343-0.343-0.9-0.343-1.243 0s-0.343 0.9 0 1.243l6.836 6.836-1.243 1.244-11.186-11.186 9.012-9.012zM11.68 14.675l5.594-0.622-7.24 7.24-4.351-0.622zM12.073 25.819l7.109 7.109-1.864 3.107-8.352-8.352zM1.5 44.742l9.155-9.155c0.343-0.343 0.343-0.9 0-1.243s-0.9-0.343-1.243 0l-9.155 9.155c-0.343 0.343-0.343 0.9 0 1.243s0.9 0.343 1.243-0zM13.142 36.831c-0.343-0.343-0.9-0.343-1.243 0l-5.426 5.426c-0.343 0.343-0.343 0.9 0 1.243s0.9 0.343 1.243 0l5.427-5.427c0.343-0.343 0.343-0.9 0-1.243zM6.927 31.859l-5.426 5.426c-0.343 0.343-0.343 0.9 0 1.243s0.9 0.343 1.243 0l5.427-5.427c0.343-0.343 0.343-0.9 0-1.243s-0.9-0.343-1.243 0zM32.313 20.145c2.055-2.056 2.055-5.401-0-7.458-2.057-2.055-5.402-2.055-7.458 0-2.060 2.060-2.062 5.397 0 7.458 2.060 2.061 5.396 2.061 7.458 0zM26.098 13.93c1.37-1.37 3.601-1.37 4.972 0s1.371 3.601 0 4.972c-1.374 1.374-3.598 1.375-4.972 0-1.374-1.373-1.375-3.597 0-4.972zM26.098 13.93"></path>
</svg>
