<!-- Generated by IcoMoon.io -->
<svg version="1.1" xmlns="http://www.w3.org/2000/svg" width="45" height="45" viewBox="0 0 45 45">
<title>-search-engine</title>
<path fill="#3c72fc" d="M36.593 9.811l-2.14-2.14-2.14 2.14-0.994-0.994 3.134-3.134 3.134 3.134zM33.75 7.029h1.406v7.734h-1.406zM37.969 23.904h-1.406v-3.024c5.305-1.083 8.928-6.007 8.384-11.394s-5.079-9.487-10.493-9.487-9.949 4.1-10.493 9.487c-0.545 5.387 3.079 10.311 8.384 11.394v3.024h-1.406v19.688h-2.813v-22.5h-7.031v22.5h-2.813v-16.875h-7.031v16.875h-2.813v-9.844h-7.031v9.844h-1.406v1.406h45v-1.406h-7.031zM7.031 43.592h-4.219v-8.438h4.219zM16.875 43.592h-4.219v-15.469h4.219zM26.719 43.592h-4.219v-21.094h4.219zM25.313 10.545c0-4.879 3.831-8.897 8.704-9.13s9.070 3.402 9.535 8.258c0.465 4.856-2.965 9.222-7.793 9.919l-0.603 0.087v4.226h-1.406v-4.226l-0.603-0.087c-4.488-0.666-7.816-4.51-7.835-9.047zM36.563 43.592h-4.219v-18.281h4.219zM42.188 10.545c0-4.272-3.463-7.734-7.734-7.734s-7.734 3.463-7.734 7.734c0 4.272 3.463 7.734 7.734 7.734 4.27-0.005 7.729-3.465 7.734-7.734zM28.125 10.545c0-3.495 2.833-6.328 6.328-6.328s6.328 2.833 6.328 6.328c0 3.495-2.833 6.328-6.328 6.328-3.493-0.004-6.324-2.835-6.328-6.328zM10.119 23.904h4.938l6.037-6.037v1.818h1.406v-4.219h-4.219v1.406h1.818l-5.625 5.625h-4.906l-9.343 8.624 0.955 1.032zM40.781 23.904h4.219v1.406h-4.219zM40.781 26.717h4.219v1.406h-4.219zM40.781 29.529h4.219v1.406h-4.219zM40.781 32.342h4.219v1.406h-4.219zM40.781 35.154h4.219v1.406h-4.219zM40.781 37.967h4.219v1.406h-4.219zM40.781 40.779h4.219v1.406h-4.219zM40.781 40.779"></path>
</svg>
