<!-- Generated by IcoMoon.io -->
<svg version="1.1" xmlns="http://www.w3.org/2000/svg" width="45" height="45" viewBox="0 0 45 45">
<title>-solution-1</title>
<path fill="#3c72fc" d="M37.969 0.703h-9.844c-1.163 0-2.109 0.946-2.109 2.109v1.406c-1.551 0-2.813 1.261-2.813 2.813s1.261 2.813 2.813 2.813v3.516h5.625v-1.406c0-0.776 0.631-1.406 1.406-1.406s1.406 0.631 1.406 1.406v1.406h3.516c1.163 0 2.109-0.946 2.109-2.109v-8.438c0-1.163-0.946-2.109-2.109-2.109zM38.672 11.25c0 0.387-0.315 0.703-0.703 0.703h-2.109c0-1.551-1.261-2.813-2.813-2.813s-2.813 1.261-2.813 2.813h-2.813v-3.516h-1.406c-0.776 0-1.406-0.631-1.406-1.406s0.631-1.406 1.406-1.406h1.406v-2.813c0-0.387 0.315-0.703 0.703-0.703h9.844c0.388 0 0.703 0.316 0.703 0.703zM26.016 14.766c-1.551 0-2.813 1.261-2.813 2.813h-2.813v-3.516h-1.406c-0.776 0-1.406-0.631-1.406-1.406s0.631-1.406 1.406-1.406h1.406v-6.328h-1.885c-7.49 0-13.584 6.094-13.584 13.584 0 4.091 1.816 7.923 4.982 10.513l2.752 2.252v1.906c-0.816 0.291-1.406 1.065-1.406 1.98 0 0.972 0.664 1.785 1.561 2.028-0.098 0.243-0.155 0.506-0.155 0.784 0 0.93 0.608 1.711 1.444 1.992 0.291 2.438 2.369 4.336 4.884 4.336s4.593-1.898 4.884-4.336c0.836-0.281 1.444-1.062 1.444-1.992 0-0.278-0.057-0.541-0.155-0.785 0.896-0.243 1.561-1.055 1.561-2.028 0-0.915-0.59-1.689-1.406-1.98v-1.906l2.752-2.252c3.166-2.59 4.982-6.422 4.982-10.512v-0.927h-4.219c0-1.551-1.261-2.813-2.813-2.813zM18.506 6.328h0.479v3.516c-1.551 0-2.813 1.261-2.813 2.813s1.261 2.813 2.813 2.813v2.109h-2.813c0-1.551-1.261-2.813-2.813-2.813s-2.813 1.261-2.813 2.813h-4.184c0.475-6.283 5.74-11.25 12.142-11.25zM10.794 27.93c-2.715-2.221-4.322-5.46-4.456-8.946h5.615v-1.406c0-0.776 0.631-1.406 1.406-1.406s1.406 0.631 1.406 1.406v1.406h4.219v2.813c-1.551 0-2.813 1.261-2.813 2.813s1.261 2.813 2.813 2.813v5.625h-4.922v-2.443zM18.984 42.891c-1.697 0-3.118-1.21-3.445-2.813h6.889c-0.327 1.602-1.747 2.813-3.445 2.813zM23.203 38.672h-8.438c-0.388 0-0.703-0.316-0.703-0.703s0.315-0.703 0.703-0.703h8.438c0.388 0 0.703 0.316 0.703 0.703s-0.315 0.703-0.703 0.703zM24.609 35.859h-11.25c-0.388 0-0.703-0.316-0.703-0.703s0.315-0.703 0.703-0.703h11.25c0.388 0 0.703 0.316 0.703 0.703s-0.315 0.703-0.703 0.703zM27.174 27.93l-3.268 2.674v2.443h-3.516v-7.031h-1.406c-0.776 0-1.406-0.631-1.406-1.406s0.631-1.406 1.406-1.406h1.406v-4.219h4.219v-1.406c0-0.776 0.631-1.406 1.406-1.406s1.406 0.631 1.406 1.406v1.406h4.209c-0.134 3.486-1.742 6.725-4.456 8.946z"></path>
</svg>
