<!-- Generated by IcoMoon.io -->
<svg version="1.1" xmlns="http://www.w3.org/2000/svg" width="48" height="48" viewBox="0 0 48 48">
<title>-project</title>
<path fill="#fff" d="M12.2 28.983l2.737 2.098c0.388 0.297 0.849 0.449 1.315 0.449 0.326 0 0.655-0.075 0.961-0.226 0.745-0.368 1.207-1.112 1.207-1.942v-4.927h11.178v4.927c0 0.831 0.463 1.575 1.207 1.942 0.307 0.151 0.635 0.226 0.961 0.226 0.466 0 0.927-0.152 1.315-0.449l2.737-2.098c0.953-0.73 1.571-1.787 1.742-2.975s-0.127-2.376-0.837-3.344l-3.028-4.13c0.726-1.739 0.603-3.711-0.354-5.357l-3.086-5.303c-0.195-0.336-0.626-0.449-0.961-0.254s-0.449 0.626-0.254 0.961l3.086 5.303c0.791 1.361 0.84 3.012 0.131 4.416l-2.389 4.729h-11.719l-2.389-4.729c-0.709-1.404-0.66-3.055 0.131-4.415l6.782-11.653c0.28-0.481 0.779-0.768 1.335-0.768s1.055 0.287 1.335 0.768l2.294 3.942c0.195 0.336 0.626 0.449 0.961 0.254s0.449-0.626 0.254-0.961l-2.294-3.942c-0.535-0.919-1.488-1.467-2.551-1.467s-2.016 0.549-2.551 1.467l-6.782 11.653c-0.957 1.646-1.080 3.618-0.354 5.357l-3.028 4.13c-0.71 0.968-1.007 2.156-0.837 3.344s0.789 2.245 1.742 2.975zM32.996 19.957l2.594 3.538c1.008 1.374 0.727 3.336-0.626 4.372l-2.737 2.098c-0.235 0.18-0.533 0.209-0.798 0.078s-0.424-0.386-0.424-0.681v-5.463zM12.43 23.495l2.594-3.538 1.991 3.942v5.463c0 0.296-0.158 0.55-0.424 0.681s-0.564 0.102-0.798-0.078l-2.737-2.098c-1.353-1.037-1.633-2.998-0.626-4.372zM24.010 8.526c-2.979 0-5.403 2.424-5.403 5.403s2.424 5.403 5.403 5.403 5.403-2.424 5.403-5.403-2.424-5.403-5.403-5.403zM24.010 17.926c-2.204 0-3.997-1.793-3.997-3.997s1.793-3.997 3.997-3.997 3.997 1.793 3.997 3.997-1.793 3.997-3.997 3.997zM39.678 31.301c-2.696 0-5.206 1.308-6.759 3.469-0.624-0.531-1.42-0.831-2.265-0.831-0.403 0-0.797 0.068-1.172 0.202v-1.377c0-1.588-1.046-2.937-2.518-3.362v-2.967c0-0.388-0.315-0.703-0.703-0.703s-0.703 0.315-0.703 0.703v3.546c0 0.361 0.274 0.664 0.634 0.7 1.074 0.106 1.884 1.002 1.884 2.084l-0 5.709c0 0.388 0.315 0.703 0.703 0.703s0.703-0.315 0.703-0.703v-2.766c0.128-0.087 0.264-0.161 0.408-0.218 0.242-0.096 0.499-0.144 0.764-0.144 0.587 0 1.135 0.243 1.528 0.663-0.54 1.121-0.825 2.361-0.825 3.615 0 0.388 0.315 0.703 0.703 0.703s0.703-0.315 0.703-0.703c0-1.166 0.296-2.318 0.854-3.332 0.003-0.005 0.006-0.009 0.009-0.014 1.22-2.201 3.539-3.569 6.052-3.569 3.813 0 6.916 3.102 6.916 6.915s-3.102 6.916-6.916 6.916h-31.356c-3.813 0-6.916-3.102-6.916-6.916 0-1.305 0.365-2.575 1.056-3.674 0.207-0.329 0.108-0.763-0.221-0.97s-0.763-0.108-0.97 0.221c-0.832 1.323-1.272 2.852-1.272 4.422 0 4.589 3.733 8.322 8.322 8.322h31.356c4.589 0 8.322-3.733 8.322-8.322s-3.733-8.321-8.322-8.321zM4.178 34.084c1.202-0.901 2.635-1.377 4.144-1.377 2.512 0 4.831 1.367 6.052 3.569 0.001 0.002 0.002 0.003 0.003 0.005 0.562 1.017 0.86 2.172 0.86 3.342 0 0.388 0.315 0.703 0.703 0.703s0.703-0.315 0.703-0.703c0-1.253-0.284-2.492-0.824-3.613 0.148-0.158 0.32-0.293 0.509-0.399 0.308-0.173 0.66-0.265 1.019-0.265 0.421 0 0.827 0.128 1.172 0.362v2.766c0 0.388 0.315 0.703 0.703 0.703s0.703-0.315 0.703-0.703l-0-5.709c0-1.082 0.81-1.978 1.884-2.084 0.36-0.036 0.634-0.338 0.634-0.7v-3.546c0-0.388-0.315-0.703-0.703-0.703s-0.703 0.315-0.703 0.703v2.967c-1.472 0.425-2.518 1.773-2.518 3.362v1.377c-0.373-0.132-0.769-0.202-1.172-0.202-0.6 0-1.191 0.154-1.708 0.445-0.198 0.111-0.384 0.241-0.556 0.387-1.553-2.162-4.064-3.47-6.76-3.47-1.815 0-3.54 0.573-4.987 1.658-0.311 0.233-0.374 0.674-0.141 0.984s0.674 0.374 0.984 0.141zM23.307 32.406v8.921c0 0.388 0.315 0.703 0.703 0.703s0.703-0.315 0.703-0.703v-8.921c0-0.388-0.315-0.703-0.703-0.703s-0.703 0.315-0.703 0.703z"></path>
</svg>
