<!-- Generated by IcoMoon.io -->
<svg version="1.1" xmlns="http://www.w3.org/2000/svg" width="50" height="50" viewBox="0 0 50 50">
<title>-product-design</title>
<path fill="#fff" d="M21.094 40.625c0 0.431 0.35 0.781 0.781 0.781s0.781-0.35 0.781-0.781v0c0-0.431-0.35-0.781-0.781-0.781s-0.781 0.35-0.781 0.781v0M24.219 40.625c0 0.431 0.35 0.781 0.781 0.781s0.781-0.35 0.781-0.781v0c0-0.431-0.35-0.781-0.781-0.781s-0.781 0.35-0.781 0.781v0M27.344 40.625c0 0.431 0.35 0.781 0.781 0.781s0.781-0.35 0.781-0.781v0c0-0.431-0.35-0.781-0.781-0.781s-0.781 0.35-0.781 0.781v0M46.094 11.719h-11.863c0.087-0.513 0.145-1.034 0.145-1.563 0-2.664-1.139-5.212-3.127-6.989-1.985-1.775-4.653-2.623-7.325-2.326-4.113 0.459-7.555 3.752-8.184 7.829-0.159 1.035-0.131 2.059 0.034 3.048h-7.18v-5.469h-4.688c-1.723 0-3.125 1.402-3.125 3.125v21.094c0 1.723 1.402 3.125 3.125 3.125h1.562v7.031c0 2.154 1.752 3.906 3.906 3.906h7.813v3.125h-3.125v1.563h21.875v-1.563h-3.125v-3.125h7.813c2.154 0 3.906-1.752 3.906-3.906v-2.344h1.563c1.723 0 3.125-1.402 3.125-3.125v-20.313c0-1.723-1.402-3.125-3.125-3.125zM46.094 13.281c0.862 0 1.563 0.701 1.563 1.563v17.622c-0.462-0.269-0.991-0.434-1.563-0.434h-18.267l1.861-3.722v-8.203c0-1.042 0.504-2.067 1.382-2.813 1.277-1.085 2.217-2.473 2.762-4.012zM10.156 33.594h12.798l0.216 0.431c0.348 0.698 1.049 1.131 1.83 1.131s1.481-0.434 1.83-1.13l0.216-0.432h12.798v3.125h-29.688zM24.48 12.5h1.038l-0.469 7.031h-0.101zM28.125 21.094v6.25h-6.25v-6.25zM27.642 28.906l-2.21 4.421c-0.165 0.329-0.699 0.329-0.863 0l-2.211-4.421zM17.284 8.908c0.523-3.391 3.388-6.131 6.813-6.514 2.262-0.253 4.431 0.436 6.11 1.938 1.655 1.482 2.605 3.605 2.605 5.825 0 2.291-1.004 4.459-2.755 5.946-1.070 0.909-1.743 2.135-1.898 3.429h-1.543l0.469-7.031h1.040c1.292 0 2.344-1.052 2.344-2.344s-1.052-2.344-2.344-2.344h-0.101c-1.229 0-2.256 0.961-2.338 2.188l-0.062 0.937h-1.247l-0.062-0.938c-0.082-1.227-1.109-2.188-2.338-2.188h-0.101c-1.292 0-2.344 1.052-2.344 2.344s1.052 2.344 2.344 2.344h1.040l0.469 7.031h-1.552c-0.166-1.335-0.801-2.531-1.798-3.352-2.151-1.772-3.179-4.49-2.749-7.271zM27.189 10.938l0.055-0.833c0.027-0.409 0.37-0.73 0.78-0.73h0.101c0.43 0 0.781 0.351 0.781 0.781s-0.351 0.781-0.781 0.781zM22.811 10.938h-0.936c-0.43 0-0.781-0.351-0.781-0.781s0.351-0.781 0.781-0.781h0.101c0.409 0 0.752 0.32 0.78 0.73zM2.344 9.375c0-0.862 0.701-1.563 1.563-1.563h3.125v18.75h-3.125c-0.569 0-1.102 0.152-1.563 0.42zM2.344 30.469v-0.781c0-0.862 0.701-1.563 1.563-1.563h4.688v-14.844h7.575c0.556 1.574 1.526 2.995 2.872 4.104 0.809 0.666 1.272 1.706 1.272 2.927v7.997l1.861 3.722h-18.267c-0.862 0-1.563-0.701-1.563-1.563zM31.25 47.656h-12.5v-3.125h12.5zM40.625 42.969h-31.25c-1.292 0-2.344-1.052-2.344-2.344v-7.031h1.563v3.125c0 0.862 0.701 1.563 1.563 1.563h29.688c0.862 0 1.563-0.701 1.563-1.563v-3.125h1.563v7.031c0 1.292-1.052 2.344-2.344 2.344zM46.094 36.719h-1.563v-3.125h1.563c0.862 0 1.563 0.701 1.563 1.563s-0.701 1.563-1.563 1.563zM33.594 14.844h3.125v1.563h-3.125zM38.281 14.844h7.813v1.563h-7.813zM33.594 17.969h12.5v1.563h-12.5zM33.594 21.094h12.5v1.563h-12.5zM33.594 24.219h1.563v1.563h-1.563zM36.719 24.219h9.375v1.563h-9.375zM42.969 27.344h3.125v1.563h-3.125zM33.594 27.344h7.813v1.563h-7.813zM10.156 30.469h7.813v-6.25h-7.813zM11.719 25.781h4.688v3.125h-4.688zM10.156 21.094h7.813v1.563h-7.813zM16.406 17.969h1.563v1.563h-1.563zM10.156 17.969h4.688v1.563h-4.688zM10.156 14.844h6.25v1.563h-6.25z"></path>
</svg>
