<!-- Generated by IcoMoon.io -->
<svg version="1.1" xmlns="http://www.w3.org/2000/svg" width="50" height="50" viewBox="0 0 50 50">
<title>-solution</title>
<path fill="#fff" d="M36.995 8.837c-0.435 0.257-0.581 0.818-0.325 1.254 1.22 2.075 1.865 4.45 1.865 6.872 0 4.199-1.897 8.093-5.204 10.686-1.875 1.47-3.218 3.508-3.835 5.8h-9.030c-0.617-2.292-1.958-4.33-3.83-5.796-3.31-2.592-5.208-6.488-5.208-10.689-0.001-7.479 6.077-13.565 13.549-13.568h0.004c2.405 0 4.767 0.639 6.83 1.846 0.437 0.255 0.997 0.108 1.252-0.328s0.108-0.998-0.328-1.254c-2.343-1.371-5.025-2.096-7.755-2.096-0.001 0-0.003 0-0.005 0-8.48 0.003-15.379 6.911-15.379 15.4 0 4.768 2.155 9.19 5.911 12.132 1.497 1.172 2.586 2.784 3.125 4.603-1.11 0.476-1.89 1.581-1.89 2.865 0 1.465 1.016 2.697 2.38 3.027v3.020c0 3.234 2.628 5.864 5.858 5.864s5.858-2.63 5.858-5.864v-3.020c1.364-0.331 2.38-1.562 2.38-3.027 0-1.284-0.78-2.388-1.89-2.865 0.54-1.817 1.631-3.431 3.131-4.607 3.753-2.943 5.905-7.363 5.905-12.129 0-2.748-0.732-5.446-2.117-7.801-0.257-0.436-0.817-0.582-1.253-0.325zM29.009 41.695h-8.055v-2.016h8.055zM24.982 46.642c-1.906 0-3.506-1.332-3.921-3.115h7.842c-0.415 1.783-2.015 3.115-3.921 3.115zM30.108 37.847h-10.252c-0.707 0-1.282-0.575-1.282-1.283s0.575-1.283 1.282-1.283h10.252c0.707 0 1.281 0.575 1.281 1.283s-0.575 1.283-1.281 1.283zM34.574 7.379c0.179 0.18 0.414 0.271 0.649 0.271 0.233 0 0.467-0.089 0.645-0.266 0.18-0.179 0.27-0.414 0.27-0.65 0-0.233-0.089-0.467-0.266-0.646l-0.008-0.008c-0.356-0.359-0.936-0.361-1.295-0.004-0.18 0.179-0.27 0.414-0.27 0.65-0.001 0.234 0.088 0.467 0.266 0.646zM32.358 24.637c0.183-0.348 0.279-0.741 0.279-1.135v-3.136c0-0.462-0.253-0.883-0.661-1.099s-0.898-0.188-1.279 0.073c-0.208 0.142-0.453 0.218-0.707 0.218h-0.090c-0.693 0-1.257-0.565-1.257-1.259s0.564-1.258 1.257-1.258h0.090c0.254 0 0.499 0.075 0.707 0.218 0.381 0.26 0.871 0.289 1.279 0.073s0.661-0.637 0.661-1.099v-3.133c0-1.35-1.098-2.449-2.447-2.449h-2.261c0.101-0.308 0.153-0.631 0.153-0.958v-0.090c0-1.704-1.385-3.091-3.088-3.091s-3.088 1.386-3.088 3.091v0.090c0 0.326 0.053 0.65 0.153 0.958h-2.261c-1.349 0-2.447 1.099-2.447 2.449v3.136c0 0.462 0.253 0.883 0.661 1.099s0.898 0.188 1.279-0.073c0.208-0.143 0.453-0.218 0.707-0.218h0.090c0.693 0 1.257 0.564 1.257 1.258s-0.564 1.259-1.257 1.259h-0.090c-0.254 0-0.498-0.076-0.707-0.218-0.381-0.26-0.871-0.288-1.279-0.072s-0.661 0.637-0.661 1.099v3.132c0 1.35 1.098 2.449 2.447 2.449h2.261c-0.1 0.308-0.153 0.631-0.153 0.957v0.090c0 1.705 1.385 3.091 3.088 3.091s3.088-1.386 3.088-3.091v-0.090c0-0.326-0.052-0.65-0.153-0.957h2.261c0.913 0 1.744-0.503 2.168-1.314zM26.956 24.118c-0.481 0-0.91 0.269-1.119 0.703-0.209 0.431-0.153 0.932 0.143 1.307 0.177 0.223 0.271 0.493 0.271 0.78v0.090c0 0.694-0.564 1.258-1.257 1.258s-1.257-0.564-1.257-1.258v-0.090c0-0.286 0.093-0.556 0.27-0.78 0.297-0.375 0.352-0.876 0.144-1.307-0.209-0.434-0.638-0.703-1.119-0.703h-3.234c-0.34 0-0.616-0.277-0.616-0.616v-2.218c0.264 0.072 0.538 0.109 0.817 0.109h0.090c1.703 0 3.088-1.387 3.088-3.091s-1.385-3.091-3.088-3.091h-0.090c-0.278 0-0.553 0.037-0.817 0.11v-2.221c0-0.34 0.277-0.617 0.616-0.617h3.234c0.481 0 0.91-0.269 1.119-0.703 0.208-0.432 0.153-0.933-0.144-1.307-0.177-0.223-0.27-0.493-0.27-0.78v-0.090c0-0.694 0.564-1.258 1.257-1.258s1.257 0.565 1.257 1.258v0.090c0 0.286-0.094 0.556-0.271 0.78-0.297 0.375-0.352 0.876-0.143 1.307 0.209 0.433 0.638 0.703 1.119 0.703h3.234c0.34 0 0.616 0.277 0.616 0.617v2.218c-0.264-0.072-0.538-0.109-0.817-0.109h-0.090c-1.703 0-3.088 1.386-3.088 3.091s1.385 3.091 3.088 3.091h0.090c0.279 0 0.553-0.037 0.817-0.11v2.222c0 0.101-0.023 0.197-0.070 0.285-0.107 0.204-0.316 0.331-0.546 0.331zM42.556 13.739c0.235 0 0.469-0.090 0.647-0.269l1.394-1.395c0.358-0.358 0.358-0.938 0-1.296s-0.937-0.358-1.295 0l-1.394 1.395c-0.357 0.357-0.357 0.938 0 1.295 0.179 0.179 0.413 0.269 0.647 0.269zM43.204 20.397c-0.357-0.358-0.937-0.358-1.294 0s-0.358 0.938 0 1.295l1.394 1.395c0.179 0.179 0.413 0.268 0.647 0.268s0.468-0.089 0.647-0.268c0.358-0.358 0.358-0.938 0-1.296zM47.499 16.018h-4.837c-0.506 0-0.916 0.41-0.916 0.916s0.41 0.916 0.916 0.916h4.837c0.505 0 0.915-0.41 0.915-0.916s-0.41-0.916-0.915-0.916zM6.651 10.78c-0.358-0.357-0.937-0.357-1.295 0s-0.357 0.938 0 1.296l1.394 1.395c0.179 0.178 0.413 0.268 0.647 0.268s0.469-0.090 0.647-0.268c0.358-0.358 0.358-0.938 0-1.296zM6.751 20.397l-1.394 1.395c-0.357 0.358-0.357 0.938 0 1.296 0.179 0.179 0.413 0.268 0.647 0.268s0.468-0.089 0.647-0.268l1.393-1.395c0.358-0.357 0.358-0.938 0-1.295s-0.937-0.358-1.294 0zM8.208 16.934c0-0.506-0.41-0.916-0.915-0.916h-4.837c-0.506 0-0.915 0.41-0.915 0.916s0.41 0.916 0.915 0.916h4.837c0.506 0 0.915-0.41 0.915-0.916zM8.208 16.934"></path>
</svg>
