<!-- Generated by IcoMoon.io -->
<svg version="1.1" xmlns="http://www.w3.org/2000/svg" width="50" height="50" viewBox="0 0 50 50">
<title>-technology</title>
<path fill="#fff" d="M2.072 20.628c-1.022 0.166-1.813 0.985-1.942 2.013-0.172 1.556-0.173 3.126-0.005 4.682 0.117 1.043 0.913 1.882 1.948 2.054l2.652 0.434c0.509 2.168 1.368 4.239 2.544 6.131l-1.561 2.18c-0.622 0.843-0.607 1.997 0.037 2.824 0.497 0.608 1.025 1.189 1.583 1.741 0.512 0.512 1.077 1.028 1.757 1.598 0.82 0.631 1.959 0.644 2.793 0.033l2.191-1.572c1.89 1.176 3.959 2.035 6.125 2.545l0.435 2.656c0.165 1.022 0.985 1.813 2.013 1.942 0.475 0.053 0.958 0.091 1.443 0.111h0.071c0.434-0 0.852-0.167 1.167-0.467 0.327-0.313 0.512-0.746 0.511-1.198v-6.678c-0.005-0.892-0.709-1.624-1.601-1.662-7.976-0.416-14.23-7.005-14.23-14.992s6.254-14.576 14.23-14.992c0.893-0.039 1.598-0.773 1.601-1.667v-6.675c0.001-0.453-0.184-0.887-0.512-1.199-0.327-0.321-0.774-0.491-1.233-0.468-0.485 0.019-0.966 0.054-1.459 0.104-1.027 0.132-1.843 0.928-2 1.952l-0.434 2.653c-2.166 0.51-4.235 1.37-6.125 2.546l-2.191-1.568c-0.842-0.616-1.992-0.598-2.814 0.045-0.604 0.495-1.182 1.020-1.732 1.574-0.567 0.554-1.101 1.141-1.598 1.758-0.636 0.821-0.652 1.964-0.040 2.803l1.571 2.193c-1.175 1.892-2.033 3.962-2.541 6.13zM6.232 21.093c0.484-2.354 1.414-4.593 2.738-6.598 0.19-0.288 0.182-0.664-0.019-0.944l-1.901-2.654c-0.176-0.232-0.181-0.551-0.012-0.788 0.457-0.566 0.947-1.105 1.467-1.613 0.506-0.511 1.037-0.996 1.592-1.453 0.239-0.182 0.57-0.182 0.808 0l2.65 1.902c0.281 0.201 0.656 0.208 0.944 0.018 2.003-1.325 4.242-2.255 6.594-2.739 0.338-0.070 0.598-0.341 0.654-0.682l0.524-3.209c0.038-0.288 0.259-0.517 0.545-0.566 0.441-0.046 0.887-0.078 1.349-0.097l-0.018 6.676c-8.872 0.453-15.831 7.781-15.827 16.665s6.972 16.204 15.845 16.647l-0.012 6.678c-0.448-0.018-0.891-0.053-1.328-0.102-0.288-0.042-0.513-0.269-0.553-0.557l-0.525-3.211c-0.056-0.341-0.316-0.612-0.654-0.682-2.352-0.485-4.591-1.415-6.594-2.74-0.288-0.19-0.664-0.183-0.944 0.018l-2.652 1.903c-0.226 0.176-0.54 0.184-0.776 0.021-0.613-0.516-1.143-1-1.622-1.478-0.511-0.505-0.996-1.035-1.452-1.59-0.18-0.24-0.18-0.57 0-0.81l1.899-2.652c0.201-0.281 0.208-0.656 0.018-0.944-1.325-2.005-2.254-4.244-2.738-6.597-0.070-0.338-0.34-0.598-0.681-0.654l-3.208-0.526c-0.299-0.049-0.528-0.292-0.561-0.592-0.156-1.433-0.154-2.879 0.005-4.312 0.041-0.288 0.268-0.514 0.556-0.555l3.207-0.525c0.342-0.056 0.613-0.318 0.682-0.657zM47.5 22.502c-1.056 0.004-1.995 0.671-2.347 1.667h-19.32v-2.5h13.333c1.381 0 2.5-1.119 2.5-2.5v-4.32c1.148-0.406 1.837-1.58 1.631-2.78s-1.246-2.077-2.464-2.077-2.258 0.877-2.464 2.077 0.483 2.374 1.631 2.78v4.32c0 0.46-0.373 0.833-0.833 0.833h-13.333v-2.5h9.167c0.46 0 0.833-0.373 0.833-0.833s-0.373-0.833-0.833-0.833h-9.167v-1.667h5c1.381 0 2.5-1.119 2.5-2.5v-5.153c1.148-0.406 1.837-1.58 1.631-2.78s-1.246-2.077-2.464-2.077-2.258 0.877-2.464 2.077 0.483 2.374 1.631 2.78v5.153c0 0.46-0.373 0.833-0.833 0.833h-5.22c-0.287-0.533-0.859-0.848-1.462-0.807-7.022 0.445-12.49 6.27-12.49 13.307s5.468 12.862 12.49 13.307h0.098c0.569 0.005 1.095-0.306 1.365-0.807h5.22c0.46 0 0.833 0.373 0.833 0.833v5.153c-1.148 0.406-1.837 1.58-1.631 2.78s1.246 2.077 2.464 2.077 2.258-0.877 2.464-2.077-0.483-2.374-1.631-2.78v-5.153c0-1.381-1.119-2.5-2.5-2.5h-5v-1.667h9.167c0.46 0 0.833-0.373 0.833-0.833s-0.373-0.833-0.833-0.833h-9.167v-2.5h13.333c0.46 0 0.833 0.373 0.833 0.833v4.32c-1.148 0.406-1.837 1.58-1.631 2.78s1.246 2.077 2.464 2.077 2.258-0.877 2.464-2.077-0.483-2.374-1.631-2.78v-4.32c0-1.381-1.119-2.5-2.5-2.5h-13.333v-2.5h19.32c0.426 1.196 1.681 1.881 2.917 1.593s2.059-1.457 1.913-2.718c-0.146-1.26-1.215-2.211-2.484-2.209zM40.833 11.669c0.46 0 0.833 0.373 0.833 0.833s-0.373 0.833-0.833 0.833-0.833-0.373-0.833-0.833 0.373-0.833 0.833-0.833zM32.5 3.335c0.46 0 0.833 0.373 0.833 0.833s-0.373 0.833-0.833 0.833-0.833-0.373-0.833-0.833 0.373-0.833 0.833-0.833zM32.5 46.668c-0.46 0-0.833-0.373-0.833-0.833s0.373-0.833 0.833-0.833 0.833 0.373 0.833 0.833-0.373 0.833-0.833 0.833zM40.833 38.335c-0.46 0-0.833-0.373-0.833-0.833s0.373-0.833 0.833-0.833 0.833 0.373 0.833 0.833-0.373 0.833-0.833 0.833zM13.333 25.002c0.007-6.117 4.732-11.193 10.833-11.637v23.273c-6.101-0.444-10.826-5.52-10.833-11.637zM47.5 25.835c-0.46 0-0.833-0.373-0.833-0.833s0.373-0.833 0.833-0.833 0.833 0.373 0.833 0.833-0.373 0.833-0.833 0.833z"></path>
</svg>
