<!-- Generated by IcoMoon.io -->
<svg version="1.1" xmlns="http://www.w3.org/2000/svg" width="48" height="48" viewBox="0 0 48 48">
<title>-optimization</title>
<path fill="#3c72fc" d="M38.47 1.72l-2.030 2.030h-2.689c-0.414 0-0.75 0.336-0.75 0.75v0 2.689l-2.561 2.561h-2.689c-0.414 0-0.75 0.336-0.75 0.75v0 2.689l-2.561 2.561h-2.689c-0.414 0-0.75 0.336-0.75 0.75v0 2.689l-3.311 3.311h-2.564c0.441-2.572 1.926-4.732 3.994-6.064l0.035-0.021-0.809-1.263c-2.932 1.895-4.846 5.148-4.846 8.848 0 5.799 4.701 10.5 10.5 10.501h9.633c-2.528 2.324-5.914 3.749-9.633 3.75h-0c-7.858 0-14.25-6.392-14.25-14.25h-1.5c0 0.002 0 0.003 0 0.005 0 1.33 0.165 2.62 0.475 3.854l-0.023-0.109h-5.702v-7.5h6c0.311 0 0.577-0.189 0.691-0.458l0.002-0.005 1.211-2.925c0.036-0.085 0.057-0.184 0.057-0.287 0-0.207-0.084-0.395-0.22-0.53l-4.243-4.243 5.303-5.303 4.243 4.243c0.136 0.136 0.323 0.22 0.53 0.22 0.104 0 0.202-0.021 0.292-0.059l-0.005 0.002 2.925-1.211c0.274-0.116 0.463-0.382 0.463-0.693v0-6h7.5v4.5h1.5v-5.25c0-0.414-0.336-0.75-0.75-0.75h-9c-0.414 0-0.75 0.336-0.75 0.75v0 6.249l-1.999 0.828-4.419-4.419c-0.136-0.136-0.323-0.22-0.53-0.22s-0.395 0.084-0.53 0.22l-6.364 6.364c-0.136 0.136-0.22 0.323-0.22 0.53s0.084 0.395 0.22 0.53l4.419 4.419-0.828 1.999h-6.249c-0.414 0-0.75 0.336-0.75 0.75v0 9c0 0.414 0.336 0.75 0.75 0.75h6.249l0.828 1.999-4.419 4.419c-0.136 0.136-0.22 0.323-0.22 0.53s0.084 0.395 0.22 0.53l6.364 6.364c0.136 0.136 0.323 0.22 0.53 0.22s0.395-0.084 0.53-0.22l4.419-4.419 1.999 0.828v6.249c0 0.414 0.336 0.75 0.75 0.75h9c0.414 0 0.75-0.336 0.75-0.75v0-6.249l1.999-0.828 4.419 4.419c0.136 0.136 0.323 0.22 0.53 0.22s0.395-0.084 0.53-0.22l6.364-6.364c0.136-0.136 0.22-0.323 0.22-0.53s-0.084-0.395-0.22-0.53l-1.167-1.167h3.825c0.414 0 0.75-0.336 0.75-0.75v0-25.5c0-0.414-0.336-0.75-0.75-0.75h-6c-0.414 0-0.75 0.336-0.75 0.75v0 5.25h-5.25c-0.414 0-0.75 0.336-0.75 0.75v0 3.75h-5.25c-0.414 0-0.75 0.336-0.75 0.75v0 4.5h-5.25c-0.414 0-0.75 0.336-0.75 0.75v0 3h-5.485c-0.326-0.891-0.515-1.92-0.515-2.993 0-0.002 0-0.005 0-0.007v0h3c0.207 0 0.395-0.084 0.53-0.22l3.53-3.53h2.689c0.414 0 0.75-0.336 0.75-0.75v0-2.689l2.561-2.561h2.689c0.414 0 0.75-0.336 0.75-0.75v0-2.689l2.561-2.561h2.689c0.414 0 0.75-0.336 0.75-0.75v0-2.689l1.811-1.811h7.189v-1.5h-7.5c-0.207 0-0.395 0.084-0.53 0.22v0zM11.802 41.501l-5.303-5.303 4.035-4.035c1.341 2.179 3.124 3.962 5.235 5.264l0.068 0.039zM20.25 45v-5.702c1.125 0.287 2.417 0.452 3.747 0.452 1.332 0 2.626-0.165 3.862-0.477l-0.109 0.023v5.704zM41.501 36.198l-5.303 5.303-4.034-4.034c1.37-0.838 2.547-1.821 3.562-2.952l0.013-0.015h4.065zM40.5 9h4.5v24h-4.5v-24zM34.5 15h4.5v18h-4.5v-18zM28.5 19.5h4.5v13.5h-4.5v-13.5zM22.5 24.75h4.5v8.25h-3c-0.53-0-1.049-0.046-1.554-0.133l0.054 0.008v-8.124zM21 28.5v3.985c-2.050-0.744-3.711-2.145-4.769-3.943l-0.023-0.042zM24 18.75h-1.5v-1.5h1.5zM30 12.75h-1.5v-1.5h1.5zM36 6.75h-1.5v-1.5h1.5z"></path>
</svg>
