<!-- Generated by IcoMoon.io -->
<svg version="1.1" xmlns="http://www.w3.org/2000/svg" width="48" height="48" viewBox="0 0 48 48">
<title>-technical-support</title>
<path fill="#3c72fc" d="M45.862 33.675c-0.53-0.903-1.496-1.5-2.601-1.5-0.55 0-1.065 0.148-1.508 0.405l0.014-0.008-7.313 4.223c-0.397-0.589-0.985-1.024-1.674-1.217l-0.021-0.005-11.19-2.992c-0.408-0.114-0.876-0.18-1.359-0.18-0.452 0-0.891 0.058-1.309 0.166l0.036-0.008-3.938 0.983v-1.29c0-0.414-0.336-0.75-0.75-0.75v0h-6c-0.414 0-0.75 0.336-0.75 0.75v0 0.75h-5.25c-0.414 0-0.75 0.336-0.75 0.75v0 10.5c0 0.414 0.336 0.75 0.75 0.75v0h5.25v0.75c0 0.414 0.336 0.75 0.75 0.75v0h6c0.414 0 0.75-0.336 0.75-0.75v0-1.035l0.967 0.48c0.684 0.348 1.492 0.553 2.347 0.555h11.228c0.003 0 0.007 0 0.011 0 0.963 0 1.865-0.262 2.638-0.718l-0.024 0.013 12.6-7.275c0.9-0.531 1.494-1.495 1.494-2.598 0-0.551-0.148-1.067-0.407-1.511l0.008 0.014zM7.5 43.5h-4.5v-9h4.5zM13.5 45h-4.5v-12h4.5zM44.017 36.473l-12.6 7.275c-0.537 0.316-1.182 0.502-1.872 0.502-0.001 0-0.002 0-0.004 0h-11.227c-0.002 0-0.005 0-0.008 0-0.61 0-1.186-0.147-1.693-0.407l0.021 0.010-1.635-0.818v-7.95l4.297-1.072c0.274-0.072 0.588-0.114 0.913-0.114 0.345 0 0.679 0.047 0.996 0.135l-0.026-0.006 11.19 3c0.648 0.172 1.118 0.754 1.118 1.445 0 0.554-0.302 1.038-0.751 1.296l-0.007 0.004c-0.213 0.127-0.469 0.203-0.743 0.203-0.139 0-0.273-0.019-0.4-0.055l0.010 0.002-8.948-2.4c-0.058-0.016-0.126-0.026-0.195-0.026-0.416 0-0.753 0.337-0.753 0.753 0 0.347 0.234 0.639 0.553 0.726l0.005 0.001 8.948 2.392c0.234 0.065 0.502 0.104 0.779 0.105h0.001c0.001 0 0.003 0 0.004 0 0.549 0 1.062-0.15 1.502-0.412l-0.013 0.007c0.684-0.396 1.189-1.038 1.398-1.802l0.005-0.021c0.059-0.226 0.093-0.486 0.093-0.754 0-0.091-0.004-0.181-0.012-0.27l0.001 0.012 7.552-4.358c0.212-0.12 0.467-0.191 0.737-0.191 0.551 0 1.033 0.293 1.299 0.732l0.004 0.007c0.127 0.216 0.203 0.475 0.203 0.753 0 0.549-0.295 1.030-0.736 1.291l-0.007 0.004zM11.25 44.25c0.414 0 0.75-0.336 0.75-0.75v0-0.75c0-0.414-0.336-0.75-0.75-0.75s-0.75 0.336-0.75 0.75v0 0.75c0 0.414 0.336 0.75 0.75 0.75v0zM34.5 12.75h-2.813l-0.135-0.315 1.995-1.988c0.136-0.137 0.219-0.325 0.219-0.532s-0.084-0.396-0.219-0.533l-3.18-3.18c-0.137-0.136-0.325-0.219-0.533-0.219s-0.396 0.084-0.533 0.219l0-0-1.987 1.995-0.315-0.135v-2.813c0-0.414-0.336-0.75-0.75-0.75v0h-4.5c-0.414 0-0.75 0.336-0.75 0.75v0 2.813l-0.315 0.135-1.988-1.995c-0.137-0.136-0.325-0.219-0.533-0.219s-0.396 0.084-0.533 0.219l-3.18 3.18c-0.136 0.137-0.219 0.325-0.219 0.532s0.084 0.396 0.219 0.533l-0-0 1.995 1.988-0.135 0.315h-2.813c-0.414 0-0.75 0.336-0.75 0.75v0 4.5c0 0.414 0.336 0.75 0.75 0.75v0h2.813l0.135 0.315-1.995 1.988c-0.133 0.138-0.216 0.325-0.217 0.532v0c0.003 0.207 0.085 0.394 0.218 0.533l-0-0 3.18 3.18c0.138 0.133 0.325 0.216 0.532 0.217h0c0.207-0.003 0.394-0.085 0.533-0.218l-0 0 1.988-1.995 0.315 0.135v2.812c0 0.414 0.336 0.75 0.75 0.75v0h4.5c0.414 0 0.75-0.336 0.75-0.75v0-2.813l0.315-0.135 1.987 1.995c0.139 0.129 0.327 0.208 0.532 0.208s0.393-0.079 0.533-0.209l-0.001 0 3.18-3.18c0.132-0.139 0.214-0.326 0.218-0.532v-0.001c-0.002-0.207-0.084-0.395-0.218-0.533l0 0-1.995-1.987 0.135-0.315h2.813c0.414 0 0.75-0.336 0.75-0.75v0-4.5c0-0.414-0.336-0.75-0.75-0.75v0zM33.75 17.25h-2.595c-0.331 0-0.612 0.215-0.711 0.512l-0.002 0.005c-0.13 0.418-0.285 0.778-0.473 1.118l0.015-0.031c-0.057 0.104-0.090 0.228-0.090 0.359 0 0.208 0.083 0.396 0.218 0.533l-0-0 1.845 1.837-2.123 2.123-1.837-1.845c-0.137-0.135-0.326-0.218-0.533-0.218-0.132 0-0.255 0.033-0.363 0.092l0.004-0.002c-0.309 0.172-0.669 0.327-1.045 0.446l-0.042 0.011c-0.303 0.101-0.517 0.382-0.517 0.712v2.595h-3v-2.595c-0-0.331-0.215-0.612-0.512-0.711l-0.005-0.002c-0.418-0.13-0.778-0.285-1.118-0.473l0.031 0.015c-0.104-0.057-0.228-0.090-0.359-0.090-0.208 0-0.396 0.083-0.533 0.218l0-0-1.837 1.845-2.123-2.123 1.845-1.837c0.135-0.137 0.218-0.326 0.218-0.533 0-0.132-0.033-0.255-0.092-0.363l0.002 0.004c-0.172-0.309-0.327-0.669-0.446-1.045l-0.011-0.042c-0.101-0.303-0.382-0.517-0.712-0.518h-2.595v-3h2.595c0.331-0 0.612-0.215 0.711-0.512l0.002-0.005c0.13-0.418 0.285-0.778 0.473-1.118l-0.015 0.031c0.057-0.104 0.090-0.228 0.090-0.359 0-0.208-0.083-0.396-0.218-0.533l0 0-1.845-1.838 2.123-2.122 1.837 1.845c0.137 0.135 0.326 0.218 0.533 0.218 0.132 0 0.255-0.033 0.363-0.092l-0.004 0.002c0.309-0.172 0.669-0.327 1.045-0.446l0.042-0.011c0.303-0.101 0.517-0.382 0.518-0.712v-2.595h3v2.595c0 0.331 0.215 0.612 0.512 0.711l0.005 0.002c0.418 0.13 0.778 0.285 1.118 0.473l-0.031-0.015c0.104 0.057 0.228 0.090 0.359 0.090 0.208 0 0.396-0.083 0.533-0.218l-0 0 1.838-1.845 2.122 2.122-1.845 1.838c-0.135 0.137-0.218 0.326-0.218 0.533 0 0.132 0.033 0.255 0.092 0.363l-0.002-0.004c0.172 0.309 0.327 0.669 0.446 1.046l0.011 0.042c0.101 0.303 0.382 0.517 0.712 0.518h2.595zM28.5 15.75c0-2.485-2.015-4.5-4.5-4.5s-4.5 2.015-4.5 4.5c0 2.485 2.015 4.5 4.5 4.5v0c2.484-0.003 4.497-2.016 4.5-4.5v-0zM21 15.75c0-1.657 1.343-3 3-3s3 1.343 3 3c0 1.657-1.343 3-3 3v0c-1.657 0-3-1.343-3-3v0zM41.25 17.25h-1.5c0-8.699-7.052-15.75-15.75-15.75s-15.75 7.051-15.75 15.75v0h-1.5c-2.485 0-4.5 2.015-4.5 4.5s2.015 4.5 4.5 4.5v0h3.75c0.414 0 0.75-0.336 0.75-0.75v0-7.5c0-0.414-0.336-0.75-0.75-0.75v0h-0.75c0-7.87 6.38-14.25 14.25-14.25s14.25 6.38 14.25 14.25v0h-0.75c-0.414 0-0.75 0.336-0.75 0.75v0 7.5c0 0.414 0.336 0.75 0.75 0.75v0h0.75v2.25c0 0.414-0.336 0.75-0.75 0.75v0h-5.385c-0.319-0.878-1.145-1.495-2.114-1.5h-1.501c-1.243 0-2.25 1.007-2.25 2.25s1.007 2.25 2.25 2.25v0h1.5c0.97-0.005 1.796-0.622 2.11-1.484l0.005-0.016h5.385c1.241-0.004 2.246-1.009 2.25-2.25v-2.25h1.5c2.485 0 4.5-2.015 4.5-4.5s-2.015-4.5-4.5-4.5v0zM6.75 24.75c-1.657 0-3-1.343-3-3s1.343-3 3-3v0zM9.75 24.75h-1.5v-6h1.5zM30 30.75h-1.5c-0.414 0-0.75-0.336-0.75-0.75s0.336-0.75 0.75-0.75v0h1.5c0.414 0 0.75 0.336 0.75 0.75s-0.336 0.75-0.75 0.75v0zM39.75 24.75h-1.5v-6h1.5zM41.25 24.75v-6c1.657 0 3 1.343 3 3s-1.343 3-3 3v0z"></path>
</svg>
