<!-- Generated by IcoMoon.io -->
<svg version="1.1" xmlns="http://www.w3.org/2000/svg" width="60" height="60" viewBox="0 0 60 60">
<title>-data-protection</title>
<path fill="#3c72fc" d="M54.375 29.063h-3.75v-6.563c0-1.221-0.787-2.252-1.875-2.64v-3.922c0-4.135-3.365-7.5-7.5-7.5h-1.582c-5.984 0-11.611-2.331-15.843-6.563-1.208-1.209-3.318-1.209-4.526 0-4.232 4.232-9.859 6.563-15.843 6.563h-2.519v7.109c0 14.051 6.855 27.274 18.405 35.416 0.674 0.393 1.441 0.6 2.22 0.6 0.652 0 1.296-0.156 1.924-0.458 0.244 2.357 2.218 4.208 4.639 4.208h5.625v1.875h-3.75v1.875h22.5v-1.875h-3.75v-1.875h5.625c2.585 0 4.688-2.103 4.688-4.688v-16.875c0-2.585-2.103-4.688-4.688-4.688zM48.75 22.5v9.375c0 1.551-1.262 2.813-2.813 2.813h-9.375c-1.551 0-2.813-1.262-2.813-2.813v-9.375c0-0.517 0.421-0.938 0.938-0.938h13.125c0.517 0 0.938 0.421 0.938 0.938zM52.5 36.563c0.517 0 0.938 0.421 0.938 0.938v3.75c0 0.517-0.421 0.938-0.938 0.938h-22.5c-0.517 0-0.938-0.421-0.938-0.938v-3.75c0-0.517 0.421-0.938 0.938-0.938h15.938zM39.375 19.688v-3.75c0-1.034 0.841-1.875 1.875-1.875s1.875 0.841 1.875 1.875v3.75zM41.25 10.313c3.102 0 5.625 2.523 5.625 5.625v3.75h-1.875v-3.75c0-2.068-1.682-3.75-3.75-3.75s-3.75 1.682-3.75 3.75v3.75h-1.875v-3.75c0-3.102 2.523-5.625 5.625-5.625zM23.438 48.905c-0.214 0.157-0.421 0.308-0.6 0.438-0.773 0.451-1.845 0.408-2.482 0.043-10.986-7.747-17.543-20.397-17.543-33.839v-5.234h0.644c6.485 0 12.582-2.526 17.168-7.112 0.493-0.493 1.382-0.493 1.875 0 3.84 3.841 8.742 6.229 14.042 6.907-0.585 0.473-1.099 1.030-1.52 1.657-4.775-0.852-9.203-3.004-12.833-6.273l-0.627-0.565-0.627 0.565c-4.301 3.874-9.622 6.161-15.383 6.615l-0.864 0.068v3.374c0 12.626 6.102 24.591 16.325 32.004l0.55 0.398 0.55-0.399c0.448-0.325 0.889-0.664 1.325-1.009zM23.438 33.75v10.35c-0.609 0.523-1.23 1.041-1.875 1.526-9.406-7.087-15-18.28-15-30.080v-1.653c5.57-0.608 10.724-2.828 15-6.461 3.631 3.082 7.954 5.154 12.599 6.076-0.263 0.763-0.412 1.578-0.412 2.429v3.922c-1.088 0.388-1.875 1.419-1.875 2.64v6.563h-3.75c-2.585 0-4.688 2.103-4.688 4.688zM46.875 57.188h-11.25v-1.875h11.25zM57.188 50.625c0 1.551-1.262 2.813-2.813 2.813h-26.25c-1.551 0-2.813-1.262-2.813-2.813v-2.813h31.875zM57.188 45.938h-31.875v-12.188c0-1.551 1.262-2.813 2.813-2.813h3.75v0.938c0 1.059 0.367 2.027 0.962 2.813h-2.837c-1.551 0-2.813 1.262-2.813 2.813v3.75c0 1.551 1.262 2.813 2.813 2.813h22.5c1.551 0 2.813-1.262 2.813-2.813v-3.75c0-1.551-1.262-2.813-2.813-2.813h-2.837c0.595-0.786 0.962-1.753 0.962-2.813v-0.938h3.75c1.551 0 2.813 1.262 2.813 2.813zM53.438 50.625c0 0.518 0.42 0.938 0.938 0.938s0.938-0.42 0.938-0.938v0c0-0.518-0.42-0.938-0.938-0.938s-0.938 0.42-0.938 0.938v0M49.688 50.625c0 0.518 0.42 0.938 0.938 0.938s0.938-0.42 0.938-0.938v0c0-0.518-0.42-0.938-0.938-0.938s-0.938 0.42-0.938 0.938v0M49.688 38.438h1.875v1.875h-1.875zM45.938 38.438h1.875v1.875h-1.875zM42.188 38.438h1.875v1.875h-1.875zM38.438 38.438h1.875v1.875h-1.875zM30.938 38.438h1.875v1.875h-1.875zM34.688 38.438h1.875v1.875h-1.875zM38.438 32.813h5.625v-3.16c0.6-0.683 0.938-1.559 0.938-2.465 0-2.068-1.682-3.75-3.75-3.75s-3.75 1.682-3.75 3.75c0 0.906 0.337 1.783 0.938 2.465zM41.25 25.313c1.034 0 1.875 0.841 1.875 1.875 0 0.529-0.223 1.021-0.627 1.386l-0.31 0.279v2.085h-1.875v-2.085l-0.31-0.279c-0.404-0.365-0.627-0.857-0.627-1.386 0-1.034 0.841-1.875 1.875-1.875zM10.337 16.839l-1.874 0.071c0.165 4.316 1.101 8.527 2.782 12.516l1.728-0.728c-1.592-3.78-2.479-7.771-2.635-11.859zM12.124 31.352c0.32 0.649 0.664 1.297 1.022 1.926l1.628-0.929c-0.339-0.595-0.666-1.209-0.968-1.824z"></path>
</svg>
