<!-- Generated by IcoMoon.io -->
<svg version="1.1" xmlns="http://www.w3.org/2000/svg" width="60" height="60" viewBox="0 0 60 60">
<title>-server</title>
<path fill="#d90a2c" d="M20.625 18.75h11.25v1.875h-11.25zM33.75 18.75h1.875v1.875h-1.875zM37.5 18.75h1.875v1.875h-1.875zM20.625 26.25h11.25v1.875h-11.25zM33.75 26.25h1.875v1.875h-1.875zM37.5 26.25h1.875v1.875h-1.875zM20.625 33.75h11.25v1.875h-11.25zM33.75 33.75h1.875v1.875h-1.875zM37.5 33.75h1.875v1.875h-1.875zM54.375 40.313c-1.737 0.002-3.198 1.183-3.625 2.786l-0.006 0.026h-10.431v-3.75c1.553-0.002 2.811-1.26 2.813-2.812v-2.813h5.625c5.175-0.004 9.368-4.2 9.368-9.375 0-5.178-4.197-9.375-9.375-9.375-0.537 0-1.064 0.045-1.577 0.132l0.055-0.008c-2.088-7.689-9.005-13.251-17.221-13.251-6.772 0-12.661 3.778-15.675 9.341l-0.047 0.094c-0.346-0.037-0.747-0.059-1.153-0.059h-0c-6.213 0-11.25 5.037-11.25 11.25s5.037 11.25 11.25 11.25v0h3.75v2.813c0.002 1.553 1.26 2.811 2.812 2.813h0v3.75h-10.431c-0.431-1.63-1.893-2.813-3.631-2.813-2.071 0-3.75 1.679-3.75 3.75s1.679 3.75 3.75 3.75c1.738 0 3.2-1.182 3.625-2.786l0.006-0.026h11.369c0.518 0 0.938-0.42 0.938-0.938v0-4.688h1.875v7.5h-7.5c-0.518 0-0.938 0.42-0.938 0.938v0 2.931c-1.63 0.431-2.813 1.893-2.813 3.631 0 2.071 1.679 3.75 3.75 3.75s3.75-1.679 3.75-3.75c0-1.738-1.182-3.2-2.786-3.625l-0.026-0.006v-1.994h7.5c0.518 0 0.938-0.42 0.938-0.938v0-8.438h3.75v9.494c-1.63 0.431-2.813 1.893-2.813 3.631 0 2.071 1.679 3.75 3.75 3.75s3.75-1.679 3.75-3.75c0-1.738-1.182-3.2-2.786-3.625l-0.026-0.006v-9.494h3.75v8.438c0 0.518 0.42 0.938 0.938 0.938v0h7.5v1.994c-1.63 0.431-2.813 1.893-2.813 3.631 0 2.071 1.679 3.75 3.75 3.75s3.75-1.679 3.75-3.75c0-1.738-1.182-3.2-2.786-3.625l-0.026-0.006v-2.931c0-0.518-0.42-0.938-0.938-0.938v0h-7.5v-7.5h1.875v4.688c0 0.518 0.42 0.938 0.938 0.938v0h11.369c0.431 1.63 1.893 2.813 3.631 2.813 2.071 0 3.75-1.679 3.75-3.75s-1.679-3.75-3.75-3.75v0zM5.625 45.938c-1.036 0-1.875-0.839-1.875-1.875s0.839-1.875 1.875-1.875c1.036 0 1.875 0.839 1.875 1.875v0c-0.001 1.035-0.84 1.874-1.875 1.875h-0zM17.813 54.375c0 1.036-0.839 1.875-1.875 1.875s-1.875-0.839-1.875-1.875c0-1.036 0.839-1.875 1.875-1.875v0c1.035 0.001 1.874 0.84 1.875 1.875v0zM31.875 52.5c0 1.036-0.839 1.875-1.875 1.875s-1.875-0.839-1.875-1.875c0-1.036 0.839-1.875 1.875-1.875v0c1.035 0.001 1.874 0.84 1.875 1.875v0zM45.938 54.375c0 1.036-0.839 1.875-1.875 1.875s-1.875-0.839-1.875-1.875c0-1.036 0.839-1.875 1.875-1.875v0c1.035 0.001 1.874 0.84 1.875 1.875v0zM18.75 21.563v-3.75c0.001-0.517 0.42-0.937 0.937-0.938h20.625c0.517 0.001 0.937 0.42 0.938 0.937v3.75c-0.001 0.517-0.42 0.937-0.937 0.938h-20.625c-0.517-0.001-0.937-0.42-0.938-0.937v-0zM18.75 29.063v-3.75c0.001-0.517 0.42-0.937 0.937-0.938h20.625c0.517 0.001 0.937 0.42 0.938 0.937v3.75c-0.001 0.517-0.42 0.937-0.937 0.938h-20.625c-0.517-0.001-0.937-0.42-0.938-0.937v-0zM3.75 22.5c0.006-5.175 4.2-9.369 9.374-9.375h0.001c0.001 0 0.001 0 0.002 0 0.541 0 1.072 0.045 1.589 0.132l-0.056-0.008c0.046 0.008 0.099 0.013 0.153 0.013 0.369 0 0.688-0.213 0.841-0.523l0.002-0.006c2.644-5.361 8.070-8.984 14.343-8.984 7.648 0 14.039 5.386 15.585 12.573l0.019 0.105c0.092 0.429 0.468 0.747 0.918 0.747 0.089 0 0.174-0.012 0.256-0.035l-0.007 0.002c0.593-0.168 1.273-0.265 1.977-0.265 4.142 0 7.5 3.358 7.5 7.5s-3.356 7.498-7.497 7.5h-5.786c-0.131-0.362-0.32-0.674-0.56-0.94l0.002 0.003c0.446-0.494 0.718-1.152 0.718-1.873 0-0.001 0-0.001 0-0.002v0-3.75c0-0.001 0-0.001 0-0.002 0-0.721-0.273-1.379-0.721-1.876l0.002 0.002c0.446-0.494 0.718-1.152 0.718-1.873 0-0.001 0-0.001 0-0.002v0-3.75c-0.002-1.553-1.26-2.811-2.812-2.813h-20.625c-1.553 0.002-2.811 1.26-2.813 2.812v3.75c0 0.001 0 0.001 0 0.002 0 0.721 0.273 1.379 0.721 1.876l-0.002-0.002c-0.446 0.494-0.718 1.152-0.718 1.873 0 0.001 0 0.001 0 0.002v-0 3.75c0 0.001 0 0.001 0 0.002 0 0.721 0.273 1.379 0.721 1.876l-0.002-0.002c-0.237 0.263-0.426 0.575-0.551 0.918l-0.006 0.020h-3.911c-5.175-0.006-9.369-4.2-9.375-9.374v-0.001zM18.75 36.563v-3.75c0.001-0.517 0.42-0.937 0.937-0.938h20.625c0.517 0.001 0.937 0.42 0.938 0.937v3.75c-0.001 0.517-0.42 0.937-0.937 0.938h-20.625c-0.517-0.001-0.937-0.42-0.938-0.937v-0zM54.375 45.938c-1.036 0-1.875-0.839-1.875-1.875s0.839-1.875 1.875-1.875c1.036 0 1.875 0.839 1.875 1.875v0c-0.001 1.035-0.84 1.874-1.875 1.875h-0z"></path>
</svg>
