<!-- Generated by IcoMoon.io -->
<svg version="1.1" xmlns="http://www.w3.org/2000/svg" width="60" height="60" viewBox="0 0 60 60">
<title>-optimization</title>
<path fill="#3c72fc" d="M48.087 2.15l-2.538 2.538h-3.362c-0.518 0-0.938 0.42-0.938 0.938v0 3.362l-3.201 3.201h-3.362c-0.518 0-0.938 0.42-0.938 0.938v0 3.362l-3.201 3.201h-3.362c-0.518 0-0.938 0.42-0.938 0.938v0 3.362l-4.138 4.138h-3.205c0.552-3.215 2.407-5.915 4.992-7.58l0.044-0.027-1.011-1.579c-3.665 2.369-6.057 6.435-6.057 11.060 0 7.249 5.876 13.125 13.125 13.126h12.041c-3.16 2.905-7.392 4.686-12.041 4.688h-0c-9.822 0-17.813-7.991-17.813-17.813h-1.875c0 0.002 0 0.004 0 0.006 0 1.662 0.206 3.276 0.594 4.817l-0.029-0.136h-7.128v-9.375h7.5c0.388 0 0.721-0.236 0.864-0.573l0.002-0.006 1.514-3.656c0.045-0.106 0.071-0.229 0.071-0.359 0-0.259-0.105-0.493-0.275-0.663l-5.303-5.303 6.629-6.629 5.303 5.303c0.17 0.17 0.404 0.275 0.663 0.275 0.129 0 0.253-0.026 0.365-0.074l-0.006 0.002 3.656-1.514c0.343-0.145 0.579-0.478 0.579-0.866v0-7.5h9.375v5.625h1.875v-6.563c0-0.518-0.42-0.938-0.938-0.938h-11.25c-0.518 0-0.938 0.42-0.938 0.938v0 7.811l-2.498 1.035-5.523-5.523c-0.17-0.17-0.404-0.275-0.663-0.275s-0.493 0.105-0.663 0.275l-7.955 7.955c-0.17 0.17-0.275 0.404-0.275 0.663s0.105 0.493 0.275 0.663l5.523 5.523-1.035 2.498h-7.811c-0.518 0-0.938 0.42-0.938 0.938v0 11.25c0 0.518 0.42 0.938 0.938 0.938h7.811l1.035 2.498-5.523 5.523c-0.17 0.17-0.275 0.404-0.275 0.663s0.105 0.493 0.275 0.663l7.955 7.955c0.17 0.17 0.404 0.275 0.663 0.275s0.493-0.105 0.663-0.275l5.523-5.523 2.498 1.035v7.811c0 0.518 0.42 0.938 0.938 0.938h11.25c0.518 0 0.938-0.42 0.938-0.938v0-7.811l2.498-1.035 5.523 5.523c0.17 0.17 0.404 0.275 0.663 0.275s0.493-0.105 0.663-0.275l7.955-7.955c0.17-0.17 0.275-0.404 0.275-0.663s-0.105-0.493-0.275-0.663l-1.459-1.459h4.782c0.518 0 0.938-0.42 0.938-0.938v0-31.875c0-0.518-0.42-0.938-0.938-0.938h-7.5c-0.518 0-0.938 0.42-0.938 0.938v0 6.563h-6.563c-0.518 0-0.938 0.42-0.938 0.938v0 4.688h-6.563c-0.518 0-0.938 0.42-0.938 0.938v0 5.625h-6.562c-0.518 0-0.938 0.42-0.938 0.938v0 3.75h-6.857c-0.408-1.114-0.643-2.4-0.643-3.742 0-0.003 0-0.006 0-0.009v0h3.75c0.259 0 0.493-0.105 0.663-0.275l4.413-4.413h3.362c0.518 0 0.938-0.42 0.938-0.938v0-3.362l3.201-3.201h3.362c0.518 0 0.938-0.42 0.938-0.938v0-3.362l3.201-3.201h3.362c0.518 0 0.938-0.42 0.938-0.938v0-3.362l2.263-2.263h8.987v-1.875h-9.375c-0.259 0-0.493 0.105-0.663 0.275v0zM14.753 51.876l-6.629-6.629 5.044-5.044c1.677 2.724 3.905 4.952 6.543 6.58l0.086 0.049zM25.313 56.25v-7.128c1.406 0.359 3.021 0.565 4.684 0.565 1.665 0 3.282-0.207 4.827-0.596l-0.136 0.029v7.13zM51.876 45.247l-6.629 6.629-5.043-5.043c1.713-1.048 3.183-2.277 4.452-3.69l0.016-0.018h5.081zM50.625 11.25h5.625v30h-5.625v-30zM43.125 18.75h5.625v22.5h-5.625v-22.5zM35.625 24.375h5.625v16.875h-5.625v-16.875zM28.125 30.938h5.625v10.313h-3.75c-0.662-0-1.311-0.057-1.942-0.167l0.067 0.010v-10.155zM26.25 35.625v4.982c-2.562-0.93-4.639-2.681-5.961-4.928l-0.029-0.053zM30 23.438h-1.875v-1.875h1.875zM37.5 15.938h-1.875v-1.875h1.875zM45 8.438h-1.875v-1.875h1.875z"></path>
</svg>
