<!-- Generated by IcoMoon.io -->
<svg version="1.1" xmlns="http://www.w3.org/2000/svg" width="60" height="60" viewBox="0 0 60 60">
<title>-technical-support</title>
<path fill="#3c72fc" d="M57.328 42.094c-0.662-1.129-1.87-1.875-3.251-1.875-0.687 0-1.331 0.184-1.885 0.507l0.018-0.010-9.141 5.278c-0.497-0.737-1.232-1.28-2.092-1.522l-0.026-0.006-13.987-3.741c-0.51-0.143-1.095-0.225-1.699-0.225-0.565 0-1.114 0.072-1.637 0.207l0.045-0.010-4.922 1.228v-1.612c0-0.518-0.42-0.938-0.938-0.938v0h-7.5c-0.518 0-0.938 0.42-0.938 0.938v0 0.938h-6.563c-0.518 0-0.938 0.42-0.938 0.938v0 13.125c0 0.518 0.42 0.938 0.938 0.938v0h6.563v0.938c0 0.518 0.42 0.938 0.938 0.938v0h7.5c0.518 0 0.938-0.42 0.938-0.938v0-1.294l1.209 0.6c0.855 0.435 1.865 0.691 2.933 0.694h14.035c0.004 0 0.009 0 0.014 0 1.204 0 2.331-0.327 3.297-0.898l-0.030 0.017 15.75-9.094c1.125-0.663 1.867-1.869 1.867-3.248 0-0.688-0.185-1.334-0.508-1.889l0.010 0.018zM9.375 54.375h-5.625v-11.25h5.625zM16.875 56.25h-5.625v-15h5.625zM55.022 45.591l-15.75 9.094c-0.671 0.395-1.478 0.628-2.339 0.628-0.002 0-0.003 0-0.005 0h-14.034c-0.003 0-0.006 0-0.009 0-0.762 0-1.482-0.184-2.117-0.509l0.026 0.012-2.044-1.022v-9.938l5.372-1.341c0.342-0.090 0.736-0.142 1.141-0.142 0.431 0 0.849 0.059 1.245 0.168l-0.033-0.008 13.988 3.75c0.81 0.216 1.397 0.942 1.397 1.807 0 0.693-0.378 1.298-0.938 1.62l-0.009 0.005c-0.266 0.159-0.586 0.254-0.929 0.254-0.173 0-0.341-0.024-0.5-0.069l0.013 0.003-11.184-3c-0.073-0.020-0.157-0.032-0.244-0.032-0.52 0-0.941 0.422-0.941 0.941 0 0.433 0.293 0.798 0.691 0.908l0.007 0.002 11.184 2.991c0.292 0.082 0.628 0.13 0.974 0.131h0.001c0.002 0 0.003 0 0.005 0 0.686 0 1.328-0.188 1.877-0.516l-0.017 0.009c0.855-0.495 1.486-1.297 1.747-2.252l0.006-0.026c0.074-0.283 0.117-0.607 0.117-0.942 0-0.114-0.005-0.227-0.015-0.338l0.001 0.014 9.441-5.447c0.266-0.15 0.583-0.239 0.921-0.239 0.688 0 1.291 0.366 1.624 0.915l0.005 0.008c0.159 0.27 0.253 0.594 0.253 0.941 0 0.687-0.369 1.287-0.92 1.614l-0.009 0.005zM14.063 55.313c0.518 0 0.938-0.42 0.938-0.938v0-0.938c0-0.518-0.42-0.938-0.938-0.938s-0.938 0.42-0.938 0.938v0 0.938c0 0.518 0.42 0.938 0.938 0.938v0zM43.125 15.938h-3.516l-0.169-0.394 2.494-2.484c0.169-0.171 0.274-0.406 0.274-0.666s-0.105-0.495-0.274-0.666l-3.975-3.975c-0.171-0.169-0.406-0.274-0.666-0.274s-0.495 0.105-0.666 0.274l0-0-2.484 2.494-0.394-0.169v-3.516c0-0.518-0.42-0.938-0.938-0.938v0h-5.625c-0.518 0-0.938 0.42-0.938 0.938v0 3.516l-0.394 0.169-2.484-2.494c-0.171-0.169-0.406-0.274-0.666-0.274s-0.495 0.105-0.666 0.274l-3.975 3.975c-0.169 0.171-0.274 0.406-0.274 0.666s0.105 0.495 0.274 0.666l-0-0 2.494 2.484-0.169 0.394h-3.516c-0.518 0-0.938 0.42-0.938 0.938v0 5.625c0 0.518 0.42 0.938 0.938 0.938v0h3.516l0.169 0.394-2.494 2.484c-0.167 0.172-0.27 0.407-0.272 0.665v0c0.004 0.259 0.107 0.492 0.272 0.666l-0-0 3.975 3.975c0.172 0.167 0.407 0.27 0.665 0.272h0c0.259-0.004 0.492-0.107 0.666-0.272l-0 0 2.484-2.494 0.394 0.169v3.516c0 0.518 0.42 0.938 0.938 0.938v0h5.625c0.518 0 0.938-0.42 0.938-0.938v0-3.516l0.394-0.169 2.484 2.494c0.174 0.161 0.408 0.26 0.666 0.26s0.491-0.099 0.666-0.261l-0.001 0.001 3.975-3.975c0.165-0.173 0.268-0.407 0.272-0.665v-0.001c-0.002-0.259-0.105-0.493-0.272-0.666l0 0-2.494-2.484 0.169-0.394h3.516c0.518 0 0.938-0.42 0.938-0.938v0-5.625c0-0.518-0.42-0.938-0.938-0.938v0zM42.188 21.563h-3.244c-0.414 0-0.764 0.268-0.889 0.64l-0.002 0.007c-0.163 0.523-0.357 0.973-0.591 1.398l0.019-0.038c-0.071 0.13-0.113 0.285-0.113 0.449 0 0.26 0.104 0.495 0.272 0.667l-0-0 2.306 2.297-2.653 2.653-2.297-2.306c-0.172-0.168-0.407-0.272-0.666-0.272-0.164 0-0.319 0.042-0.454 0.115l0.005-0.003c-0.386 0.215-0.837 0.409-1.307 0.558l-0.053 0.014c-0.378 0.126-0.647 0.477-0.647 0.891v3.244h-3.75v-3.244c-0-0.414-0.268-0.764-0.64-0.889l-0.007-0.002c-0.523-0.163-0.973-0.357-1.398-0.591l0.038 0.019c-0.13-0.071-0.285-0.113-0.449-0.113-0.26 0-0.495 0.104-0.667 0.272l0-0-2.297 2.306-2.653-2.653 2.306-2.297c0.168-0.172 0.272-0.407 0.272-0.666 0-0.164-0.042-0.319-0.115-0.454l0.003 0.005c-0.215-0.386-0.409-0.837-0.558-1.307l-0.014-0.053c-0.126-0.378-0.477-0.647-0.891-0.647h-3.244v-3.75h3.244c0.414-0 0.764-0.268 0.889-0.64l0.002-0.007c0.163-0.523 0.357-0.973 0.591-1.398l-0.019 0.038c0.071-0.13 0.113-0.285 0.113-0.449 0-0.26-0.104-0.495-0.272-0.667l0 0-2.306-2.297 2.653-2.653 2.297 2.306c0.172 0.168 0.407 0.272 0.666 0.272 0.164 0 0.319-0.042 0.454-0.115l-0.005 0.003c0.386-0.215 0.837-0.409 1.307-0.558l0.052-0.014c0.378-0.126 0.647-0.477 0.647-0.891v-3.244h3.75v3.244c0 0.414 0.268 0.764 0.64 0.889l0.007 0.002c0.523 0.163 0.973 0.357 1.398 0.591l-0.038-0.019c0.13 0.071 0.285 0.113 0.449 0.113 0.26 0 0.495-0.104 0.667-0.272l-0 0 2.297-2.306 2.653 2.653-2.306 2.297c-0.168 0.172-0.272 0.407-0.272 0.666 0 0.164 0.042 0.319 0.115 0.454l-0.003-0.005c0.215 0.386 0.409 0.837 0.558 1.307l0.014 0.053c0.126 0.378 0.477 0.647 0.891 0.647h3.244zM35.625 19.688c0-3.107-2.518-5.625-5.625-5.625s-5.625 2.518-5.625 5.625c0 3.107 2.518 5.625 5.625 5.625v0c3.105-0.003 5.622-2.52 5.625-5.625v-0zM26.25 19.688c0-2.071 1.679-3.75 3.75-3.75s3.75 1.679 3.75 3.75c0 2.071-1.679 3.75-3.75 3.75v0c-2.071 0-3.75-1.679-3.75-3.75v0zM51.563 21.563h-1.875c0-10.873-8.814-19.688-19.688-19.688s-19.688 8.814-19.688 19.688v0h-1.875c-3.107 0-5.625 2.518-5.625 5.625s2.518 5.625 5.625 5.625v0h4.688c0.518 0 0.938-0.42 0.938-0.938v0-9.375c0-0.518-0.42-0.938-0.938-0.938v0h-0.938c0-9.838 7.975-17.813 17.813-17.813s17.813 7.975 17.813 17.813v0h-0.938c-0.518 0-0.938 0.42-0.938 0.938v0 9.375c0 0.518 0.42 0.938 0.938 0.938v0h0.938v2.813c0 0.518-0.42 0.938-0.938 0.938v0h-6.731c-0.399-1.098-1.431-1.869-2.643-1.875h-1.876c-1.553 0-2.813 1.259-2.813 2.813s1.259 2.813 2.813 2.813v0h1.875c1.213-0.006 2.245-0.777 2.637-1.855l0.006-0.020h6.731c1.551-0.005 2.808-1.261 2.813-2.812v-2.813h1.875c3.107 0 5.625-2.518 5.625-5.625s-2.518-5.625-5.625-5.625v0zM8.438 30.938c-2.071 0-3.75-1.679-3.75-3.75s1.679-3.75 3.75-3.75v0zM12.188 30.938h-1.875v-7.5h1.875zM37.5 38.438h-1.875c-0.518 0-0.938-0.42-0.938-0.938s0.42-0.938 0.938-0.938v0h1.875c0.518 0 0.938 0.42 0.938 0.938s-0.42 0.938-0.938 0.938v0zM49.688 30.938h-1.875v-7.5h1.875zM51.563 30.938v-7.5c2.071 0 3.75 1.679 3.75 3.75s-1.679 3.75-3.75 3.75v0z"></path>
</svg>
