<!-- Generated by IcoMoon.io -->
<svg version="1.1" xmlns="http://www.w3.org/2000/svg" width="62" height="62" viewBox="0 0 62 62">
<title>-technology</title>
<path fill="#fff" d="M2.569 25.578c-1.267 0.206-2.248 1.222-2.408 2.495-0.213 1.929-0.215 3.876-0.006 5.806 0.145 1.294 1.132 2.334 2.416 2.547l3.288 0.538c0.631 2.689 1.697 5.257 3.155 7.602l-1.935 2.703c-0.771 1.046-0.753 2.477 0.045 3.502 0.616 0.754 1.271 1.474 1.963 2.159 0.635 0.635 1.336 1.274 2.178 1.982 1.017 0.782 2.429 0.799 3.464 0.040l2.717-1.949c2.343 1.458 4.909 2.524 7.595 3.156l0.539 3.293c0.205 1.268 1.221 2.249 2.495 2.409 0.589 0.066 1.187 0.113 1.79 0.137h0.088c0.539-0 1.056-0.208 1.447-0.579 0.406-0.388 0.635-0.925 0.633-1.486v-8.281c-0.006-1.106-0.88-2.014-1.985-2.061-9.89-0.516-17.645-8.686-17.645-18.59s7.754-18.074 17.645-18.59c1.107-0.049 1.981-0.958 1.985-2.067v-8.277c0.002-0.562-0.228-1.099-0.635-1.487-0.406-0.398-0.96-0.609-1.528-0.58-0.601 0.024-1.198 0.067-1.809 0.129-1.273 0.164-2.285 1.151-2.48 2.42l-0.538 3.29c-2.686 0.633-5.252 1.699-7.595 3.157l-2.717-1.945c-1.045-0.764-2.47-0.741-3.489 0.056-0.749 0.613-1.466 1.265-2.148 1.952-0.703 0.687-1.365 1.415-1.982 2.18-0.788 1.018-0.809 2.435-0.050 3.476l1.948 2.72c-1.457 2.345-2.521 4.913-3.151 7.601zM7.728 26.155c0.601-2.919 1.753-5.695 3.396-8.182 0.235-0.358 0.226-0.823-0.024-1.171l-2.357-3.291c-0.218-0.288-0.224-0.683-0.016-0.978 0.566-0.702 1.174-1.37 1.82-2 0.627-0.634 1.286-1.235 1.974-1.802 0.296-0.226 0.706-0.226 1.002 0l3.286 2.358c0.348 0.249 0.814 0.258 1.171 0.022 2.484-1.643 5.26-2.796 8.177-3.397 0.419-0.086 0.742-0.423 0.811-0.845l0.65-3.979c0.047-0.357 0.321-0.642 0.676-0.702 0.547-0.057 1.1-0.097 1.673-0.12l-0.023 8.278c-11.001 0.562-19.631 9.649-19.625 20.664s8.646 20.093 19.648 20.643l-0.014 8.281c-0.555-0.023-1.105-0.066-1.647-0.127-0.357-0.052-0.636-0.333-0.686-0.69l-0.651-3.981c-0.069-0.423-0.392-0.759-0.811-0.845-2.917-0.601-5.693-1.754-8.177-3.398-0.357-0.236-0.823-0.227-1.171 0.023l-3.289 2.36c-0.281 0.218-0.67 0.229-0.962 0.026-0.76-0.64-1.418-1.24-2.011-1.832-0.634-0.626-1.235-1.284-1.801-1.972-0.223-0.298-0.223-0.707 0-1.004l2.355-3.288c0.249-0.348 0.258-0.813 0.023-1.171-1.642-2.486-2.795-5.263-3.396-8.181-0.086-0.419-0.422-0.742-0.844-0.811l-3.978-0.652c-0.37-0.061-0.655-0.362-0.695-0.735-0.194-1.777-0.191-3.571 0.006-5.347 0.051-0.357 0.332-0.637 0.689-0.688l3.977-0.651c0.424-0.069 0.76-0.394 0.845-0.815zM58.899 27.902c-1.309 0.005-2.473 0.833-2.91 2.067h-23.957v-3.1h16.533c1.712 0 3.1-1.388 3.1-3.1v-5.357c1.423-0.503 2.277-1.959 2.022-3.447s-1.546-2.576-3.055-2.576-2.8 1.088-3.055 2.576 0.599 2.944 2.022 3.447v5.357c0 0.571-0.463 1.033-1.033 1.033h-16.533v-3.1h11.367c0.571 0 1.033-0.463 1.033-1.033s-0.463-1.033-1.033-1.033h-11.367v-2.067h6.2c1.712 0 3.1-1.388 3.1-3.1v-6.39c1.423-0.503 2.277-1.959 2.022-3.447s-1.546-2.576-3.055-2.576-2.8 1.088-3.055 2.576 0.599 2.944 2.022 3.447v6.39c0 0.571-0.463 1.033-1.033 1.033h-6.473c-0.356-0.661-1.065-1.052-1.813-1-8.708 0.552-15.488 7.775-15.488 16.5s6.78 15.949 15.488 16.5h0.121c0.706 0.006 1.357-0.379 1.693-1h6.473c0.571 0 1.033 0.463 1.033 1.033v6.39c-1.423 0.503-2.277 1.959-2.022 3.447s1.546 2.576 3.055 2.576 2.8-1.088 3.055-2.576-0.599-2.944-2.022-3.447v-6.39c0-1.712-1.388-3.1-3.1-3.1h-6.2v-2.067h11.367c0.571 0 1.033-0.463 1.033-1.033s-0.463-1.033-1.033-1.033h-11.367v-3.1h16.533c0.571 0 1.033 0.463 1.033 1.033v5.357c-1.423 0.503-2.277 1.959-2.022 3.447s1.546 2.576 3.055 2.576 2.8-1.088 3.055-2.576-0.599-2.944-2.022-3.447v-5.357c0-1.712-1.388-3.1-3.1-3.1h-16.533v-3.1h23.957c0.528 1.482 2.084 2.333 3.617 1.976s2.554-1.807 2.373-3.37c-0.181-1.563-1.506-2.742-3.080-2.739zM50.633 14.469c0.571 0 1.033 0.463 1.033 1.033s-0.463 1.033-1.033 1.033-1.033-0.463-1.033-1.033 0.463-1.033 1.033-1.033zM40.3 4.136c0.571 0 1.033 0.463 1.033 1.033s-0.463 1.033-1.033 1.033-1.033-0.463-1.033-1.033 0.463-1.033 1.033-1.033zM40.3 57.869c-0.571 0-1.033-0.463-1.033-1.033s0.463-1.033 1.033-1.033 1.033 0.463 1.033 1.033-0.463 1.033-1.033 1.033zM50.633 47.536c-0.571 0-1.033-0.463-1.033-1.033s0.463-1.033 1.033-1.033 1.033 0.463 1.033 1.033-0.463 1.033-1.033 1.033zM16.533 31.002c0.009-7.585 5.868-13.879 13.433-14.429v28.859c-7.565-0.55-13.425-6.844-13.433-14.429zM58.899 32.036c-0.571 0-1.033-0.463-1.033-1.033s0.463-1.033 1.033-1.033 1.033 0.463 1.033 1.033-0.463 1.033-1.033 1.033z"></path>
</svg>
