<!-- Generated by IcoMoon.io -->
<svg version="1.1" xmlns="http://www.w3.org/2000/svg" width="65" height="65" viewBox="0 0 65 65">
<title>-solution</title>
<path fill="#3c72fc" d="M48.094 11.488c-0.566 0.334-0.755 1.064-0.422 1.631 1.586 2.697 2.424 5.786 2.424 8.933 0 5.459-2.466 10.521-6.765 13.892-2.437 1.911-4.183 4.561-4.986 7.54h-11.739c-0.802-2.98-2.546-5.629-4.979-7.534-4.303-3.37-6.771-8.435-6.771-13.896-0.001-9.723 7.901-17.635 17.614-17.638h0.005c3.126 0 6.197 0.83 8.88 2.4 0.568 0.332 1.297 0.141 1.628-0.427s0.141-1.297-0.427-1.63c-3.046-1.783-6.533-2.725-10.081-2.725-0.002 0-0.004 0-0.006 0-11.024 0.004-19.993 8.985-19.993 20.020 0 6.199 2.801 11.947 7.685 15.772 1.946 1.524 3.362 3.619 4.063 5.984-1.443 0.619-2.457 2.055-2.457 3.724 0 1.905 1.321 3.506 3.093 3.936v3.926c0 4.204 3.416 7.623 7.616 7.623s7.615-3.42 7.615-7.623v-3.926c1.773-0.43 3.094-2.031 3.094-3.936 0-1.669-1.014-3.105-2.457-3.724 0.702-2.363 2.12-4.46 4.070-5.989 4.879-3.825 7.677-9.572 7.677-15.768 0-3.572-0.951-7.079-2.753-10.141-0.334-0.567-1.063-0.756-1.629-0.423zM37.712 54.203h-10.471v-2.621h10.471zM32.477 60.635c-2.478 0-4.557-1.732-5.098-4.049h10.195c-0.54 2.318-2.62 4.049-5.097 4.049zM39.141 49.201h-13.327c-0.919 0-1.666-0.748-1.666-1.668s0.748-1.668 1.666-1.668h13.327c0.919 0 1.665 0.748 1.665 1.668s-0.747 1.668-1.665 1.668zM44.946 9.592c0.233 0.235 0.538 0.352 0.844 0.352 0.303 0 0.607-0.115 0.839-0.346 0.234-0.233 0.351-0.538 0.351-0.845 0-0.303-0.115-0.607-0.346-0.84l-0.010-0.010c-0.463-0.466-1.216-0.469-1.683-0.006-0.234 0.233-0.351 0.538-0.351 0.844-0.001 0.304 0.115 0.608 0.345 0.84zM42.065 32.028c0.237-0.452 0.362-0.963 0.362-1.476v-4.077c0-0.6-0.33-1.147-0.86-1.428s-1.168-0.244-1.663 0.095c-0.27 0.185-0.588 0.283-0.919 0.283h-0.117c-0.901 0-1.635-0.734-1.635-1.636s0.733-1.636 1.635-1.636h0.117c0.33 0 0.648 0.098 0.919 0.283 0.495 0.338 1.132 0.375 1.663 0.095s0.86-0.828 0.86-1.428v-4.073c0-1.755-1.427-3.183-3.181-3.183h-2.939c0.131-0.4 0.199-0.821 0.199-1.245v-0.117c0-2.216-1.801-4.018-4.014-4.018s-4.015 1.802-4.015 4.018v0.117c0 0.424 0.068 0.845 0.199 1.245h-2.939c-1.754 0-3.181 1.428-3.181 3.183v4.077c0 0.601 0.33 1.148 0.86 1.428s1.168 0.244 1.663-0.095c0.27-0.185 0.588-0.283 0.919-0.283h0.117c0.901 0 1.635 0.734 1.635 1.636s-0.733 1.636-1.635 1.636h-0.117c-0.33 0-0.648-0.098-0.919-0.284-0.495-0.338-1.132-0.375-1.663-0.094s-0.86 0.828-0.86 1.428v4.072c0 1.755 1.427 3.183 3.181 3.183h2.939c-0.13 0.4-0.199 0.821-0.199 1.245v0.117c0 2.216 1.801 4.018 4.015 4.018s4.014-1.802 4.014-4.018v-0.117c0-0.424-0.068-0.844-0.199-1.245h2.939c1.187 0 2.267-0.654 2.818-1.708zM35.042 31.354c-0.625 0-1.182 0.35-1.454 0.914-0.271 0.561-0.199 1.212 0.186 1.7 0.23 0.29 0.352 0.641 0.352 1.014v0.117c0 0.902-0.733 1.635-1.635 1.635s-1.634-0.734-1.634-1.635v-0.117c0-0.372 0.121-0.723 0.351-1.014 0.386-0.487 0.457-1.139 0.187-1.7-0.272-0.564-0.829-0.914-1.455-0.914h-4.204c-0.441 0-0.801-0.36-0.801-0.801v-2.883c0.343 0.094 0.7 0.142 1.062 0.142h0.117c2.214 0 4.015-1.803 4.015-4.018s-1.801-4.019-4.015-4.019h-0.117c-0.362 0-0.719 0.048-1.062 0.143v-2.888c0-0.442 0.36-0.802 0.801-0.802h4.204c0.625 0 1.182-0.35 1.455-0.914 0.271-0.561 0.199-1.213-0.187-1.7-0.23-0.29-0.351-0.641-0.351-1.014v-0.117c0-0.902 0.733-1.636 1.634-1.636s1.635 0.734 1.635 1.636v0.117c0 0.372-0.122 0.723-0.352 1.014-0.386 0.487-0.457 1.138-0.186 1.7 0.272 0.563 0.829 0.914 1.454 0.914h4.204c0.441 0 0.801 0.36 0.801 0.802v2.883c-0.343-0.094-0.7-0.142-1.062-0.142h-0.117c-2.213 0-4.014 1.802-4.014 4.018s1.801 4.019 4.014 4.019h0.117c0.362 0 0.719-0.048 1.062-0.143v2.888c0 0.131-0.030 0.256-0.090 0.37-0.139 0.266-0.411 0.431-0.71 0.431zM55.323 17.861c0.305 0 0.609-0.117 0.842-0.349l1.812-1.813c0.465-0.465 0.465-1.219 0-1.684s-1.218-0.465-1.683 0l-1.812 1.814c-0.465 0.465-0.465 1.219 0 1.684 0.232 0.233 0.537 0.349 0.841 0.349zM56.165 26.516c-0.465-0.465-1.218-0.465-1.683 0s-0.465 1.219 0 1.684l1.812 1.814c0.232 0.233 0.537 0.349 0.841 0.349s0.609-0.116 0.841-0.349c0.465-0.465 0.465-1.219 0-1.684zM61.749 20.823h-6.289c-0.657 0-1.19 0.534-1.19 1.191s0.533 1.191 1.19 1.191h6.289c0.657 0 1.19-0.534 1.19-1.191s-0.533-1.191-1.19-1.191zM8.647 14.014c-0.465-0.465-1.218-0.465-1.683 0s-0.464 1.219 0 1.685l1.812 1.814c0.232 0.232 0.537 0.348 0.841 0.348s0.609-0.117 0.841-0.348c0.465-0.465 0.465-1.219 0-1.685zM8.776 26.516l-1.812 1.813c-0.464 0.465-0.464 1.219 0 1.684 0.232 0.233 0.537 0.349 0.842 0.349s0.609-0.116 0.841-0.349l1.811-1.814c0.465-0.465 0.465-1.219 0-1.684s-1.218-0.465-1.682 0zM10.67 22.014c0-0.657-0.533-1.191-1.19-1.191h-6.289c-0.657 0-1.19 0.534-1.19 1.191s0.533 1.191 1.19 1.191h6.289c0.657 0 1.19-0.534 1.19-1.191zM10.67 22.014"></path>
</svg>
