<!-- Generated by IcoMoon.io -->
<svg version="1.1" xmlns="http://www.w3.org/2000/svg" width="65" height="65" viewBox="0 0 65 65">
<title>-project-management</title>
<path fill="#d90a2c" d="M64.075 17.068c-0 0-0 0-0 0l-0.002-0.002-4.196-0.599c-0.59-0.084-1-0.63-0.916-1.22 0.040-0.283 0.192-0.539 0.421-0.711l3.391-2.543c0.477-0.357 0.573-1.033 0.216-1.51l-3.883-5.177c-0.357-0.477-1.033-0.573-1.51-0.216l-3.39 2.543c-0.475 0.36-1.151 0.267-1.511-0.207-0.175-0.23-0.25-0.521-0.208-0.808l0.6-4.196c0.085-0.59-0.325-1.136-0.914-1.221-0 0-0.001-0-0.001-0l-6.402-0.915c-0.59-0.085-1.136 0.325-1.221 0.914 0 0 0 0 0 0l-0.6 4.196c-0.084 0.59-0.63 1-1.22 0.916-0.283-0.040-0.539-0.192-0.711-0.421l-2.542-3.391c-0.357-0.477-1.033-0.573-1.51-0.216l-3.241 2.432c-1.466-0.156-2.945-0.156-4.411 0-9.603 1.098-17.133 8.756-18.069 18.375-0.029 0.305-0.040 0.608-0.055 0.911h-0.324c-0.512 0.001-0.952 0.361-1.055 0.863l-0.745 3.544-2.985-2.059c-0.428-0.296-1.007-0.243-1.375 0.125l-3.236 3.236c-0.368 0.368-0.42 0.946-0.125 1.374l2.049 2.98-3.545 0.745c-0.496 0.109-0.849 0.548-0.848 1.056v4.314c-0 0.51 0.357 0.951 0.856 1.056l3.545 0.745-2.049 2.98c-0.295 0.428-0.242 1.006 0.125 1.374l3.236 3.236c0.368 0.368 0.947 0.421 1.375 0.125l2.98-2.055 0.745 3.545c0.102 0.501 0.543 0.862 1.055 0.863h4.314c0.51 0 0.951-0.357 1.056-0.856l0.745-3.545 2.98 2.049c0.428 0.295 1.006 0.242 1.374-0.125l1.675-1.68v3.074c0.005 1.534 0.827 2.95 2.157 3.715v5.992c0 2.383 1.932 4.314 4.314 4.314h4.314c2.383 0 4.314-1.932 4.314-4.314v-5.992c1.33-0.765 2.152-2.18 2.157-3.715v-4.269c0.029-1.796 0.969-3.454 2.495-4.403 0.895-0.581 1.744-1.23 2.539-1.941l-1.439-1.607c-0.711 0.637-1.471 1.218-2.273 1.738-2.142 1.344-3.453 3.685-3.479 6.214v4.269c0 1.191-0.966 2.157-2.157 2.157h-8.628c-1.191 0-2.157-0.966-2.157-2.157v-4.358c-0.025-2.481-1.315-4.776-3.421-6.087-8.548-5.371-11.124-16.656-5.753-25.204 3.333-5.304 9.149-8.532 15.413-8.554-0.016 0.038-0.030 0.078-0.042 0.118-0.040 0.283 0.034 0.571 0.206 0.799l2.542 3.39c0.268 0.347 0.294 0.823 0.065 1.197-0.221 0.376-0.647 0.581-1.079 0.519l-4.196-0.6c-0.59-0.085-1.136 0.325-1.221 0.914 0 0-0 0.001-0 0.001l-0.916 6.405c-0.085 0.59 0.325 1.136 0.914 1.221 0 0 0.001 0 0.001 0l4.196 0.6c0.59 0.084 1 0.63 0.916 1.22-0.040 0.283-0.192 0.539-0.421 0.711l-3.39 2.542c-0.477 0.357-0.573 1.033-0.216 1.51l3.883 5.177c0.357 0.477 1.033 0.573 1.51 0.216l3.391-2.542c0.477-0.357 1.153-0.259 1.51 0.218 0.171 0.228 0.244 0.515 0.204 0.797l-0.599 4.196c-0.085 0.59 0.325 1.136 0.914 1.221 0 0 0 0 0 0l6.407 0.916c0.050 0.006 0.101 0.010 0.152 0.010 0.537 0.001 0.993-0.394 1.069-0.925l0.599-4.196c0.084-0.59 0.63-1 1.22-0.916 0.283 0.040 0.539 0.192 0.711 0.421l2.543 3.39c0.357 0.477 1.033 0.573 1.51 0.216l5.177-3.883c0.477-0.357 0.573-1.033 0.216-1.51l-2.542-3.39c-0.267-0.347-0.293-0.823-0.065-1.197 0.216-0.381 0.646-0.588 1.079-0.518l4.196 0.599c0.59 0.085 1.136-0.325 1.221-0.914 0-0 0-0 0-0l0.915-6.407c0.085-0.59-0.325-1.136-0.914-1.221zM28.327 55.284h8.628v2.157h-8.628v-2.157zM28.327 59.598h8.628v1.079c0 1.191-0.966 2.157-2.157 2.157h-4.314c-1.191 0-2.157-0.966-2.157-2.157v-1.079zM19.741 40.998c0.589 0.482 1.204 0.93 1.843 1.343 1.019 0.644 1.786 1.618 2.173 2.76l-2.313 2.309-2.24-1.544c-0.981-0.676-2.324-0.429-3 0.552-0.162 0.235-0.276 0.5-0.335 0.78l-0.565 2.693h-2.564l-0.565-2.689c-0.245-1.166-1.389-1.912-2.555-1.667-0.279 0.059-0.545 0.173-0.78 0.335l-2.241 1.54-1.965-1.961 1.543-2.239c0.677-0.981 0.43-2.324-0.55-3.001-0.235-0.162-0.501-0.277-0.781-0.335l-2.689-0.566v-2.563l2.689-0.566c1.165-0.247 1.91-1.392 1.663-2.558-0.059-0.277-0.171-0.539-0.331-0.772l-1.544-2.246 1.965-1.961 2.242 1.544c0.981 0.675 2.325 0.427 3-0.554 0.162-0.235 0.275-0.5 0.334-0.779l0.189-0.897c0.173 1.243 0.459 2.467 0.855 3.657-3.549 0.423-6.083 3.643-5.66 7.192s3.643 6.083 7.192 5.66c2.136-0.255 4.006-1.555 4.99-3.468zM18.066 39.478c-0.805 2.239-3.273 3.401-5.512 2.595s-3.401-3.273-2.595-5.512c0.616-1.713 2.242-2.853 4.062-2.85 0.014 0 0.027 0 0.041 0 0.992 2.139 2.346 4.089 4.004 5.766zM62.085 23.32l-3.128-0.446c-1.769-0.253-3.408 0.977-3.661 2.746-0.121 0.85 0.1 1.712 0.615 2.399l1.895 2.527-3.451 2.589-1.896-2.526c-1.072-1.43-3.1-1.72-4.53-0.648-0.686 0.515-1.14 1.281-1.262 2.131l-0.437 3.132-4.27-0.61 0.446-3.128c0.253-1.769-0.975-3.408-2.744-3.662-0.85-0.122-1.713 0.099-2.4 0.615l-2.527 1.895-2.589-3.451 2.526-1.896c1.43-1.072 1.72-3.1 0.648-4.53-0.515-0.686-1.281-1.14-2.131-1.262l-3.128-0.446 0.61-4.27 3.128 0.446c1.769 0.253 3.408-0.975 3.662-2.744 0.122-0.85-0.099-1.713-0.615-2.4l-1.902-2.529 3.451-2.589 1.896 2.527c1.072 1.43 3.1 1.72 4.53 0.648 0.686-0.515 1.14-1.281 1.262-2.131l0.446-3.128 4.27 0.609-0.446 3.128c-0.253 1.769 0.977 3.408 2.746 3.661 0.85 0.121 1.712-0.1 2.399-0.615l2.527-1.895 2.589 3.451-2.527 1.896c-1.43 1.072-1.72 3.1-0.648 4.53 0.515 0.686 1.281 1.14 2.131 1.262l3.128 0.446-0.614 4.269zM46.378 10.269c-4.765 0-8.628 3.863-8.628 8.628s3.863 8.628 8.628 8.628c4.765 0 8.628-3.863 8.628-8.628-0.005-4.763-3.865-8.623-8.628-8.628zM46.378 25.369c-3.574 0-6.471-2.897-6.471-6.471s2.897-6.471 6.471-6.471c3.574 0 6.471 2.897 6.471 6.471-0.004 3.572-2.899 6.467-6.471 6.471zM31.563 47.734h2.157v3.236h-2.157v-3.236zM27.924 37.141c-6.658-2.601-9.947-10.107-7.346-16.765 1.008-2.58 2.817-4.768 5.161-6.244l-1.153-1.825c-7.056 4.445-9.172 13.768-4.727 20.824 1.721 2.733 4.274 4.841 7.282 6.016 2.663 1.020 4.421 3.576 4.422 6.428h2.157c0.003-3.741-2.302-7.097-5.796-8.435zM53.134 40.184h7.55v2.157h-7.55v-2.157zM51.365 47.483l1.381-1.657 6.472 5.392-1.381 1.657-6.472-5.392zM46.662 48.812h2.157v7.55h-2.157v-7.55zM1.101 18.644l8.628-2.157 0.523 2.092-8.628 2.157-0.523-2.092zM2.893 7.627l1.253-1.754 7.549 5.392-1.253 1.754-7.549-5.392zM12.134 0.543l2.090-0.534 2.206 8.628-2.090 0.534-2.206-8.628z"></path>
</svg>
