<!-- Generated by IcoMoon.io -->
<svg version="1.1" xmlns="http://www.w3.org/2000/svg" width="65" height="65" viewBox="0 0 65 65">
<title>-ux-design</title>
<path fill="#d90a2c" d="M57.2 9.898c1.29 0 2.334-1.044 2.334-2.334s-1.044-2.334-2.334-2.334-2.334 1.044-2.334 2.334 1.054 2.334 2.334 2.334zM57.2 6.894c0.374 0 0.68 0.305 0.68 0.68s-0.305 0.68-0.68 0.68c-0.384 0-0.68-0.295-0.68-0.68s0.305-0.68 0.68-0.68zM59.79 1.458h-47.982c-1.822 0-3.309 1.487-3.309 3.309v5.052h-3.289c-1.822 0-3.309 1.487-3.309 3.309v41.492c0 1.822 1.487 3.309 3.309 3.309h21.992v4.786c0 0.453 0.374 0.827 0.827 0.827h15.541c0.453 0 0.827-0.374 0.827-0.827v-4.786h8.795c1.822 0 3.309-1.487 3.309-3.309v-5.052h3.289c1.822 0 3.309-1.487 3.309-3.309v-41.492c0-1.822-1.487-3.309-3.309-3.309zM10.154 4.767c0-0.916 0.749-1.655 1.655-1.655h47.982c0.916 0 1.655 0.749 1.655 1.655v7.258h-31.397l-3.693-3.831c-0.286-0.295-0.68-0.463-1.083-0.463h-8.135c-0.827 0-1.507 0.68-1.507 1.507v2.787h-5.476zM5.21 56.284c-0.916 0-1.655-0.749-1.655-1.655v-41.501c0-0.916 0.749-1.655 1.655-1.655h3.289v34.795c0 1.822 1.487 3.309 3.309 3.309h17.964c0.325 0.63 0.473 1.339 0.414 2.068h-1.28c-0.945 0-1.704 0.768-1.704 1.704v2.935zM34.982 38.961c0.167-0.295 0.473-0.483 0.817-0.483 0.512 0 0.926 0.414 0.926 0.926 0 0.335-0.177 0.64-0.463 0.808-0.315 0.187-0.689 0.167-1.074-0.049-0.049-0.030-0.099-0.069-0.118-0.118-0.315-0.502-0.187-0.896-0.089-1.083zM34.972 36.981c-0.601 0.207-1.113 0.611-1.428 1.182-0.473 0.847-0.414 1.881 0.138 2.767 0.177 0.276 0.414 0.502 0.699 0.67 0.453 0.256 0.945 0.394 1.428 0.394 0.453 0 0.896-0.118 1.29-0.345 0.788-0.463 1.28-1.32 1.28-2.236 0-1.133-0.739-2.088-1.753-2.433v-4.255l7.317 13.207c-0.010 0.010-0.020 0.030-0.049 0.039-2.59 0.67-4.284 3.092-4.146 5.673h-7.889c0.148-2.59-1.556-5.013-4.195-5.751l7.308-13.167zM42.742 61.888h-13.886l0.049-8.598h13.788c0.030 0 0.049 0.020 0.049 0.049zM54.846 54.62c0 0.916-0.749 1.655-1.655 1.655h-8.795v-2.935c0-0.945-0.768-1.704-1.704-1.704h-1.28c-0.059-0.729 0.099-1.438 0.414-2.068h13.020zM59.79 47.923h-16.358c0.266-0.148 0.551-0.276 0.867-0.355 0.522-0.138 0.945-0.502 1.162-0.995 0.207-0.483 0.177-1.024-0.079-1.487l-8.47-15.255c-0.217-0.404-0.64-0.66-1.103-0.66-0.473 0.010-0.896 0.246-1.123 0.65l-8.48 15.265c-0.256 0.463-0.276 1.014-0.069 1.497 0.207 0.492 0.63 0.847 1.152 0.985 0.315 0.079 0.591 0.207 0.867 0.355h-16.349c-0.916 0-1.655-0.749-1.655-1.655v-32.589h5.614c0.827 0 1.507-0.68 1.507-1.507v-2.787h7.928l3.693 3.831c0.286 0.295 0.68 0.463 1.083 0.463h31.466v32.579c0 0.916-0.739 1.664-1.655 1.664zM51.567 9.898c1.29 0 2.334-1.044 2.334-2.334s-1.044-2.334-2.334-2.334-2.334 1.044-2.334 2.334 1.044 2.334 2.334 2.334zM51.567 6.894c0.374 0 0.68 0.305 0.68 0.68s-0.305 0.68-0.68 0.68c-0.384 0-0.68-0.295-0.68-0.68s0.305-0.68 0.68-0.68zM45.924 9.898c1.29 0 2.334-1.044 2.334-2.334s-1.044-2.334-2.334-2.334-2.334 1.044-2.334 2.334 1.044 2.334 2.334 2.334zM45.924 6.894c0.374 0 0.68 0.305 0.68 0.68s-0.305 0.68-0.68 0.68c-0.384 0-0.68-0.295-0.68-0.68s0.305-0.68 0.68-0.68zM51.744 20.889c-0.483 0.483-0.788 1.093-0.906 1.743h-11.572v-1.3c0-0.886-0.719-1.605-1.605-1.605h-3.733c-0.886 0-1.605 0.719-1.605 1.605v1.3h-11.562c-0.108-0.64-0.414-1.251-0.906-1.753-1.251-1.231-3.388-1.211-4.609 0.010-0.62 0.62-0.955 1.438-0.955 2.305 0 0.876 0.345 1.704 0.955 2.305 0.62 0.64 1.448 0.965 2.305 0.965 0.542 0 1.093-0.128 1.615-0.394 0.561-0.286 1.024-0.758 1.3-1.339 0.069-0.148 0.128-0.295 0.177-0.443h8.026c-4.363 2.127-7.652 6.126-8.795 10.951h-1.28c-0.886 0-1.605 0.719-1.605 1.605v3.733c0 0.886 0.719 1.605 1.605 1.605h3.733c0.886 0 1.605-0.719 1.605-1.605v-3.733c0-0.886-0.719-1.605-1.605-1.605h-0.749c1.379-5.2 5.545-9.277 10.774-10.538v0.355c0 0.886 0.719 1.605 1.605 1.605h3.733c0.886 0 1.605-0.719 1.605-1.605v-0.355c5.22 1.261 9.386 5.338 10.774 10.538h-0.68c-0.886 0-1.605 0.719-1.605 1.605v3.733c0 0.886 0.719 1.605 1.605 1.605h3.733c0.886 0 1.605-0.719 1.605-1.605v-3.733c0-0.886-0.719-1.605-1.605-1.605h-1.349c-1.152-4.826-4.442-8.834-8.795-10.951h8.046c0.158 0.453 0.414 0.867 0.758 1.211 0.62 0.64 1.448 0.965 2.305 0.965 0.542 0 1.093-0.128 1.615-0.394 0.561-0.286 1.024-0.758 1.3-1.339 0.64-1.349 0.414-2.817-0.601-3.851-1.29-1.221-3.427-1.211-4.658 0.010zM18.958 24.030c-0.118 0.236-0.315 0.443-0.551 0.561-0.857 0.433-1.595 0.158-1.999-0.266-0.305-0.295-0.473-0.699-0.473-1.133 0-0.424 0.167-0.827 0.473-1.142 0.305-0.305 0.709-0.473 1.142-0.473 0.424 0 0.837 0.167 1.133 0.463 0.512 0.532 0.611 1.27 0.276 1.989zM22.307 40.526l-3.683 0.049-0.049-3.683h3.683zM53.093 40.526l-3.683 0.049-0.049-3.683h3.683zM33.987 25.064l-0.020-1.241c0.020-0.089 0.020-0.177 0.010-0.276v-0.010c0-0.030 0.020-0.049 0.020-0.079 0-0.049-0.020-0.089-0.030-0.128l-0.030-1.94h3.683l0.030 1.94c-0.010 0.049-0.030 0.089-0.030 0.138 0 0.030 0.010 0.049 0.020 0.079v0.010c-0.020 0.128-0.010 0.246 0.020 0.355l0.020 1.113zM55.467 24.030c-0.118 0.236-0.315 0.443-0.551 0.561-0.857 0.433-1.595 0.158-1.999-0.266-0.305-0.295-0.473-0.699-0.473-1.133 0-0.424 0.167-0.827 0.473-1.142 0.305-0.305 0.709-0.473 1.142-0.473 0.424 0 0.837 0.167 1.133 0.463 0.512 0.532 0.611 1.27 0.276 1.989z"></path>
</svg>
