<!-- Generated by IcoMoon.io -->
<svg version="1.1" xmlns="http://www.w3.org/2000/svg" width="65" height="65" viewBox="0 0 65 65">
<title>-search-engine</title>
<path fill="#d90a2c" d="M52.856 14.172l-3.091-3.091-3.091 3.091-1.436-1.436 4.527-4.527 4.527 4.527zM48.75 10.153h2.031v11.172h-2.031zM54.844 34.528h-2.031v-4.368c7.663-1.564 12.897-8.676 12.11-16.458s-7.336-13.703-15.157-13.703-14.371 5.922-15.157 13.703c-0.787 7.781 4.447 14.894 12.11 16.458v4.368h-2.031v28.438h-4.063v-32.5h-10.156v32.5h-4.063v-24.375h-10.156v24.375h-4.063v-14.219h-10.156v14.219h-2.031v2.031h65v-2.031h-10.156zM10.156 62.966h-6.094v-12.188h6.094zM24.375 62.966h-6.094v-22.344h6.094zM38.594 62.966h-6.094v-30.469h6.094zM36.563 15.231c0-7.047 5.534-12.852 12.573-13.188s13.101 4.914 13.773 11.928c0.672 7.015-4.283 13.321-11.257 14.327l-0.87 0.125v6.104h-2.031v-6.104l-0.87-0.125c-6.483-0.963-11.29-6.514-11.317-13.068zM52.813 62.966h-6.094v-26.406h6.094zM60.938 15.231c0-6.17-5.002-11.172-11.172-11.172s-11.172 5.002-11.172 11.172c0 6.17 5.002 11.172 11.172 11.172 6.167-0.007 11.164-5.005 11.172-11.172zM40.625 15.231c0-5.048 4.092-9.141 9.141-9.141s9.141 4.092 9.141 9.141c0 5.048-4.092 9.141-9.141 9.141-5.046-0.006-9.135-4.095-9.141-9.141zM14.616 34.528h7.133l8.72-8.72v2.626h2.031v-6.094h-6.094v2.031h2.626l-8.125 8.125h-7.086l-13.496 12.457 1.38 1.491zM58.906 34.528h6.094v2.031h-6.094zM58.906 38.591h6.094v2.031h-6.094zM58.906 42.653h6.094v2.031h-6.094zM58.906 46.716h6.094v2.031h-6.094zM58.906 50.778h6.094v2.031h-6.094zM58.906 54.841h6.094v2.031h-6.094zM58.906 58.903h6.094v2.031h-6.094zM58.906 58.903"></path>
</svg>
