<!-- Generated by IcoMoon.io -->
<svg version="1.1" xmlns="http://www.w3.org/2000/svg" width="65" height="65" viewBox="0 0 65 65">
<title>-data-visualization</title>
<path fill="#d90a2c" d="M39.096 2.007c-0.574 0-0.956 0.382-0.956 0.956v2.007c0 0.574 0.382 0.956 0.956 0.956s0.956-0.382 0.956-0.956v-2.007c0-0.478-0.382-0.956-0.956-0.956zM45.882 3.059l-1.434 1.721c-0.287 0.382-0.287 1.051 0.096 1.338s1.051 0.287 1.338-0.096l1.434-1.721c0.287-0.382 0.287-1.051-0.096-1.338-0.382-0.382-0.956-0.287-1.338 0.096zM30.971 2.963c-0.382 0.382-0.478 0.956-0.096 1.338l1.434 1.721c0.287 0.382 0.956 0.478 1.338 0.096s0.478-0.956 0.096-1.338l-1.434-1.721c-0.287-0.382-0.956-0.478-1.338-0.096zM1.912 16.154v24.757c0 0.574 0.382 0.956 0.956 0.956s0.956-0.382 0.956-0.956v-24.757c0-1.051 0.86-1.912 1.912-1.912h12.426c0.86 0 1.529 0.574 1.816 1.338l0.86 2.581c0.478 1.625 2.007 2.676 3.632 2.676h7.551c2.199 1.147 4.588 1.816 7.074 1.816h0.096c4.015 0 7.743-1.625 10.515-4.397l2.676-2.676c0.382-0.382 0.382-0.956 0-1.338l-2.676-2.676c-5.831-5.735-15.294-5.735-21.029 0.096l-2.676 2.676c-0.382 0.382-0.382 0.956 0 1.338l2.676 2.676c0.191 0.191 0.478 0.382 0.669 0.574h-4.779c-0.86 0-1.529-0.574-1.816-1.338l-0.86-2.581c-0.478-1.625-2.007-2.676-3.632-2.676h-12.522c-2.103 0-3.824 1.721-3.824 3.824zM27.912 14.912l2.007-2.007c5.066-5.066 13.287-5.066 18.353-0.096l2.007 2.007-2.007 2.007c-2.39 2.485-5.735 3.824-9.176 3.824 0 0 0 0-0.096 0-6.787 0-9.941-4.875-11.088-5.735zM63.088 30.206c0-2.199-1.816-4.015-4.015-4.015h-2.963c-0.574 0-0.956 0.382-0.956 0.956s0.382 0.956 0.956 0.956h2.963c1.147 0 2.103 0.956 2.103 2.103v28.772c0 1.147-0.956 2.103-2.103 2.103h-6.404v-21.316h3.441v16.728c0 0.574 0.382 0.956 0.956 0.956s0.956-0.382 0.956-0.956v-17.684c0-0.574-0.382-0.956-0.956-0.956h-5.353c-0.574 0-0.956 0.382-0.956 0.956v22.176h-3.346v-13c0-0.574-0.382-0.956-0.956-0.956h-5.353c-0.574 0-0.956 0.382-0.956 0.956v13.096h-8.794v-15.963h3.441v12.331c0 0.574 0.382 0.956 0.956 0.956s0.956-0.382 0.956-0.956v-13.287c0-0.574-0.382-0.956-0.956-0.956h-5.353c-0.574 0-0.956 0.382-0.956 0.956v16.919h-3.346v-8.029c0-0.574-0.382-0.956-0.956-0.956h-5.353c-0.574 0-0.956 0.382-0.956 0.956v8.029h-5.066c1.338-1.243 2.199-3.059 2.199-5.066v-25.809c0-1.147 0.956-2.103 2.103-2.103h28.39c0.574 0 0.956-0.382 0.956-0.956s-0.382-0.956-0.956-0.956h-28.39c-2.199 0-4.015 1.816-4.015 4.015v25.809c0 2.772-2.294 5.066-5.066 5.066s-5.162-2.294-5.162-5.066v-9.654c0-0.574-0.382-0.956-0.956-0.956s-0.956 0.382-0.956 0.956v9.654c0 3.824 3.154 6.978 6.978 6.978h50.184c2.199 0 4.015-1.816 4.015-4.015zM20.743 54.007h3.441v7.074h-3.441zM42.059 48.941h3.441v12.14h-3.441zM55.537 24.757c2.007 0 3.632-1.625 3.632-3.632s-1.625-3.632-3.632-3.632-3.632 1.625-3.632 3.632c0 0.956 0.382 1.816 0.956 2.39l-6.596 10.61c-0.382-0.096-0.765-0.191-1.243-0.191-1.434 0-2.581 0.765-3.154 2.007l-5.735-1.721c-0.096-1.912-1.625-3.441-3.537-3.441-2.007 0-3.632 1.625-3.632 3.632 0 0.478 0.096 0.86 0.287 1.243l-5.066 6.5c-0.478-0.287-1.051-0.382-1.625-0.382-2.007 0-3.632 1.625-3.632 3.632s1.625 3.632 3.632 3.632 3.632-1.625 3.632-3.632c0-0.669-0.191-1.338-0.574-1.912l4.779-6.213c0.574 0.478 1.338 0.765 2.199 0.765 1.338 0 2.581-0.765 3.154-1.912l5.735 1.721c0.096 1.912 1.721 3.346 3.537 3.346 2.007 0 3.632-1.625 3.632-3.632 0-0.86-0.287-1.625-0.86-2.294l6.691-10.706c0.287 0.096 0.669 0.191 1.051 0.191zM55.537 19.404c0.956 0 1.721 0.765 1.721 1.721s-0.765 1.721-1.721 1.721-1.721-0.765-1.721-1.721 0.765-1.721 1.721-1.721zM22.463 47.029c-0.956 0-1.721-0.765-1.721-1.721s0.765-1.721 1.721-1.721 1.721 0.765 1.721 1.721-0.765 1.721-1.721 1.721zM32.5 36.037c-0.956 0-1.721-0.765-1.721-1.721s0.765-1.721 1.721-1.721 1.721 0.765 1.721 1.721-0.765 1.721-1.721 1.721zM45.022 39.191c-0.956 0-1.721-0.765-1.721-1.721s0.765-1.721 1.721-1.721 1.721 0.765 1.721 1.721-0.765 1.721-1.721 1.721zM39 18.926c2.199 0 4.015-1.816 4.015-4.015s-1.816-4.015-4.015-4.015c-1.051 0-2.103 0.382-2.868 1.147s-1.147 1.721-1.147 2.868c0.096 2.199 1.816 4.015 4.015 4.015zM37.566 13.478c0.382-0.382 0.956-0.574 1.434-0.574 1.147 0 2.103 0.956 2.103 2.103s-0.956 2.103-2.103 2.103c-1.147 0-2.103-0.956-2.103-2.103 0-0.669 0.287-1.147 0.669-1.529z"></path>
</svg>
