<!-- Generated by IcoMoon.io -->
<svg version="1.1" xmlns="http://www.w3.org/2000/svg" width="66" height="66" viewBox="0 0 66 66">
<title>-consultant</title>
<path fill="#3c72fc" d="M14.226 42.464c-4.537 2.148-7.246 6.428-7.246 11.448v11.057c0 0.57 0.462 1.031 1.031 1.031h49.978c0.57 0 1.031-0.462 1.031-1.031v-11.057c0-5.020-2.709-9.3-7.246-11.448l-12.187-5.77-0.312-4.557c0.994-0.652 1.882-1.453 2.63-2.373h1.588c2.31 0 4.19-1.88 4.19-4.19v-0.677c1.583-1.057 2.617-2.785 2.617-4.736s-1.034-3.679-2.617-4.736v-0.743c0-8.096-6.586-14.682-14.682-14.682s-14.682 6.586-14.682 14.682v0.737c-1.633 1.083-2.617 2.832-2.617 4.742 0 3.21 2.798 5.821 6.237 5.821 0.038 0 0.076-0.003 0.115-0.003 0.809 2.563 2.495 4.74 4.705 6.178l-0.348 4.538zM38.803 38.604l3.493 1.654-2.35 5.442-5.306-3.976zM31.199 51.801h3.601l0.752 12.137h-5.104zM36.367 45.595l-1.346 4.143h-4.042l-1.377-4.239 3.319-2.487zM25.895 45.7l-2.323-5.379 3.528-1.67 4.101 3.073zM9.042 53.911c0-4.203 2.268-7.785 6.066-9.584l6.598-3.124 2.813 6.515c0.125 0.29 0.376 0.507 0.682 0.588 0.087 0.023 0.176 0.035 0.265 0.035 0.221 0 0.438-0.071 0.618-0.206l1.773-1.328 1.331 4.095-0.807 13.036h-19.339zM56.958 53.911v10.026h-19.339l-0.807-13.036 1.3-3.999 1.645 1.233c0.18 0.135 0.398 0.206 0.618 0.206 0.089 0 0.178-0.011 0.265-0.035 0.305-0.081 0.556-0.298 0.682-0.588l2.84-6.577 6.73 3.186c3.798 1.798 6.066 5.381 6.066 9.584zM43.492 27.701h-0.248c0.279-0.55 0.514-1.125 0.703-1.722 0.038 0.001 0.076 0.003 0.115 0.003 0.533 0 1.051-0.063 1.545-0.181-0.114 1.066-1.019 1.899-2.115 1.899zM44.394 23.907c0.054-0.451 0.083-0.91 0.083-1.376v-6.11c2.108 0.188 3.76 1.793 3.76 3.74 0 1.972-1.696 3.593-3.843 3.746zM33 2.063c6.906 0 12.532 5.575 12.618 12.461-0.378-0.091-0.77-0.148-1.172-0.171-0.428-5.941-5.398-10.644-11.446-10.644s-11.018 4.703-11.446 10.643c-0.396 0.023-0.788 0.083-1.171 0.174 0.084-6.887 5.711-12.463 12.618-12.463zM41.937 12.233c-1.641-0.586-3.181-1.18-4.331-2.581-0.195-0.238-0.486-0.376-0.794-0.377-0.001 0-0.002 0-0.004 0-0.306 0-0.597 0.136-0.793 0.371-2.605 3.129-6.274 3.586-10.158 4.070-0.723 0.090-1.462 0.184-2.198 0.295 0.58-4.639 4.545-8.241 9.339-8.241 4.16 0 7.696 2.713 8.937 6.462zM17.763 20.161c0-1.398 0.855-2.672 2.231-3.327 0.48-0.228 0.993-0.365 1.529-0.412v6.11c0 0.465 0.029 0.924 0.083 1.376-2.147-0.153-3.843-1.774-3.843-3.746zM23.586 22.532v-6.422c0.835-0.135 1.692-0.243 2.528-0.347 3.779-0.471 7.675-0.956 10.708-3.948 1.415 1.292 3.066 1.878 4.672 2.449 0.297 0.106 0.6 0.214 0.9 0.326 0.012 0.197 0.021 0.395 0.021 0.595v7.346c0 1.908-0.572 3.685-1.552 5.17h-6.875c-0.57 0-1.031 0.462-1.031 1.031s0.462 1.031 1.031 1.031h5.032c-1.633 1.362-3.732 2.182-6.020 2.182-5.191 0-9.414-4.223-9.414-9.414zM33 34.009c1.512 0 2.956-0.294 4.279-0.828l0.26 3.794-4.618 3.461-4.472-3.352 0.298-3.893c1.316 0.527 2.751 0.818 4.253 0.818zM50.47 52.393c0.57 0 1.031 0.462 1.031 1.031s-0.462 1.031-1.031 1.031h-7.219c-0.57 0-1.031-0.462-1.031-1.031s0.462-1.031 1.031-1.031z"></path>
</svg>
