<!-- Generated by IcoMoon.io -->
<svg version="1.1" xmlns="http://www.w3.org/2000/svg" width="66" height="66" viewBox="0 0 66 66">
<title>-data-visualization</title>
<path fill="#3c72fc" d="M39.697 2.038c-0.582 0-0.971 0.388-0.971 0.971v2.038c0 0.582 0.388 0.971 0.971 0.971s0.971-0.388 0.971-0.971v-2.038c0-0.485-0.388-0.971-0.971-0.971zM46.588 3.106l-1.456 1.747c-0.291 0.388-0.291 1.068 0.097 1.359s1.068 0.291 1.359-0.097l1.456-1.747c0.291-0.388 0.291-1.068-0.097-1.359-0.388-0.388-0.971-0.291-1.359 0.097zM31.447 3.009c-0.388 0.388-0.485 0.971-0.097 1.359l1.456 1.747c0.291 0.388 0.971 0.485 1.359 0.097s0.485-0.971 0.097-1.359l-1.456-1.747c-0.291-0.388-0.971-0.485-1.359-0.097zM1.941 16.403v25.138c0 0.582 0.388 0.971 0.971 0.971s0.971-0.388 0.971-0.971v-25.138c0-1.068 0.874-1.941 1.941-1.941h12.618c0.874 0 1.553 0.582 1.844 1.359l0.874 2.621c0.485 1.65 2.038 2.718 3.688 2.718h7.668c2.232 1.165 4.659 1.844 7.182 1.844h0.097c4.076 0 7.862-1.65 10.676-4.465l2.718-2.718c0.388-0.388 0.388-0.971 0-1.359l-2.718-2.718c-5.921-5.824-15.529-5.824-21.353 0.097l-2.718 2.718c-0.388 0.388-0.388 0.971 0 1.359l2.718 2.718c0.194 0.194 0.485 0.388 0.679 0.582h-4.853c-0.874 0-1.553-0.582-1.844-1.359l-0.874-2.621c-0.485-1.65-2.038-2.718-3.688-2.718h-12.715c-2.135 0-3.882 1.747-3.882 3.882zM28.341 15.141l2.038-2.038c5.144-5.144 13.491-5.144 18.635-0.097l2.038 2.038-2.038 2.038c-2.426 2.524-5.824 3.882-9.318 3.882 0 0 0 0-0.097 0-6.891 0-10.094-4.95-11.259-5.824zM64.059 30.671c0-2.232-1.844-4.076-4.076-4.076h-3.009c-0.582 0-0.971 0.388-0.971 0.971s0.388 0.971 0.971 0.971h3.009c1.165 0 2.135 0.971 2.135 2.135v29.215c0 1.165-0.971 2.135-2.135 2.135h-6.503v-21.644h3.494v16.985c0 0.582 0.388 0.971 0.971 0.971s0.971-0.388 0.971-0.971v-17.956c0-0.582-0.388-0.971-0.971-0.971h-5.435c-0.582 0-0.971 0.388-0.971 0.971v22.518h-3.397v-13.2c0-0.582-0.388-0.971-0.971-0.971h-5.435c-0.582 0-0.971 0.388-0.971 0.971v13.297h-8.929v-16.209h3.494v12.521c0 0.582 0.388 0.971 0.971 0.971s0.971-0.388 0.971-0.971v-13.491c0-0.582-0.388-0.971-0.971-0.971h-5.435c-0.582 0-0.971 0.388-0.971 0.971v17.179h-3.397v-8.153c0-0.582-0.388-0.971-0.971-0.971h-5.435c-0.582 0-0.971 0.388-0.971 0.971v8.153h-5.144c1.359-1.262 2.232-3.106 2.232-5.144v-26.206c0-1.165 0.971-2.135 2.135-2.135h28.826c0.582 0 0.971-0.388 0.971-0.971s-0.388-0.971-0.971-0.971h-28.826c-2.232 0-4.076 1.844-4.076 4.076v26.206c0 2.815-2.329 5.144-5.144 5.144s-5.241-2.329-5.241-5.144v-9.803c0-0.582-0.388-0.971-0.971-0.971s-0.971 0.388-0.971 0.971v9.803c0 3.882 3.203 7.085 7.085 7.085h50.956c2.232 0 4.076-1.844 4.076-4.076zM21.062 54.838h3.494v7.182h-3.494zM42.706 49.694h3.494v12.326h-3.494zM56.391 25.138c2.038 0 3.688-1.65 3.688-3.688s-1.65-3.688-3.688-3.688-3.688 1.65-3.688 3.688c0 0.971 0.388 1.844 0.971 2.426l-6.697 10.774c-0.388-0.097-0.776-0.194-1.262-0.194-1.456 0-2.621 0.776-3.203 2.038l-5.824-1.747c-0.097-1.941-1.65-3.494-3.591-3.494-2.038 0-3.688 1.65-3.688 3.688 0 0.485 0.097 0.874 0.291 1.262l-5.144 6.6c-0.485-0.291-1.068-0.388-1.65-0.388-2.038 0-3.688 1.65-3.688 3.688s1.65 3.688 3.688 3.688 3.688-1.65 3.688-3.688c0-0.679-0.194-1.359-0.582-1.941l4.853-6.309c0.582 0.485 1.359 0.776 2.232 0.776 1.359 0 2.621-0.776 3.203-1.941l5.824 1.747c0.097 1.941 1.747 3.397 3.591 3.397 2.038 0 3.688-1.65 3.688-3.688 0-0.874-0.291-1.65-0.874-2.329l6.794-10.871c0.291 0.097 0.679 0.194 1.068 0.194zM56.391 19.703c0.971 0 1.747 0.776 1.747 1.747s-0.776 1.747-1.747 1.747-1.747-0.776-1.747-1.747 0.776-1.747 1.747-1.747zM22.809 47.753c-0.971 0-1.747-0.776-1.747-1.747s0.776-1.747 1.747-1.747 1.747 0.776 1.747 1.747-0.776 1.747-1.747 1.747zM33 36.591c-0.971 0-1.747-0.776-1.747-1.747s0.776-1.747 1.747-1.747 1.747 0.776 1.747 1.747-0.776 1.747-1.747 1.747zM45.715 39.794c-0.971 0-1.747-0.776-1.747-1.747s0.776-1.747 1.747-1.747 1.747 0.776 1.747 1.747-0.776 1.747-1.747 1.747zM39.6 19.218c2.232 0 4.076-1.844 4.076-4.076s-1.844-4.076-4.076-4.076c-1.068 0-2.135 0.388-2.912 1.165s-1.165 1.747-1.165 2.912c0.097 2.232 1.844 4.076 4.076 4.076zM38.144 13.685c0.388-0.388 0.971-0.582 1.456-0.582 1.165 0 2.135 0.971 2.135 2.135s-0.971 2.135-2.135 2.135c-1.165 0-2.135-0.971-2.135-2.135 0-0.679 0.291-1.165 0.679-1.553z"></path>
</svg>
