<!-- Generated by IcoMoon.io -->
<svg version="1.1" xmlns="http://www.w3.org/2000/svg" width="66" height="66" viewBox="0 0 66 66">
<title>-technical-support</title>
<path fill="#3c72fc" d="M63.061 46.303c-0.728-1.242-2.057-2.063-3.577-2.063-0.756 0-1.464 0.203-2.074 0.557l0.020-0.011-10.055 5.806c-0.546-0.81-1.355-1.408-2.302-1.674l-0.029-0.007-15.386-4.115c-0.561-0.157-1.204-0.248-1.869-0.248-0.622 0-1.225 0.079-1.8 0.228l0.050-0.011-5.414 1.351v-1.774c0-0.57-0.462-1.031-1.031-1.031v0h-8.25c-0.57 0-1.031 0.462-1.031 1.031v0 1.031h-7.219c-0.57 0-1.031 0.462-1.031 1.031v0 14.438c0 0.57 0.462 1.031 1.031 1.031v0h7.219v1.031c0 0.57 0.462 1.031 1.031 1.031v0h8.25c0.57 0 1.031-0.462 1.031-1.031v0-1.423l1.33 0.66c0.941 0.479 2.051 0.76 3.227 0.763h15.439c0.005 0 0.010 0 0.016 0 1.324 0 2.564-0.36 3.627-0.988l-0.033 0.018 17.325-10.003c1.237-0.73 2.054-2.056 2.054-3.573 0-0.757-0.204-1.467-0.559-2.077l0.011 0.020zM10.313 59.813h-6.188v-12.375h6.188zM18.563 61.875h-6.188v-16.5h6.188zM60.524 50.15l-17.325 10.003c-0.738 0.434-1.626 0.691-2.573 0.691-0.002 0-0.003 0-0.005 0h-15.438c-0.003 0-0.007 0-0.010 0-0.839 0-1.63-0.202-2.328-0.56l0.029 0.013-2.248-1.124v-10.931l5.909-1.475c0.377-0.099 0.809-0.156 1.255-0.156 0.474 0 0.934 0.065 1.37 0.185l-0.036-0.009 15.386 4.125c0.891 0.237 1.537 1.037 1.537 1.987 0 0.762-0.415 1.428-1.032 1.782l-0.010 0.005c-0.292 0.175-0.645 0.279-1.022 0.279-0.191 0-0.375-0.026-0.55-0.076l0.014 0.003-12.303-3.3c-0.080-0.022-0.173-0.035-0.268-0.035-0.572 0-1.036 0.464-1.036 1.036 0 0.477 0.322 0.878 0.76 0.999l0.007 0.002 12.303 3.29c0.321 0.090 0.69 0.143 1.071 0.144h0.001c0.002 0 0.004 0 0.006 0 0.754 0 1.461-0.207 2.065-0.567l-0.018 0.010c0.941-0.544 1.635-1.427 1.922-2.477l0.007-0.029c0.082-0.311 0.128-0.668 0.128-1.036 0-0.125-0.005-0.249-0.016-0.372l0.001 0.016 10.385-5.992c0.292-0.165 0.641-0.262 1.014-0.262 0.757 0 1.42 0.403 1.786 1.006l0.005 0.009c0.175 0.297 0.279 0.654 0.279 1.035 0 0.755-0.406 1.416-1.012 1.775l-0.010 0.005zM15.469 60.844c0.57 0 1.031-0.462 1.031-1.031v0-1.031c0-0.57-0.462-1.031-1.031-1.031s-1.031 0.462-1.031 1.031v0 1.031c0 0.57 0.462 1.031 1.031 1.031v0zM47.438 17.531h-3.867l-0.186-0.433 2.743-2.733c0.186-0.188 0.302-0.447 0.302-0.732s-0.115-0.544-0.302-0.732l-4.372-4.372c-0.188-0.186-0.447-0.302-0.732-0.302s-0.544 0.115-0.732 0.302l0-0-2.733 2.743-0.433-0.186v-3.867c0-0.57-0.462-1.031-1.031-1.031v0h-6.188c-0.57 0-1.031 0.462-1.031 1.031v0 3.867l-0.433 0.186-2.733-2.743c-0.188-0.186-0.447-0.302-0.732-0.302s-0.544 0.115-0.732 0.302l-4.372 4.372c-0.186 0.188-0.302 0.447-0.302 0.732s0.115 0.544 0.302 0.732l-0-0 2.743 2.733-0.186 0.433h-3.867c-0.57 0-1.031 0.462-1.031 1.031v0 6.188c0 0.57 0.462 1.031 1.031 1.031v0h3.867l0.186 0.433-2.743 2.733c-0.183 0.189-0.297 0.447-0.299 0.732v0c0.004 0.284 0.117 0.542 0.299 0.733l-0-0 4.372 4.373c0.189 0.183 0.447 0.297 0.732 0.299h0c0.284-0.004 0.542-0.117 0.733-0.299l-0 0 2.733-2.743 0.433 0.186v3.867c0 0.57 0.462 1.031 1.031 1.031v0h6.188c0.57 0 1.031-0.462 1.031-1.031v0-3.867l0.433-0.186 2.733 2.743c0.192 0.177 0.449 0.286 0.732 0.286s0.54-0.109 0.733-0.287l-0.001 0.001 4.373-4.373c0.182-0.191 0.295-0.448 0.299-0.731v-0.001c-0.002-0.285-0.116-0.543-0.299-0.733l0 0-2.743-2.733 0.186-0.433h3.867c0.57 0 1.031-0.462 1.031-1.031v0-6.188c0-0.57-0.462-1.031-1.031-1.031v0zM46.406 23.719h-3.568c-0.455 0-0.841 0.295-0.978 0.704l-0.002 0.007c-0.179 0.575-0.392 1.070-0.65 1.537l0.021-0.042c-0.078 0.143-0.124 0.313-0.124 0.494 0 0.285 0.114 0.544 0.299 0.733l-0-0 2.537 2.527-2.918 2.918-2.527-2.537c-0.189-0.185-0.448-0.299-0.733-0.299-0.181 0-0.351 0.046-0.5 0.127l0.005-0.003c-0.425 0.237-0.92 0.45-1.438 0.613l-0.058 0.016c-0.416 0.139-0.711 0.525-0.712 0.98v3.568h-4.125v-3.568c-0-0.455-0.295-0.841-0.704-0.978l-0.007-0.002c-0.575-0.179-1.070-0.392-1.537-0.65l0.042 0.021c-0.143-0.078-0.313-0.124-0.494-0.124-0.285 0-0.544 0.114-0.733 0.299l0-0-2.527 2.537-2.918-2.918 2.537-2.527c0.185-0.189 0.299-0.448 0.299-0.733 0-0.181-0.046-0.351-0.127-0.5l0.003 0.005c-0.237-0.425-0.45-0.92-0.613-1.438l-0.016-0.058c-0.139-0.416-0.525-0.711-0.98-0.712h-3.568v-4.125h3.568c0.455-0 0.841-0.295 0.978-0.704l0.002-0.007c0.179-0.575 0.392-1.070 0.65-1.537l-0.021 0.042c0.078-0.143 0.124-0.313 0.124-0.494 0-0.285-0.114-0.544-0.299-0.733l0 0-2.537-2.527 2.918-2.918 2.527 2.537c0.189 0.185 0.448 0.299 0.733 0.299 0.181 0 0.351-0.046 0.5-0.127l-0.005 0.003c0.425-0.237 0.92-0.45 1.438-0.613l0.058-0.016c0.416-0.139 0.711-0.525 0.712-0.98v-3.568h4.125v3.568c0 0.455 0.295 0.841 0.704 0.978l0.007 0.002c0.575 0.179 1.070 0.392 1.537 0.65l-0.042-0.021c0.143 0.078 0.313 0.124 0.494 0.124 0.285 0 0.544-0.114 0.733-0.299l-0 0 2.527-2.537 2.918 2.918-2.537 2.527c-0.185 0.189-0.299 0.448-0.299 0.733 0 0.181 0.046 0.351 0.127 0.5l-0.003-0.005c0.237 0.425 0.45 0.92 0.613 1.438l0.016 0.058c0.139 0.416 0.525 0.711 0.98 0.712h3.568zM39.188 21.656c0-3.417-2.77-6.188-6.188-6.188s-6.188 2.77-6.188 6.188c0 3.417 2.77 6.188 6.188 6.188v0c3.416-0.004 6.184-2.772 6.188-6.187v-0zM28.875 21.656c0-2.278 1.847-4.125 4.125-4.125s4.125 1.847 4.125 4.125c0 2.278-1.847 4.125-4.125 4.125v0c-2.278 0-4.125-1.847-4.125-4.125v0zM56.719 23.719h-2.063c0-11.96-9.696-21.656-21.656-21.656s-21.656 9.696-21.656 21.656v0h-2.063c-3.417 0-6.188 2.77-6.188 6.188s2.77 6.188 6.188 6.188v0h5.156c0.57 0 1.031-0.462 1.031-1.031v0-10.313c0-0.57-0.462-1.031-1.031-1.031v0h-1.031c0-10.821 8.772-19.594 19.594-19.594s19.594 8.772 19.594 19.594v0h-1.031c-0.57 0-1.031 0.462-1.031 1.031v0 10.313c0 0.57 0.462 1.031 1.031 1.031v0h1.031v3.094c0 0.57-0.462 1.031-1.031 1.031v0h-7.404c-0.439-1.207-1.574-2.055-2.907-2.063h-2.063c-1.709 0-3.094 1.385-3.094 3.094s1.385 3.094 3.094 3.094v0h2.063c1.334-0.007 2.469-0.855 2.901-2.041l0.007-0.022h7.404c1.707-0.005 3.088-1.387 3.094-3.093v-3.094h2.063c3.417 0 6.188-2.77 6.188-6.188s-2.77-6.188-6.188-6.188v0zM9.281 34.031c-2.278 0-4.125-1.847-4.125-4.125s1.847-4.125 4.125-4.125v0zM13.406 34.031h-2.063v-8.25h2.063zM41.25 42.281h-2.063c-0.57 0-1.031-0.462-1.031-1.031s0.462-1.031 1.031-1.031v0h2.063c0.57 0 1.031 0.462 1.031 1.031s-0.462 1.031-1.031 1.031v0zM54.656 34.031h-2.063v-8.25h2.063zM56.719 34.031v-8.25c2.278 0 4.125 1.847 4.125 4.125s-1.847 4.125-4.125 4.125v0z"></path>
</svg>
