<!-- Generated by IcoMoon.io -->
<svg version="1.1" xmlns="http://www.w3.org/2000/svg" width="66" height="66" viewBox="0 0 66 66">
<title>-ux-design</title>
<path fill="#3c72fc" d="M58.080 10.050c1.31 0 2.37-1.060 2.37-2.37s-1.060-2.37-2.37-2.37-2.37 1.060-2.37 2.37 1.070 2.37 2.37 2.37zM58.080 7c0.38 0 0.69 0.31 0.69 0.69s-0.31 0.69-0.69 0.69c-0.39 0-0.69-0.3-0.69-0.69s0.31-0.69 0.69-0.69zM60.71 1.48h-48.72c-1.85 0-3.36 1.51-3.36 3.36v5.13h-3.34c-1.85 0-3.36 1.51-3.36 3.36v42.13c0 1.85 1.51 3.36 3.36 3.36h22.33v4.86c0 0.46 0.38 0.84 0.84 0.84h15.78c0.46 0 0.84-0.38 0.84-0.84v-4.86h8.93c1.85 0 3.36-1.51 3.36-3.36v-5.13h3.34c1.85 0 3.36-1.51 3.36-3.36v-42.13c0-1.85-1.51-3.36-3.36-3.36zM10.31 4.84c0-0.93 0.76-1.68 1.68-1.68h48.72c0.93 0 1.68 0.76 1.68 1.68v7.37h-31.88l-3.75-3.89c-0.29-0.3-0.69-0.47-1.1-0.47h-8.26c-0.84 0-1.53 0.69-1.53 1.53v2.83h-5.56zM5.29 57.15c-0.93 0-1.68-0.76-1.68-1.68v-42.14c0-0.93 0.76-1.68 1.68-1.68h3.34v35.33c0 1.85 1.51 3.36 3.36 3.36h18.24c0.33 0.64 0.48 1.36 0.42 2.1h-1.3c-0.96 0-1.73 0.78-1.73 1.73v2.98zM35.52 39.56c0.17-0.3 0.48-0.49 0.83-0.49 0.52 0 0.94 0.42 0.94 0.94 0 0.34-0.18 0.65-0.47 0.82-0.32 0.19-0.7 0.17-1.090-0.050-0.050-0.030-0.1-0.070-0.12-0.12-0.32-0.51-0.19-0.91-0.090-1.1zM35.51 37.55c-0.61 0.21-1.13 0.62-1.45 1.2-0.48 0.86-0.42 1.91 0.14 2.81 0.18 0.28 0.42 0.51 0.71 0.68 0.46 0.26 0.96 0.4 1.45 0.4 0.46 0 0.91-0.12 1.31-0.35 0.8-0.47 1.3-1.34 1.3-2.27 0-1.15-0.75-2.12-1.78-2.47v-4.32l7.43 13.41c-0.010 0.010-0.020 0.030-0.050 0.040-2.63 0.68-4.35 3.14-4.21 5.76h-8.010c0.15-2.63-1.58-5.090-4.26-5.84l7.42-13.37zM43.4 62.84h-14.1l0.050-8.73h14c0.030 0 0.050 0.020 0.050 0.050zM55.69 55.46c0 0.93-0.76 1.68-1.68 1.68h-8.93v-2.98c0-0.96-0.78-1.73-1.73-1.73h-1.3c-0.060-0.74 0.1-1.46 0.42-2.1h13.22zM60.71 48.66h-16.61c0.27-0.15 0.56-0.28 0.88-0.36 0.53-0.14 0.96-0.51 1.18-1.010 0.21-0.49 0.18-1.040-0.080-1.51l-8.6-15.49c-0.22-0.41-0.65-0.67-1.12-0.67-0.48 0.010-0.91 0.25-1.14 0.66l-8.61 15.5c-0.26 0.47-0.28 1.030-0.070 1.52 0.21 0.5 0.64 0.86 1.17 1 0.32 0.080 0.6 0.21 0.88 0.36h-16.6c-0.93 0-1.68-0.76-1.68-1.68v-33.090h5.7c0.84 0 1.53-0.69 1.53-1.53v-2.83h8.050l3.75 3.89c0.29 0.3 0.69 0.47 1.1 0.47h31.95v33.080c0 0.93-0.75 1.69-1.68 1.69zM52.36 10.050c1.31 0 2.37-1.060 2.37-2.37s-1.060-2.37-2.37-2.37-2.37 1.060-2.37 2.37 1.060 2.37 2.37 2.37zM52.36 7c0.38 0 0.69 0.31 0.69 0.69s-0.31 0.69-0.69 0.69c-0.39 0-0.69-0.3-0.69-0.69s0.31-0.69 0.69-0.69zM46.63 10.050c1.31 0 2.37-1.060 2.37-2.37s-1.060-2.37-2.37-2.37-2.37 1.060-2.37 2.37 1.060 2.37 2.37 2.37zM46.63 7c0.38 0 0.69 0.31 0.69 0.69s-0.31 0.69-0.69 0.69c-0.39 0-0.69-0.3-0.69-0.69s0.31-0.69 0.69-0.69zM52.54 21.21c-0.49 0.49-0.8 1.11-0.92 1.77h-11.75v-1.32c0-0.9-0.73-1.63-1.63-1.63h-3.79c-0.9 0-1.63 0.73-1.63 1.63v1.32h-11.74c-0.11-0.65-0.42-1.27-0.92-1.78-1.27-1.25-3.44-1.23-4.68 0.010-0.63 0.63-0.97 1.46-0.97 2.34 0 0.89 0.35 1.73 0.97 2.34 0.63 0.65 1.47 0.98 2.34 0.98 0.55 0 1.11-0.13 1.64-0.4 0.57-0.29 1.040-0.77 1.32-1.36 0.070-0.15 0.13-0.3 0.18-0.45h8.15c-4.43 2.16-7.77 6.22-8.93 11.12h-1.3c-0.9 0-1.63 0.73-1.63 1.63v3.79c0 0.9 0.73 1.63 1.63 1.63h3.79c0.9 0 1.63-0.73 1.63-1.63v-3.79c0-0.9-0.73-1.63-1.63-1.63h-0.76c1.4-5.28 5.63-9.42 10.94-10.7v0.36c0 0.9 0.73 1.63 1.63 1.63h3.79c0.9 0 1.63-0.73 1.63-1.63v-0.36c5.3 1.28 9.53 5.42 10.94 10.7h-0.69c-0.9 0-1.63 0.73-1.63 1.63v3.79c0 0.9 0.73 1.63 1.63 1.63h3.79c0.9 0 1.63-0.73 1.63-1.63v-3.79c0-0.9-0.73-1.63-1.63-1.63h-1.37c-1.17-4.9-4.51-8.97-8.93-11.12h8.17c0.16 0.46 0.42 0.88 0.77 1.23 0.63 0.65 1.47 0.98 2.34 0.98 0.55 0 1.11-0.13 1.64-0.4 0.57-0.29 1.040-0.77 1.32-1.36 0.65-1.37 0.42-2.86-0.61-3.91-1.31-1.24-3.48-1.23-4.73 0.010zM19.25 24.4c-0.12 0.24-0.32 0.45-0.56 0.57-0.87 0.44-1.62 0.16-2.030-0.27-0.31-0.3-0.48-0.71-0.48-1.15 0-0.43 0.17-0.84 0.48-1.16 0.31-0.31 0.72-0.48 1.16-0.48 0.43 0 0.85 0.17 1.15 0.47 0.52 0.54 0.62 1.29 0.28 2.020zM22.65 41.15l-3.74 0.050-0.050-3.74h3.74zM53.91 41.15l-3.74 0.050-0.050-3.74h3.74zM34.51 25.45l-0.020-1.26c0.020-0.090 0.020-0.18 0.010-0.28v-0.010c0-0.030 0.020-0.050 0.020-0.080 0-0.050-0.020-0.090-0.030-0.13l-0.030-1.97h3.74l0.030 1.97c-0.010 0.050-0.030 0.090-0.030 0.14 0 0.030 0.010 0.050 0.020 0.080v0.010c-0.020 0.13-0.010 0.25 0.020 0.36l0.020 1.13zM56.32 24.4c-0.12 0.24-0.32 0.45-0.56 0.57-0.87 0.44-1.62 0.16-2.030-0.27-0.31-0.3-0.48-0.71-0.48-1.15 0-0.43 0.17-0.84 0.48-1.16 0.31-0.31 0.72-0.48 1.16-0.48 0.43 0 0.85 0.17 1.15 0.47 0.52 0.54 0.62 1.29 0.28 2.020z"></path>
</svg>
