<!-- Generated by IcoMoon.io -->
<svg version="1.1" xmlns="http://www.w3.org/2000/svg" width="66" height="66" viewBox="0 0 66 66">
<title>-worldwide</title>
<path fill="#3c72fc" d="M59.807 13.752c0.652-0.894 1.038-1.994 1.038-3.182 0-2.985-2.429-5.414-5.414-5.414-1.189 0-2.288 0.386-3.182 1.038-5.629-4.055-12.261-6.194-19.248-6.194-6.854 0-13.427 2.082-19.008 6.021-0.582 0.411-0.72 1.215-0.31 1.797s1.215 0.72 1.797 0.31c3.728-2.631 7.937-4.363 12.377-5.117-0.517 0.657-1.036 1.447-1.548 2.399-1.564 2.905-2.854 6.907-3.754 11.622-2.367 0.17-4.316 1.867-4.866 4.109h-12.71c0.749-1.768 1.669-3.471 2.754-5.086 0.397-0.591 0.24-1.392-0.351-1.789s-1.392-0.24-1.789 0.351c-3.657 5.443-5.59 11.8-5.59 18.383 0 6.985 2.139 13.618 6.194 19.248-0.651 0.894-1.037 1.993-1.037 3.182 0 2.985 2.429 5.414 5.414 5.414 1.188 0 2.288-0.386 3.182-1.037 5.63 4.055 12.263 6.194 19.248 6.194 8.815 0 17.102-3.433 23.335-9.666s9.665-14.52 9.665-23.334c0-6.986-2.139-13.618-6.193-19.248zM61.972 42.281h-13.746c-0.442-1.8-1.785-3.249-3.523-3.838 0.102-1.791 0.156-3.615 0.156-5.443 0-3.187-0.154-6.306-0.452-9.281h17.581c0.947 2.964 1.434 6.082 1.434 9.281 0 3.236-0.51 6.354-1.45 9.281zM33 63.422c-2.16 0-4.497-3.143-6.251-8.406-0.983-2.951-1.744-6.397-2.258-10.156h13.219c0.413 1.683 1.613 3.059 3.188 3.713-1.961 10.246-5.343 14.849-7.898 14.849zM10.57 50.016c-0.862 0-1.677 0.204-2.401 0.563-1.282-1.805-2.351-3.719-3.2-5.72h16.922c0.536 4.056 1.349 7.784 2.411 10.971 1.021 3.065 2.211 5.462 3.536 7.158-4.465-0.757-8.678-2.502-12.418-5.158 0.36-0.724 0.563-1.539 0.563-2.401 0-2.985-2.429-5.414-5.414-5.414zM23.719 33c0-1.759 0.052-3.514 0.148-5.236 2.124-0.366 3.827-1.973 4.336-4.045h13.614c0.306 2.964 0.464 6.084 0.464 9.281 0 1.753-0.051 3.503-0.147 5.221-2.165 0.336-3.908 1.96-4.423 4.061h-13.527c-0.305-2.964-0.464-6.084-0.464-9.281zM42.968 46.406c-1.564 0-2.836-1.272-2.836-2.836s1.272-2.836 2.836-2.836 2.836 1.272 2.836 2.836-1.272 2.836-2.836 2.836zM41.697 10.169c-1.022-3.065-2.211-5.462-3.536-7.159 4.466 0.757 8.679 2.501 12.419 5.158-0.36 0.724-0.563 1.539-0.563 2.401 0 2.985 2.429 5.414 5.414 5.414 0.862 0 1.677-0.204 2.401-0.563 1.282 1.804 2.351 3.719 3.199 5.72h-16.923c-0.536-4.056-1.349-7.784-2.411-10.971zM58.266 10.57c0 1.564-1.272 2.836-2.836 2.836s-2.836-1.272-2.836-2.836 1.272-2.836 2.836-2.836 2.836 1.272 2.836 2.836zM33 2.578c2.16 0 4.497 3.143 6.251 8.406 0.983 2.951 1.744 6.397 2.258 10.156h-13.306c-0.406-1.654-1.573-3.012-3.107-3.678 1.959-10.27 5.344-14.884 7.905-14.884zM22.945 19.594c1.564 0 2.836 1.272 2.836 2.836s-1.272 2.836-2.836 2.836-2.836-1.272-2.836-2.836 1.272-2.836 2.836-2.836zM17.687 23.719c0.449 1.83 1.829 3.297 3.608 3.867-0.101 1.781-0.154 3.596-0.154 5.414 0 3.187 0.154 6.306 0.452 9.281h-17.58c-0.947-2.965-1.434-6.083-1.434-9.281 0-3.182 0.49-6.306 1.442-9.281zM7.734 55.43c0-1.564 1.272-2.836 2.836-2.836s2.836 1.272 2.836 2.836-1.272 2.836-2.836 2.836-2.836-1.272-2.836-2.836zM38.148 62.984c0.512-0.652 1.027-1.434 1.535-2.376 1.569-2.908 2.863-6.918 3.765-11.646 2.327-0.205 4.235-1.888 4.778-4.103h12.789c-3.985 9.378-12.547 16.358-22.867 18.125zM10.32 12.125c0.34 0 0.672-0.137 0.913-0.378 0.24-0.24 0.376-0.572 0.376-0.911s-0.137-0.67-0.376-0.911c-0.241-0.24-0.572-0.378-0.913-0.378-0.339 0-0.672 0.138-0.911 0.378-0.24 0.241-0.378 0.572-0.378 0.911s0.138 0.672 0.378 0.911c0.24 0.241 0.572 0.378 0.911 0.378z"></path>
</svg>
