<!-- Generated by IcoMoon.io -->
<svg version="1.1" xmlns="http://www.w3.org/2000/svg" width="68" height="68" viewBox="0 0 68 68">
<title>-consultant</title>
<path fill="#fff" d="M14.657 43.75c-4.675 2.213-7.466 6.623-7.466 11.795v11.392c0 0.587 0.476 1.063 1.063 1.063h51.492c0.587 0 1.063-0.476 1.063-1.063v-11.392c0-5.172-2.791-9.582-7.466-11.795l-12.556-5.945-0.321-4.695c1.024-0.672 1.939-1.497 2.709-2.445h1.636c2.38 0 4.317-1.937 4.317-4.317v-0.697c1.631-1.089 2.696-2.87 2.696-4.879s-1.066-3.79-2.696-4.879v-0.765c0-8.341-6.786-15.127-15.127-15.127s-15.127 6.786-15.127 15.127v0.759c-1.683 1.115-2.696 2.918-2.696 4.886 0 3.307 2.883 5.998 6.426 5.998 0.040 0 0.079-0.003 0.118-0.003 0.834 2.641 2.571 4.884 4.847 6.365l-0.358 4.675zM39.979 39.774l3.599 1.704-2.421 5.607-5.467-4.097zM32.145 53.37h3.711l0.774 12.505h-5.259zM37.469 46.977l-1.387 4.268h-4.164l-1.419-4.367 3.419-2.562zM26.68 47.085l-2.393-5.542 3.634-1.721 4.225 3.167zM9.316 55.545c0-4.33 2.336-8.021 6.25-9.874l6.798-3.219 2.898 6.712c0.129 0.299 0.388 0.522 0.702 0.606 0.090 0.024 0.182 0.036 0.273 0.036 0.227 0 0.451-0.073 0.637-0.212l1.826-1.369 1.371 4.219-0.832 13.431h-19.925zM58.684 55.545v10.33h-19.925l-0.832-13.431 1.339-4.121 1.695 1.27c0.186 0.139 0.41 0.212 0.637 0.212 0.091 0 0.183-0.012 0.273-0.036 0.315-0.084 0.573-0.307 0.702-0.606l2.926-6.776 6.934 3.283c3.913 1.853 6.25 5.544 6.25 9.874zM44.81 28.541h-0.255c0.287-0.567 0.53-1.16 0.724-1.774 0.040 0.001 0.079 0.003 0.118 0.003 0.549 0 1.083-0.065 1.592-0.186-0.118 1.098-1.049 1.957-2.179 1.957zM45.739 24.632c0.056-0.465 0.085-0.938 0.085-1.417v-6.296c2.172 0.194 3.874 1.848 3.874 3.854 0 2.032-1.747 3.702-3.959 3.859zM34 2.125c7.115 0 12.912 5.744 13 12.838-0.389-0.094-0.793-0.153-1.207-0.176-0.441-6.121-5.562-10.966-11.793-10.966s-11.352 4.845-11.793 10.966c-0.408 0.024-0.812 0.085-1.207 0.18 0.087-7.096 5.885-12.841 13-12.841zM43.208 12.603c-1.691-0.603-3.278-1.216-4.462-2.659-0.201-0.245-0.501-0.387-0.818-0.388-0.001 0-0.003 0-0.004 0-0.315 0-0.615 0.14-0.817 0.383-2.684 3.224-6.464 3.695-10.465 4.193-0.745 0.093-1.506 0.19-2.264 0.304 0.598-4.779 4.683-8.49 9.622-8.49 4.286 0 7.929 2.795 9.208 6.657zM18.301 20.772c0-1.44 0.881-2.753 2.298-3.428 0.495-0.235 1.024-0.377 1.576-0.425v6.295c0 0.48 0.029 0.952 0.085 1.417-2.212-0.158-3.959-1.828-3.959-3.859zM24.3 23.214v-6.616c0.86-0.139 1.744-0.25 2.605-0.357 3.893-0.485 7.908-0.985 11.033-4.068 1.458 1.331 3.159 1.935 4.813 2.523 0.306 0.109 0.618 0.22 0.927 0.336 0.013 0.203 0.021 0.407 0.021 0.613v7.569c0 1.966-0.59 3.796-1.599 5.326h-7.084c-0.587 0-1.063 0.476-1.063 1.063s0.476 1.063 1.063 1.063h5.185c-1.683 1.403-3.845 2.249-6.202 2.249-5.348 0-9.7-4.351-9.7-9.7zM34 35.039c1.558 0 3.046-0.303 4.409-0.853l0.267 3.909-4.758 3.566-4.608-3.453 0.307-4.011c1.356 0.543 2.835 0.842 4.382 0.842zM51.999 53.981c0.587 0 1.063 0.476 1.063 1.063s-0.476 1.063-1.063 1.063h-7.438c-0.587 0-1.063-0.476-1.063-1.063s0.476-1.063 1.063-1.063z"></path>
</svg>
