<!-- Generated by IcoMoon.io -->
<svg version="1.1" xmlns="http://www.w3.org/2000/svg" width="68" height="68" viewBox="0 0 68 68">
<title>-healthcare</title>
<path fill="#fff" d="M40.375 13.813h-3.188v-3.188c0-0.587-0.476-1.063-1.063-1.063v0h-4.25c-0.587 0-1.063 0.476-1.063 1.063v0 3.188h-3.188c-0.587 0-1.063 0.476-1.063 1.063v0 4.25c0 0.587 0.476 1.063 1.063 1.063v0h3.188v3.188c0 0.587 0.476 1.063 1.063 1.063v0h4.25c0.587 0 1.063-0.476 1.063-1.063v0-3.188h3.188c0.587 0 1.063-0.476 1.063-1.063v0-4.25c0-0.587-0.476-1.063-1.063-1.063v0zM39.313 18.063h-3.188c-0.587 0-1.063 0.476-1.063 1.063v0 3.188h-2.125v-3.188c0-0.587-0.476-1.063-1.063-1.063v0h-3.188v-2.125h3.188c0.587 0 1.063-0.476 1.063-1.063v0-3.188h2.125v3.188c0 0.587 0.476 1.063 1.063 1.063v0h3.188zM63.463 19.508c0.020-0.167 0.032-0.36 0.032-0.556 0-0.003 0-0.005 0-0.008v0c-0.011-2.033-1.442-3.73-3.35-4.149l-0.028-0.005c-0.243-0.049-0.523-0.076-0.809-0.076-2 0-3.683 1.358-4.178 3.202l-0.007 0.030-4.675 13.451c-0.080 0.032-0.147 0.064-0.211 0.1l0.009-0.005-9.392 5.504c-2.845 1.693-4.722 4.749-4.728 8.244v10.010c-0.587 0-1.063 0.476-1.063 1.063v0 8.5c0 0.587 0.476 1.063 1.063 1.063v0h14.875c0.587 0 1.063-0.476 1.063-1.063v0-8.5c0-0.587-0.476-1.063-1.063-1.063v0-2.338c0.004-0.943 0.412-1.79 1.060-2.378l0.003-0.002 7.182-6.386c0.767-0.674 1.333-1.56 1.606-2.566l0.009-0.037 4.611-17.244c0.094-0.331 0.148-0.712 0.149-1.105v-0c-0.009-1.572-0.866-2.942-2.136-3.676l-0.021-0.011zM57.152 18.573c0.243-0.998 1.128-1.727 2.184-1.727 0.122 0 0.241 0.010 0.357 0.028l-0.013-0.002c0.969 0.208 1.685 1.056 1.689 2.071v0.022c-1.98 0.038-3.634 1.391-4.126 3.221l-0.007 0.030-2.964 9.148c-0.414-0.202-0.896-0.344-1.403-0.402l-0.020-0.002zM49.938 63.75h-12.75v-6.375h12.75zM63.421 23.747l-4.622 17.255c-0.169 0.62-0.503 1.147-0.953 1.549l-0.003 0.003-7.193 6.386c-1.088 0.984-1.77 2.399-1.774 3.973v2.338h-10.625v-10.009c0.011-2.718 1.469-5.094 3.642-6.399l0.034-0.019 9.382-5.493c0.307-0.182 0.676-0.289 1.070-0.289 0.783 0 1.468 0.424 1.836 1.054l0.005 0.010c0.177 0.309 0.281 0.678 0.281 1.073 0 0.193-0.025 0.38-0.072 0.558l0.003-0.015c-0.155 0.554-0.514 1.006-0.988 1.28l-0.010 0.005-6.088 3.517c-0.298 0.192-0.492 0.521-0.492 0.897 0 0.587 0.476 1.063 1.063 1.063 0.18 0 0.35-0.045 0.498-0.124l-0.006 0.003 6.088-3.517c0.971-0.559 1.688-1.469 1.98-2.553l0.007-0.029c0.091-0.328 0.143-0.705 0.143-1.095 0-0.782-0.211-1.515-0.579-2.145l0.011 0.020-0.064-0.096 3.283-10.126c0.243-0.998 1.128-1.727 2.184-1.727 0.122 0 0.241 0.010 0.357 0.028l-0.013-0.002c0.969 0.208 1.685 1.056 1.689 2.071v0c0 0.010 0 0.023 0 0.035 0 0.184-0.027 0.363-0.078 0.53l0.003-0.013zM31.875 55.25v-10.009c-0.006-3.496-1.884-6.552-4.684-8.221l-0.044-0.024-9.393-5.514c-0.064-0.032-0.138-0.053-0.202-0.085l-4.643-13.377c-0.491-1.912-2.2-3.303-4.233-3.303-0.28 0-0.554 0.026-0.82 0.077l0.027-0.004c-1.937 0.425-3.368 2.121-3.379 4.153v0.001c0 0.002 0 0.005 0 0.007 0 0.196 0.012 0.389 0.034 0.579l-0.002-0.023c-1.291 0.745-2.148 2.115-2.157 3.686v0.001c0.002 0.393 0.052 0.774 0.145 1.138l-0.007-0.033 4.622 17.234c0.279 1.048 0.845 1.938 1.609 2.609l0.006 0.005 7.172 6.386c0.657 0.586 1.070 1.435 1.073 2.379v2.338c-0.587 0-1.062 0.476-1.062 1.063v0 8.5c0 0.587 0.476 1.063 1.062 1.063v0h14.875c0.587 0 1.063-0.476 1.063-1.063v0-8.5c0-0.587-0.476-1.063-1.063-1.063v0zM6.63 18.944c0.003-1.013 0.714-1.859 1.665-2.069l0.014-0.003c0.099-0.015 0.213-0.024 0.33-0.024 1.092 0 2.005 0.762 2.238 1.783l0.003 0.015 4.271 12.314c-0.528 0.060-1.009 0.202-1.45 0.415l0.027-0.012-2.943-9.095c-0.497-1.879-2.158-3.251-4.149-3.304l-0.006-0zM17.34 48.939l-7.182-6.386c-0.455-0.406-0.79-0.937-0.951-1.54l-0.005-0.022-4.633-17.244c-0.041-0.16-0.064-0.344-0.064-0.533 0-0.007 0-0.014 0-0.021v0.001c0.003-1.013 0.714-1.859 1.665-2.069l0.014-0.003c0.102-0.016 0.219-0.025 0.338-0.025 1.081 0 1.986 0.753 2.22 1.763l0.003 0.015 3.262 10.073-0.064 0.096c-0.357 0.61-0.568 1.343-0.568 2.125 0 0.389 0.052 0.766 0.15 1.124l-0.007-0.030c0.299 1.113 1.015 2.023 1.967 2.571l0.020 0.011 6.088 3.517c0.143 0.076 0.312 0.121 0.492 0.121 0.587 0 1.063-0.476 1.063-1.063 0-0.375-0.195-0.705-0.488-0.894l-0.004-0.003-6.088-3.517c-0.485-0.28-0.844-0.732-0.995-1.271l-0.004-0.015c-0.043-0.163-0.068-0.35-0.068-0.542 0-0.394 0.104-0.764 0.286-1.083l-0.006 0.011c0.374-0.643 1.059-1.068 1.843-1.068 0.389 0 0.754 0.105 1.067 0.287l-0.010-0.005 9.392 5.504c2.207 1.323 3.665 3.699 3.676 6.416v10.010h-10.625v-2.338c-0.004-1.577-0.691-2.994-1.78-3.969l-0.005-0.004zM30.813 63.75h-12.75v-6.375h12.75zM49.031 5.453c-1.922-1.926-4.58-3.117-7.515-3.117s-5.594 1.192-7.516 3.118l-0 0c-1.922-1.926-4.579-3.118-7.515-3.118s-5.593 1.192-7.515 3.117l-0 0c-1.919 1.923-3.105 4.577-3.105 7.509s1.187 5.586 3.106 7.509l14.28 14.28c0.192 0.192 0.458 0.311 0.751 0.311s0.559-0.119 0.751-0.311l14.28-14.28c1.919-1.923 3.105-4.577 3.105-7.509s-1.187-5.587-3.106-7.51l0 0zM34 32.498l-13.529-13.529c-1.536-1.538-2.486-3.661-2.486-6.006 0-4.694 3.806-8.5 8.5-8.5 0.001 0 0.002 0 0.003 0h-0c0.009 0 0.019-0 0.029-0 2.338 0 4.452 0.954 5.977 2.493l0.755 0.755c0.192 0.192 0.458 0.311 0.751 0.311s0.559-0.119 0.751-0.311l0.757-0.756c1.537-1.54 3.663-2.493 6.011-2.493s4.473 0.953 6.010 2.493l0 0c1.536 1.538 2.486 3.661 2.486 6.006s-0.95 4.469-2.486 6.006l0-0z"></path>
</svg>
