<!-- Generated by IcoMoon.io -->
<svg version="1.1" xmlns="http://www.w3.org/2000/svg" width="68" height="68" viewBox="0 0 68 68">
<title>-manufacturing</title>
<path fill="#fff" d="M26.077 21.695c-3.802 2.458-6.132 6.645-6.217 11.171 0 0.626 0.507 1.134 1.133 1.134s1.134-0.507 1.134-1.134c0.078-3.733 1.993-7.187 5.118-9.229 0.526-0.327 0.692-1.016 0.372-1.547s-1.006-0.707-1.541-0.395zM60.66 28.333c-2.692 0.004-5.011 1.897-5.552 4.533h-13.829c-0.262-1.241-0.934-2.357-1.909-3.17l3.829-7.030h3.975c0.582 2.85 3.227 4.797 6.122 4.504s5.097-2.729 5.097-5.638-2.203-5.346-5.097-5.638c-2.894-0.293-5.54 1.654-6.122 4.505h-3.514v-7.464l3.869-3.869h5.312c0.582 2.85 3.227 4.797 6.122 4.505s5.097-2.729 5.097-5.638c0-2.909-2.203-5.346-5.097-5.638s-5.54 1.654-6.122 4.505h-5.312c-0.601 0.002-1.177 0.24-1.603 0.664l-0.972 0.972c-0.796-0.295-1.607-0.549-2.428-0.763v-5.407c-0.002-1.251-1.015-2.265-2.267-2.267h-9.067c-1.251 0.002-2.265 1.015-2.267 2.267v5.406c-2.464 0.628-4.826 1.604-7.015 2.897l-3.802-3.802c-0.424-0.437-1.008-0.683-1.617-0.681h-0.002c-0.603-0.003-1.182 0.24-1.604 0.672l-6.394 6.393c-0.434 0.423-0.68 1.003-0.682 1.609s0.24 1.188 0.672 1.614l3.811 3.811c-1.293 2.189-2.268 4.551-2.898 7.015h-5.404c-1.251 0.002-2.265 1.015-2.267 2.267v9.067c0.002 1.251 1.015 2.265 2.267 2.267h5.404c0.629 2.464 1.605 4.826 2.898 7.015l-3.801 3.801c-0.434 0.423-0.68 1.003-0.682 1.609s0.24 1.188 0.672 1.613l6.394 6.393c0.423 0.437 1.005 0.684 1.614 0.682h0.002c0.604 0.003 1.183-0.24 1.606-0.672l3.812-3.811c2.189 1.293 4.551 2.269 7.015 2.897v5.405c0.002 1.251 1.015 2.265 2.267 2.267h9.067c1.251-0.002 2.265-1.015 2.267-2.267v-5.407c0.822-0.213 1.632-0.468 2.428-0.763l0.972 0.972c0.426 0.424 1.002 0.663 1.603 0.664h5.312c0.582 2.85 3.227 4.797 6.122 4.505s5.097-2.729 5.097-5.638c0-2.909-2.203-5.346-5.097-5.638s-5.54 1.654-6.122 4.505h-5.312l-3.869-3.869v-7.464h3.514c0.582 2.85 3.227 4.797 6.122 4.505s5.097-2.729 5.097-5.638-2.203-5.346-5.097-5.638c-2.894-0.293-5.54 1.654-6.122 4.504h-3.975l-3.829-7.030c0.974-0.812 1.647-1.929 1.909-3.17h13.829c0.597 2.921 3.355 4.881 6.311 4.482s5.096-3.020 4.895-5.996-2.672-5.287-5.654-5.287zM58.393 4.533c1.878 0 3.4 1.522 3.4 3.4s-1.522 3.4-3.4 3.4c-1.878 0-3.4-1.522-3.4-3.4 0.002-1.877 1.523-3.398 3.4-3.4zM58.393 56.667c1.878 0 3.4 1.522 3.4 3.4s-1.522 3.4-3.4 3.4c-1.878 0-3.4-1.522-3.4-3.4 0.002-1.877 1.523-3.398 3.4-3.4zM35.727 37.4c-1.878 0-3.4-1.523-3.4-3.4s1.523-3.4 3.4-3.4 3.4 1.523 3.4 3.4c-0.002 1.877-1.523 3.398-3.4 3.4zM52.727 18.134c1.878 0 3.4 1.522 3.4 3.4s-1.523 3.4-3.4 3.4-3.4-1.522-3.4-3.4c0.002-1.877 1.523-3.398 3.4-3.4zM41.148 58.326c-0.519 0.115-0.888 0.575-0.888 1.106v6.301h-9.067v-6.301c0-0.533-0.371-0.994-0.891-1.107-2.824-0.619-5.516-1.73-7.954-3.283-0.448-0.283-1.033-0.219-1.409 0.156l-4.449 4.442-6.404-6.41 4.442-4.442c0.376-0.376 0.44-0.961 0.155-1.409-1.553-2.438-2.665-5.13-3.284-7.953-0.114-0.52-0.574-0.891-1.107-0.891h-6.301v-9.067h6.301c0.532 0 0.993-0.371 1.107-0.891 0.619-2.823 1.731-5.516 3.284-7.954 0.285-0.448 0.22-1.033-0.155-1.409l-4.442-4.45 6.41-6.404 4.442 4.442c0.376 0.376 0.961 0.44 1.409 0.156 2.438-1.553 5.13-2.665 7.953-3.283 0.52-0.114 0.891-0.575 0.891-1.108v-6.301h9.067v6.301c0 0.531 0.369 0.991 0.888 1.106 0.701 0.156 1.375 0.34 2.026 0.543l-1.116 1.116c-0.427 0.424-0.666 1.001-0.664 1.603v1.469c-8.334-2.412-17.282 0.71-22.305 7.784s-5.024 16.551 0 23.624c5.023 7.074 13.971 10.196 22.305 7.784v1.469c-0.002 0.601 0.238 1.178 0.664 1.603l1.116 1.116c-0.652 0.203-1.326 0.387-2.026 0.543zM52.727 43.067c1.878 0 3.4 1.522 3.4 3.4s-1.523 3.4-3.4 3.4-3.4-1.522-3.4-3.4c0.002-1.877 1.523-3.398 3.4-3.4zM41.393 46.755v4.456c-7.482 2.481-15.71-0.156-20.356-6.524s-4.646-15.008 0-21.376c4.646-6.368 12.874-9.005 20.356-6.524v4.456l-4.011 7.364c-0.535-0.174-1.093-0.267-1.656-0.275-3.129 0-5.667 2.537-5.667 5.667s2.537 5.667 5.667 5.667c0.562-0.008 1.121-0.101 1.656-0.275zM60.66 37.4c-1.878 0-3.4-1.523-3.4-3.4s1.522-3.4 3.4-3.4c1.878 0 3.4 1.523 3.4 3.4-0.002 1.877-1.523 3.398-3.4 3.4zM60.66 37.4"></path>
</svg>
