<!-- Generated by IcoMoon.io -->
<svg version="1.1" xmlns="http://www.w3.org/2000/svg" width="68" height="68" viewBox="0 0 68 68">
<title>-project-management</title>
<path fill="#fff" d="M67.032 17.856c-0 0-0 0-0 0l-0.002-0.002-4.389-0.626c-0.617-0.088-1.046-0.659-0.958-1.276 0.042-0.296 0.201-0.564 0.44-0.744l3.547-2.661c0.499-0.374 0.6-1.081 0.226-1.58l-4.062-5.416c-0.374-0.499-1.081-0.6-1.58-0.226l-3.546 2.661c-0.496 0.377-1.204 0.28-1.581-0.217-0.183-0.241-0.261-0.546-0.218-0.845l0.627-4.389c0.088-0.617-0.34-1.189-0.957-1.277-0 0-0.001-0-0.001-0l-6.698-0.957c-0.617-0.089-1.189 0.34-1.277 0.957 0 0 0 0 0 0l-0.627 4.389c-0.088 0.617-0.659 1.046-1.276 0.958-0.296-0.042-0.564-0.201-0.744-0.44l-2.659-3.547c-0.374-0.499-1.081-0.6-1.58-0.226l-3.391 2.544c-1.534-0.163-3.081-0.163-4.615 0-10.046 1.148-17.924 9.16-18.903 19.223-0.030 0.319-0.042 0.636-0.058 0.953h-0.338c-0.535 0.001-0.996 0.378-1.103 0.903l-0.78 3.708-3.123-2.154c-0.448-0.309-1.054-0.254-1.439 0.131l-3.385 3.385c-0.384 0.385-0.439 0.989-0.131 1.437l2.144 3.118-3.709 0.78c-0.519 0.114-0.888 0.574-0.887 1.105v4.513c-0 0.534 0.374 0.995 0.896 1.105l3.709 0.78-2.144 3.118c-0.309 0.448-0.254 1.053 0.131 1.437l3.385 3.385c0.385 0.385 0.99 0.44 1.439 0.131l3.118-2.149 0.78 3.709c0.107 0.525 0.568 0.902 1.103 0.903h4.513c0.534 0 0.995-0.374 1.105-0.896l0.78-3.709 3.118 2.144c0.448 0.309 1.053 0.254 1.437-0.131l1.752-1.758v3.216c0.005 1.605 0.865 3.086 2.257 3.886v6.269c0 2.493 2.021 4.513 4.513 4.513h4.513c2.493 0 4.513-2.021 4.513-4.513v-6.269c1.392-0.8 2.252-2.281 2.257-3.886v-4.466c0.031-1.879 1.014-3.614 2.61-4.606 0.936-0.607 1.824-1.287 2.656-2.031l-1.505-1.681c-0.744 0.667-1.539 1.275-2.377 1.818-2.24 1.406-3.612 3.855-3.64 6.5v4.466c0 1.246-1.010 2.257-2.257 2.257h-9.027c-1.246 0-2.257-1.010-2.257-2.257v-4.56c-0.026-2.595-1.376-4.997-3.579-6.368-8.943-5.619-11.637-17.424-6.018-26.367 3.487-5.549 9.571-8.926 16.124-8.949-0.017 0.040-0.032 0.081-0.044 0.123-0.042 0.296 0.036 0.597 0.215 0.836l2.659 3.546c0.28 0.363 0.307 0.861 0.068 1.252-0.231 0.394-0.677 0.608-1.128 0.543l-4.389-0.627c-0.617-0.088-1.189 0.34-1.277 0.957 0 0-0 0.001-0 0.001l-0.958 6.701c-0.088 0.617 0.34 1.189 0.957 1.277 0 0 0.001 0 0.001 0l4.389 0.627c0.617 0.088 1.046 0.659 0.958 1.276-0.042 0.296-0.201 0.564-0.44 0.744l-3.546 2.659c-0.499 0.374-0.6 1.081-0.226 1.58l4.062 5.416c0.374 0.499 1.081 0.6 1.58 0.226l3.547-2.659c0.499-0.373 1.206-0.271 1.579 0.228 0.179 0.239 0.255 0.539 0.214 0.834l-0.626 4.389c-0.089 0.617 0.34 1.189 0.957 1.277 0 0 0 0 0 0l6.702 0.958c0.053 0.007 0.106 0.010 0.159 0.010 0.562 0.001 1.038-0.412 1.118-0.968l0.626-4.389c0.088-0.617 0.659-1.046 1.276-0.958 0.296 0.042 0.564 0.201 0.744 0.44l2.661 3.546c0.374 0.499 1.081 0.6 1.58 0.226l5.416-4.062c0.499-0.374 0.6-1.081 0.226-1.58l-2.659-3.546c-0.279-0.363-0.306-0.861-0.068-1.252 0.226-0.399 0.676-0.615 1.128-0.542l4.389 0.626c0.617 0.089 1.189-0.34 1.277-0.957 0-0 0-0 0-0l0.957-6.702c0.089-0.617-0.34-1.189-0.957-1.277zM29.634 57.835h9.027v2.257h-9.027v-2.257zM29.634 62.348h9.027v1.128c0 1.246-1.010 2.257-2.257 2.257h-4.513c-1.246 0-2.257-1.010-2.257-2.257v-1.128zM20.652 42.89c0.616 0.504 1.26 0.973 1.928 1.405 1.066 0.674 1.869 1.693 2.274 2.887l-2.42 2.416-2.344-1.616c-1.026-0.707-2.431-0.449-3.139 0.578-0.17 0.246-0.289 0.523-0.35 0.816l-0.591 2.817h-2.682l-0.591-2.813c-0.257-1.22-1.453-2-2.673-1.744-0.292 0.061-0.57 0.181-0.816 0.35l-2.345 1.611-2.056-2.051 1.615-2.342c0.708-1.026 0.45-2.431-0.576-3.139-0.246-0.17-0.524-0.289-0.817-0.351l-2.813-0.592v-2.681l2.813-0.592c1.219-0.259 1.998-1.456 1.739-2.676-0.061-0.289-0.179-0.564-0.346-0.807l-1.616-2.349 2.056-2.051 2.346 1.616c1.027 0.706 2.432 0.447 3.138-0.58 0.169-0.246 0.288-0.523 0.349-0.815l0.197-0.939c0.181 1.3 0.48 2.581 0.895 3.826-3.713 0.443-6.364 3.811-5.921 7.524s3.811 6.364 7.524 5.921c2.235-0.267 4.191-1.626 5.22-3.628zM18.899 41.301c-0.843 2.342-3.424 3.557-5.766 2.715s-3.557-3.424-2.715-5.766c0.645-1.792 2.346-2.985 4.25-2.981 0.015 0 0.028 0 0.043 0 1.038 2.237 2.455 4.278 4.189 6.032zM64.951 24.396l-3.272-0.467c-1.851-0.264-3.565 1.022-3.83 2.872-0.127 0.889 0.104 1.792 0.643 2.51l1.982 2.644-3.611 2.708-1.984-2.643c-1.122-1.496-3.243-1.799-4.739-0.678-0.718 0.538-1.193 1.34-1.32 2.229l-0.457 3.277-4.467-0.639 0.467-3.272c0.265-1.851-1.020-3.566-2.871-3.831-0.889-0.127-1.793 0.104-2.511 0.643l-2.644 1.982-2.708-3.611 2.643-1.984c1.496-1.122 1.799-3.243 0.678-4.739-0.538-0.718-1.34-1.193-2.229-1.32l-3.272-0.467 0.639-4.467 3.272 0.467c1.851 0.265 3.566-1.020 3.831-2.871 0.127-0.889-0.104-1.793-0.643-2.511l-1.989-2.646 3.611-2.708 1.984 2.644c1.122 1.496 3.243 1.799 4.739 0.678 0.718-0.538 1.193-1.34 1.32-2.229l0.467-3.272 4.467 0.638-0.467 3.272c-0.264 1.851 1.022 3.565 2.872 3.83 0.889 0.127 1.792-0.104 2.51-0.643l2.644-1.982 2.708 3.611-2.644 1.984c-1.496 1.122-1.799 3.243-0.678 4.739 0.538 0.718 1.34 1.193 2.229 1.32l3.272 0.467-0.642 4.466zM48.518 10.743c-4.985 0-9.027 4.041-9.027 9.027s4.041 9.027 9.027 9.027c4.985 0 9.027-4.041 9.027-9.027-0.006-4.983-4.044-9.021-9.027-9.027zM48.518 26.54c-3.739 0-6.77-3.031-6.77-6.77s3.031-6.77 6.77-6.77c3.739 0 6.77 3.031 6.77 6.77-0.004 3.737-3.033 6.766-6.77 6.77zM33.019 49.937h2.257v3.385h-2.257v-3.385zM29.212 38.855c-6.965-2.721-10.406-10.573-7.685-17.539 1.054-2.699 2.947-4.989 5.399-6.532l-1.206-1.909c-7.382 4.65-9.596 14.404-4.945 21.785 1.801 2.859 4.471 5.065 7.618 6.294 2.786 1.067 4.625 3.742 4.626 6.725h2.257c0.004-3.914-2.409-7.425-6.064-8.825zM55.586 42.038h7.898v2.257h-7.898v-2.257zM53.735 49.675l1.444-1.734 6.77 5.641-1.444 1.734-6.77-5.641zM48.816 51.065h2.257v7.898h-2.257v-7.898zM1.152 19.505l9.026-2.256 0.547 2.188-9.026 2.256-0.547-2.188zM3.026 7.979l1.311-1.835 7.898 5.641-1.311 1.835-7.898-5.641zM12.694 0.568l2.186-0.559 2.308 9.026-2.186 0.559-2.308-9.026z"></path>
</svg>
