<!-- Generated by IcoMoon.io -->
<svg version="1.1" xmlns="http://www.w3.org/2000/svg" width="85" height="85" viewBox="0 0 85 85">
<title>-advertisig-agency</title>
<path fill="#fff" d="M41.172 58.438c0 0.734-0.595 1.328-1.328 1.328v0h-2.656c-0.734 0-1.328-0.595-1.328-1.328s0.595-1.328 1.328-1.328v0h2.656c0.734 0 1.328 0.595 1.328 1.328v0zM82.344 22.578v43.748c0 0.024 0.001 0.052 0.001 0.080 0 2.201-1.784 3.984-3.984 3.984-0 0-0.001 0-0.001 0h-23.906c-0 0-0 0-0.001 0-2.201 0-3.984-1.784-3.984-3.984 0-0.028 0-0.056 0.001-0.084l-0 0.004v-1.248h-3.984v9.297h9.297c2.201 0 3.984 1.784 3.984 3.984s-1.784 3.984-3.984 3.984v0h-35.859c-2.201 0-3.984-1.784-3.984-3.984s1.784-3.984 3.984-3.984v0h10.625v-9.297h-24.185c-1.559-0.041-2.875-1.034-3.392-2.418l-0.008-0.026c-0.193-0.445-0.306-0.962-0.306-1.506 0-0.012 0-0.024 0-0.036v0.002-47.813c-0.001-0.037-0.002-0.080-0.002-0.123 0-2.079 1.642-3.775 3.7-3.861l0.008-0h19.922l4.383-6.083c0.23-0.321 0.592-0.534 1.006-0.558l0.004-0c0.026-0.002 0.057-0.003 0.087-0.003 0.399 0 0.753 0.193 0.973 0.491l0.002 0.003 4.888 5.937 0.996-0.797c0.674-0.54 1.539-0.867 2.481-0.867 1.211 0 2.295 0.54 3.026 1.393l0.004 0.005c0.133 0.173 0.239 0.332 0.332 0.478h26.204c2.066 0.087 3.707 1.783 3.707 3.862 0 0.043-0.001 0.086-0.002 0.129l0-0.006v5.313h3.984c2.201 0 3.984 1.784 3.984 3.984v0zM53.125 61.094h26.563v-33.203h-26.563zM78.359 21.25h-23.906c-0.734 0-1.328 0.595-1.328 1.328v0 2.656h26.563v-2.656c0-0.734-0.595-1.328-1.328-1.328v0zM40.269 10.359l-0.956 0.77 1.567 1.926 0.996-0.81c0.3-0.223 0.492-0.575 0.492-0.973 0-0.127-0.020-0.249-0.056-0.364l0.002 0.009c-0.017-0.085-0.045-0.161-0.082-0.23l0.002 0.004s-0.093-0.159-0.173-0.266c-0.24-0.237-0.569-0.383-0.933-0.383-0.329 0-0.63 0.12-0.862 0.318l0.002-0.001zM19.284 23.548l5.313 6.375 19.736-8.566-4.609-5.591-7.942-9.602zM13.401 28.701c-0.774 0.628-1.305 1.53-1.445 2.556l-0.002 0.021c-0.011 0.11-0.018 0.237-0.018 0.366 0 0.916 0.322 1.758 0.86 2.416l-0.005-0.007c0.716 0.858 1.786 1.4 2.983 1.4 0.938 0 1.798-0.333 2.469-0.887l-0.007 0.005 3.984-3.214-4.861-5.897zM21.994 34.983l5.698 6.92c0.244 0.272 0.597 0.443 0.99 0.443 0.303 0 0.583-0.102 0.806-0.273l-0.003 0.002c0.257-0.202 0.427-0.504 0.451-0.846l0-0.004c0.006-0.043 0.009-0.092 0.009-0.142 0-0.286-0.104-0.547-0.276-0.749l0.001 0.002-5.698-6.933zM5.313 13.281v38.516h45.156v-29.219c0-2.201 1.784-3.984 3.984-3.984v0h17.266v-5.313c0.002-0.028 0.004-0.062 0.004-0.095 0-0.62-0.453-1.135-1.046-1.232l-0.007-0.001h-25.699c-0.191 0.963-0.707 1.783-1.426 2.358l-0.008 0.006-0.97 0.784 4.874 5.923c0.193 0.229 0.31 0.527 0.31 0.853 0 0.543-0.326 1.010-0.793 1.216l-0.008 0.003-20.652 8.965 5.432 6.641c0.542 0.665 0.871 1.523 0.871 2.458 0 1.225-0.565 2.319-1.448 3.035l-0.007 0.006c-0.672 0.537-1.533 0.862-2.47 0.863h-0c-0.008 0-0.018 0-0.028 0-1.21 0-2.292-0.551-3.008-1.415l-0.005-0.006-5.711-6.986c-1.106 0.911-2.537 1.463-4.097 1.463-3.573 0-6.47-2.897-6.47-6.47 0-2.013 0.919-3.812 2.361-4.998l0.011-0.009 4.914-3.984 7.703-10.705h-17.983c-0.6 0.098-1.053 0.613-1.053 1.233 0 0.033 0.001 0.067 0.004 0.099l-0-0.004zM55.781 77.031h-35.859c-0.734 0-1.328 0.595-1.328 1.328s0.595 1.328 1.328 1.328v0h35.859c0.734 0 1.328-0.595 1.328-1.328s-0.595-1.328-1.328-1.328v0zM43.828 65.078h-10.625v9.297h10.625zM50.469 62.422v-7.969h-45.156v6.641c0.002 0.192 0.041 0.374 0.11 0.541l-0.004-0.010c0.122 0.428 0.491 0.743 0.939 0.783l0.004 0h44.107zM79.688 66.327v-2.577h-26.563v2.577c-0.001 0.024-0.002 0.052-0.002 0.080 0 0.734 0.595 1.328 1.328 1.328 0.001 0 0.002 0 0.002 0h23.906c0.001 0 0.002 0 0.002 0 0.734 0 1.328-0.595 1.328-1.328 0-0.028-0.001-0.056-0.003-0.084l0 0.004zM77.031 38.516v11.953c0 2.201-1.784 3.984-3.984 3.984v0h-13.281c-2.201 0-3.984-1.784-3.984-3.984v0-11.953c0-2.201 1.784-3.984 3.984-3.984v0h13.281c2.201 0 3.984 1.784 3.984 3.984v0zM74.375 38.516c0-0.734-0.595-1.328-1.328-1.328v0h-13.281c-0.734 0-1.328 0.595-1.328 1.328v0 11.953c0 0.734 0.595 1.328 1.328 1.328v0h13.281c0.734 0 1.328-0.595 1.328-1.328v0zM70.391 44.492c-0.001 0.449-0.225 0.846-0.567 1.086l-0.004 0.003-5.313 3.705c-0.211 0.149-0.474 0.238-0.757 0.239h-0c-0.001 0-0.003 0-0.004 0-0.223 0-0.432-0.059-0.613-0.163l0.006 0.003c-0.426-0.224-0.713-0.663-0.717-1.168v-7.412c0.001-0.733 0.595-1.326 1.328-1.326 0.283 0 0.546 0.089 0.761 0.24l-0.004-0.003 5.313 3.705c0.346 0.243 0.57 0.64 0.571 1.089v0zM66.738 44.492l-1.66-1.155v2.311z"></path>
</svg>
