<!-- Generated by IcoMoon.io -->
<svg version="1.1" xmlns="http://www.w3.org/2000/svg" width="85" height="85" viewBox="0 0 85 85">
<title>-data-visualization</title>
<path fill="#fff" d="M51.125 2.625c-0.75 0-1.25 0.5-1.25 1.25v2.625c0 0.75 0.5 1.25 1.25 1.25s1.25-0.5 1.25-1.25v-2.625c0-0.625-0.5-1.25-1.25-1.25zM60 4l-1.875 2.25c-0.375 0.5-0.375 1.375 0.125 1.75s1.375 0.375 1.75-0.125l1.875-2.25c0.375-0.5 0.375-1.375-0.125-1.75-0.5-0.5-1.25-0.375-1.75 0.125zM40.5 3.875c-0.5 0.5-0.625 1.25-0.125 1.75l1.875 2.25c0.375 0.5 1.25 0.625 1.75 0.125s0.625-1.25 0.125-1.75l-1.875-2.25c-0.375-0.5-1.25-0.625-1.75-0.125zM2.5 21.125v32.375c0 0.75 0.5 1.25 1.25 1.25s1.25-0.5 1.25-1.25v-32.375c0-1.375 1.125-2.5 2.5-2.5h16.25c1.125 0 2 0.75 2.375 1.75l1.125 3.375c0.625 2.125 2.625 3.5 4.75 3.5h9.875c2.875 1.5 6 2.375 9.25 2.375h0.125c5.25 0 10.125-2.125 13.75-5.75l3.5-3.5c0.5-0.5 0.5-1.25 0-1.75l-3.5-3.5c-7.625-7.5-20-7.5-27.5 0.125l-3.5 3.5c-0.5 0.5-0.5 1.25 0 1.75l3.5 3.5c0.25 0.25 0.625 0.5 0.875 0.75h-6.25c-1.125 0-2-0.75-2.375-1.75l-1.125-3.375c-0.625-2.125-2.625-3.5-4.75-3.5h-16.375c-2.75 0-5 2.25-5 5zM36.5 19.5l2.625-2.625c6.625-6.625 17.375-6.625 24-0.125l2.625 2.625-2.625 2.625c-3.125 3.25-7.5 5-12 5 0 0 0 0-0.125 0-8.875 0-13-6.375-14.5-7.5zM82.5 39.5c0-2.875-2.375-5.25-5.25-5.25h-3.875c-0.75 0-1.25 0.5-1.25 1.25s0.5 1.25 1.25 1.25h3.875c1.5 0 2.75 1.25 2.75 2.75v37.625c0 1.5-1.25 2.75-2.75 2.75h-8.375v-27.875h4.5v21.875c0 0.75 0.5 1.25 1.25 1.25s1.25-0.5 1.25-1.25v-23.125c0-0.75-0.5-1.25-1.25-1.25h-7c-0.75 0-1.25 0.5-1.25 1.25v29h-4.375v-17c0-0.75-0.5-1.25-1.25-1.25h-7c-0.75 0-1.25 0.5-1.25 1.25v17.125h-11.5v-20.875h4.5v16.125c0 0.75 0.5 1.25 1.25 1.25s1.25-0.5 1.25-1.25v-17.375c0-0.75-0.5-1.25-1.25-1.25h-7c-0.75 0-1.25 0.5-1.25 1.25v22.125h-4.375v-10.5c0-0.75-0.5-1.25-1.25-1.25h-7c-0.75 0-1.25 0.5-1.25 1.25v10.5h-6.625c1.75-1.625 2.875-4 2.875-6.625v-33.75c0-1.5 1.25-2.75 2.75-2.75h37.125c0.75 0 1.25-0.5 1.25-1.25s-0.5-1.25-1.25-1.25h-37.125c-2.875 0-5.25 2.375-5.25 5.25v33.75c0 3.625-3 6.625-6.625 6.625s-6.75-3-6.75-6.625v-12.625c0-0.75-0.5-1.25-1.25-1.25s-1.25 0.5-1.25 1.25v12.625c0 5 4.125 9.125 9.125 9.125h65.625c2.875 0 5.25-2.375 5.25-5.25zM27.125 70.625h4.5v9.25h-4.5zM55 64h4.5v15.875h-4.5zM72.625 32.375c2.625 0 4.75-2.125 4.75-4.75s-2.125-4.75-4.75-4.75-4.75 2.125-4.75 4.75c0 1.25 0.5 2.375 1.25 3.125l-8.625 13.875c-0.5-0.125-1-0.25-1.625-0.25-1.875 0-3.375 1-4.125 2.625l-7.5-2.25c-0.125-2.5-2.125-4.5-4.625-4.5-2.625 0-4.75 2.125-4.75 4.75 0 0.625 0.125 1.125 0.375 1.625l-6.625 8.5c-0.625-0.375-1.375-0.5-2.125-0.5-2.625 0-4.75 2.125-4.75 4.75s2.125 4.75 4.75 4.75 4.75-2.125 4.75-4.75c0-0.875-0.25-1.75-0.75-2.5l6.25-8.125c0.75 0.625 1.75 1 2.875 1 1.75 0 3.375-1 4.125-2.5l7.5 2.25c0.125 2.5 2.25 4.375 4.625 4.375 2.625 0 4.75-2.125 4.75-4.75 0-1.125-0.375-2.125-1.125-3l8.75-14c0.375 0.125 0.875 0.25 1.375 0.25zM72.625 25.375c1.25 0 2.25 1 2.25 2.25s-1 2.25-2.25 2.25-2.25-1-2.25-2.25 1-2.25 2.25-2.25zM29.375 61.5c-1.25 0-2.25-1-2.25-2.25s1-2.25 2.25-2.25 2.25 1 2.25 2.25-1 2.25-2.25 2.25zM42.5 47.125c-1.25 0-2.25-1-2.25-2.25s1-2.25 2.25-2.25 2.25 1 2.25 2.25-1 2.25-2.25 2.25zM58.875 51.25c-1.25 0-2.25-1-2.25-2.25s1-2.25 2.25-2.25 2.25 1 2.25 2.25-1 2.25-2.25 2.25zM51 24.75c2.875 0 5.25-2.375 5.25-5.25s-2.375-5.25-5.25-5.25c-1.375 0-2.75 0.5-3.75 1.5s-1.5 2.25-1.5 3.75c0.125 2.875 2.375 5.25 5.25 5.25zM49.125 17.625c0.5-0.5 1.25-0.75 1.875-0.75 1.5 0 2.75 1.25 2.75 2.75s-1.25 2.75-2.75 2.75c-1.5 0-2.75-1.25-2.75-2.75 0-0.875 0.375-1.5 0.875-2z"></path>
</svg>
