<!-- Generated by IcoMoon.io -->
<svg version="1.1" xmlns="http://www.w3.org/2000/svg" width="85" height="85" viewBox="0 0 85 85">
<title>-search-engine</title>
<path fill="#fff" d="M69.12 18.533l-4.041-4.041-4.041 4.041-1.878-1.878 5.92-5.92 5.92 5.92zM63.75 13.277h2.656v14.609h-2.656zM71.719 45.152h-2.656v-5.711c10.021-2.045 16.865-11.346 15.836-21.522s-9.593-17.919-19.821-17.919-18.793 7.744-19.821 17.919c-1.029 10.176 5.816 19.476 15.836 21.522v5.711h-2.656v37.188h-5.313v-42.5h-13.281v42.5h-5.313v-31.875h-13.281v31.875h-5.313v-18.594h-13.281v18.594h-2.656v2.656h85v-2.656h-13.281zM13.281 82.34h-7.969v-15.938h7.969zM31.875 82.34h-7.969v-29.219h7.969zM50.469 82.34h-7.969v-39.844h7.969zM47.813 19.918c0-9.215 7.237-16.806 16.441-17.246s17.132 6.426 18.011 15.598c0.879 9.173-5.6 17.42-14.721 18.736l-1.138 0.163v7.982h-2.656v-7.982l-1.138-0.163c-8.477-1.259-14.764-8.519-14.799-17.089zM69.063 82.34h-7.969v-34.531h7.969zM79.688 19.918c0-8.069-6.541-14.609-14.609-14.609s-14.609 6.541-14.609 14.609c0 8.069 6.541 14.609 14.609 14.609 8.065-0.010 14.6-6.545 14.609-14.609zM53.125 19.918c0-6.602 5.351-11.953 11.953-11.953s11.953 5.351 11.953 11.953c0 6.601-5.351 11.953-11.953 11.953-6.598-0.008-11.946-5.355-11.953-11.953zM19.113 45.152h9.327l11.403-11.403v3.434h2.656v-7.969h-7.969v2.656h3.434l-10.625 10.625h-9.266l-17.648 16.29 1.804 1.95zM77.031 45.152h7.969v2.656h-7.969zM77.031 50.465h7.969v2.656h-7.969zM77.031 55.777h7.969v2.656h-7.969zM77.031 61.090h7.969v2.656h-7.969zM77.031 66.402h7.969v2.656h-7.969zM77.031 71.715h7.969v2.656h-7.969zM77.031 77.027h7.969v2.656h-7.969zM77.031 77.027"></path>
</svg>
