<!-- Generated by IcoMoon.io -->
<svg version="1.1" xmlns="http://www.w3.org/2000/svg" width="85" height="85" viewBox="0 0 85 85">
<title>-ux-design</title>
<path fill="#fff" d="M74.8 12.943c1.687 0 3.052-1.365 3.052-3.052s-1.365-3.052-3.052-3.052-3.052 1.365-3.052 3.052 1.378 3.052 3.052 3.052zM74.8 9.015c0.489 0 0.889 0.399 0.889 0.889s-0.399 0.889-0.889 0.889c-0.502 0-0.889-0.386-0.889-0.889s0.399-0.889 0.889-0.889zM78.187 1.906h-62.745c-2.383 0-4.327 1.945-4.327 4.327v6.607h-4.302c-2.383 0-4.327 1.945-4.327 4.327v54.258c0 2.383 1.945 4.327 4.327 4.327h28.758v6.259c0 0.592 0.489 1.082 1.082 1.082h20.323c0.592 0 1.082-0.489 1.082-1.082v-6.259h11.501c2.383 0 4.327-1.945 4.327-4.327v-6.607h4.302c2.383 0 4.327-1.945 4.327-4.327v-54.258c0-2.383-1.945-4.327-4.327-4.327zM13.278 6.233c0-1.198 0.979-2.164 2.164-2.164h62.745c1.198 0 2.164 0.979 2.164 2.164v9.492h-41.058l-4.83-5.010c-0.373-0.386-0.889-0.605-1.417-0.605h-10.638c-1.082 0-1.97 0.889-1.97 1.97v3.645h-7.161zM6.813 73.602c-1.198 0-2.164-0.979-2.164-2.164v-54.271c0-1.198 0.979-2.164 2.164-2.164h4.302v45.501c0 2.383 1.945 4.327 4.327 4.327h23.491c0.425 0.824 0.618 1.752 0.541 2.705h-1.674c-1.236 0-2.228 1.005-2.228 2.228v3.838zM45.745 50.948c0.219-0.386 0.618-0.631 1.069-0.631 0.67 0 1.211 0.541 1.211 1.211 0 0.438-0.232 0.837-0.605 1.056-0.412 0.245-0.902 0.219-1.404-0.064-0.064-0.039-0.129-0.090-0.155-0.155-0.412-0.657-0.245-1.172-0.116-1.417zM45.733 48.36c-0.786 0.27-1.455 0.798-1.867 1.545-0.618 1.108-0.541 2.46 0.18 3.619 0.232 0.361 0.541 0.657 0.914 0.876 0.592 0.335 1.236 0.515 1.867 0.515 0.592 0 1.172-0.155 1.687-0.451 1.030-0.605 1.674-1.726 1.674-2.923 0-1.481-0.966-2.73-2.292-3.181v-5.564l9.569 17.27c-0.013 0.013-0.026 0.039-0.064 0.052-3.387 0.876-5.602 4.044-5.422 7.418h-10.316c0.193-3.387-2.035-6.555-5.486-7.521l9.556-17.219zM55.894 80.93h-18.159l0.064-11.243h18.030c0.039 0 0.064 0.026 0.064 0.064zM71.722 71.426c0 1.198-0.979 2.164-2.164 2.164h-11.501v-3.838c0-1.236-1.005-2.228-2.228-2.228h-1.674c-0.077-0.953 0.129-1.88 0.541-2.705h17.026zM78.187 62.668h-21.392c0.348-0.193 0.721-0.361 1.133-0.464 0.683-0.18 1.236-0.657 1.52-1.301 0.27-0.631 0.232-1.339-0.103-1.945l-11.076-19.949c-0.283-0.528-0.837-0.863-1.442-0.863-0.618 0.013-1.172 0.322-1.468 0.85l-11.089 19.962c-0.335 0.605-0.361 1.327-0.090 1.958 0.27 0.644 0.824 1.108 1.507 1.288 0.412 0.103 0.773 0.27 1.133 0.464h-21.379c-1.198 0-2.164-0.979-2.164-2.164v-42.616h7.341c1.082 0 1.97-0.889 1.97-1.97v-3.645h10.367l4.83 5.010c0.373 0.386 0.889 0.605 1.417 0.605h41.148v42.603c0 1.198-0.966 2.177-2.164 2.177zM67.433 12.943c1.687 0 3.052-1.365 3.052-3.052s-1.365-3.052-3.052-3.052-3.052 1.365-3.052 3.052 1.365 3.052 3.052 3.052zM67.433 9.015c0.489 0 0.889 0.399 0.889 0.889s-0.399 0.889-0.889 0.889c-0.502 0-0.889-0.386-0.889-0.889s0.399-0.889 0.889-0.889zM60.054 12.943c1.687 0 3.052-1.365 3.052-3.052s-1.365-3.052-3.052-3.052-3.052 1.365-3.052 3.052 1.365 3.052 3.052 3.052zM60.054 9.015c0.489 0 0.889 0.399 0.889 0.889s-0.399 0.889-0.889 0.889c-0.502 0-0.889-0.386-0.889-0.889s0.399-0.889 0.889-0.889zM67.665 27.316c-0.631 0.631-1.030 1.43-1.185 2.28h-15.133v-1.7c0-1.159-0.94-2.099-2.099-2.099h-4.881c-1.159 0-2.099 0.94-2.099 2.099v1.7h-15.12c-0.142-0.837-0.541-1.636-1.185-2.292-1.636-1.61-4.43-1.584-6.027 0.013-0.811 0.811-1.249 1.88-1.249 3.014 0 1.146 0.451 2.228 1.249 3.014 0.811 0.837 1.893 1.262 3.014 1.262 0.708 0 1.43-0.167 2.112-0.515 0.734-0.373 1.339-0.992 1.7-1.752 0.090-0.193 0.167-0.386 0.232-0.58h10.496c-5.705 2.782-10.007 8.011-11.501 14.321h-1.674c-1.159 0-2.099 0.94-2.099 2.099v4.881c0 1.159 0.94 2.099 2.099 2.099h4.881c1.159 0 2.099-0.94 2.099-2.099v-4.881c0-1.159-0.94-2.099-2.099-2.099h-0.979c1.803-6.8 7.251-12.132 14.089-13.78v0.464c0 1.159 0.94 2.099 2.099 2.099h4.881c1.159 0 2.099-0.94 2.099-2.099v-0.464c6.826 1.648 12.273 6.98 14.089 13.78h-0.889c-1.159 0-2.099 0.94-2.099 2.099v4.881c0 1.159 0.94 2.099 2.099 2.099h4.881c1.159 0 2.099-0.94 2.099-2.099v-4.881c0-1.159-0.94-2.099-2.099-2.099h-1.764c-1.507-6.311-5.808-11.552-11.501-14.321h10.522c0.206 0.592 0.541 1.133 0.992 1.584 0.811 0.837 1.893 1.262 3.014 1.262 0.708 0 1.43-0.167 2.112-0.515 0.734-0.373 1.339-0.992 1.7-1.752 0.837-1.764 0.541-3.683-0.786-5.036-1.687-1.597-4.482-1.584-6.092 0.013zM24.792 31.424c-0.155 0.309-0.412 0.58-0.721 0.734-1.12 0.567-2.086 0.206-2.614-0.348-0.399-0.386-0.618-0.914-0.618-1.481 0-0.554 0.219-1.082 0.618-1.494 0.399-0.399 0.927-0.618 1.494-0.618 0.554 0 1.095 0.219 1.481 0.605 0.67 0.695 0.798 1.661 0.361 2.602zM29.17 52.996l-4.817 0.064-0.064-4.817h4.817zM69.43 52.996l-4.817 0.064-0.064-4.817h4.817zM44.445 32.777l-0.026-1.623c0.026-0.116 0.026-0.232 0.013-0.361v-0.013c0-0.039 0.026-0.064 0.026-0.103 0-0.064-0.026-0.116-0.039-0.167l-0.039-2.537h4.817l0.039 2.537c-0.013 0.064-0.039 0.116-0.039 0.18 0 0.039 0.013 0.064 0.026 0.103v0.013c-0.026 0.167-0.013 0.322 0.026 0.464l0.026 1.455zM72.533 31.424c-0.155 0.309-0.412 0.58-0.721 0.734-1.12 0.567-2.086 0.206-2.614-0.348-0.399-0.386-0.618-0.914-0.618-1.481 0-0.554 0.219-1.082 0.618-1.494 0.399-0.399 0.927-0.618 1.494-0.618 0.554 0 1.095 0.219 1.481 0.605 0.67 0.695 0.798 1.661 0.361 2.602z"></path>
</svg>
